G75*
G70*
%OFA0B0*%
%FSLAX24Y24*%
%IPPOS*%
%LPD*%
%AMOC8*
5,1,8,0,0,1.08239X$1,22.5*
%
%ADD10C,0.0000*%
%ADD11C,0.0080*%
%ADD12C,0.0150*%
%ADD13C,0.0059*%
%ADD14R,0.0620X0.0240*%
%ADD15C,0.0060*%
%ADD16C,0.0050*%
%ADD17R,0.0177X0.0236*%
%ADD18R,0.0236X0.0177*%
D10*
X001340Y001800D02*
X001340Y037900D01*
X020340Y037900D01*
X020340Y027600D01*
X021140Y027600D01*
X021140Y037900D01*
X040140Y037900D01*
X040140Y001800D01*
X021140Y001800D01*
X021140Y021400D01*
X020340Y021400D01*
X020340Y001800D01*
X001340Y001800D01*
X018510Y003000D02*
X018512Y003050D01*
X018518Y003100D01*
X018528Y003149D01*
X018542Y003197D01*
X018559Y003244D01*
X018580Y003289D01*
X018605Y003333D01*
X018633Y003374D01*
X018665Y003413D01*
X018699Y003450D01*
X018736Y003484D01*
X018776Y003514D01*
X018818Y003541D01*
X018862Y003565D01*
X018908Y003586D01*
X018955Y003602D01*
X019003Y003615D01*
X019053Y003624D01*
X019102Y003629D01*
X019153Y003630D01*
X019203Y003627D01*
X019252Y003620D01*
X019301Y003609D01*
X019349Y003594D01*
X019395Y003576D01*
X019440Y003554D01*
X019483Y003528D01*
X019524Y003499D01*
X019563Y003467D01*
X019599Y003432D01*
X019631Y003394D01*
X019661Y003354D01*
X019688Y003311D01*
X019711Y003267D01*
X019730Y003221D01*
X019746Y003173D01*
X019758Y003124D01*
X019766Y003075D01*
X019770Y003025D01*
X019770Y002975D01*
X019766Y002925D01*
X019758Y002876D01*
X019746Y002827D01*
X019730Y002779D01*
X019711Y002733D01*
X019688Y002689D01*
X019661Y002646D01*
X019631Y002606D01*
X019599Y002568D01*
X019563Y002533D01*
X019524Y002501D01*
X019483Y002472D01*
X019440Y002446D01*
X019395Y002424D01*
X019349Y002406D01*
X019301Y002391D01*
X019252Y002380D01*
X019203Y002373D01*
X019153Y002370D01*
X019102Y002371D01*
X019053Y002376D01*
X019003Y002385D01*
X018955Y002398D01*
X018908Y002414D01*
X018862Y002435D01*
X018818Y002459D01*
X018776Y002486D01*
X018736Y002516D01*
X018699Y002550D01*
X018665Y002587D01*
X018633Y002626D01*
X018605Y002667D01*
X018580Y002711D01*
X018559Y002756D01*
X018542Y002803D01*
X018528Y002851D01*
X018518Y002900D01*
X018512Y002950D01*
X018510Y003000D01*
X020523Y022000D02*
X020525Y022029D01*
X020531Y022057D01*
X020540Y022085D01*
X020553Y022111D01*
X020570Y022134D01*
X020589Y022156D01*
X020611Y022175D01*
X020636Y022190D01*
X020662Y022203D01*
X020690Y022211D01*
X020718Y022216D01*
X020747Y022217D01*
X020776Y022214D01*
X020804Y022207D01*
X020831Y022197D01*
X020857Y022183D01*
X020880Y022166D01*
X020901Y022146D01*
X020919Y022123D01*
X020934Y022098D01*
X020945Y022071D01*
X020953Y022043D01*
X020957Y022014D01*
X020957Y021986D01*
X020953Y021957D01*
X020945Y021929D01*
X020934Y021902D01*
X020919Y021877D01*
X020901Y021854D01*
X020880Y021834D01*
X020857Y021817D01*
X020831Y021803D01*
X020804Y021793D01*
X020776Y021786D01*
X020747Y021783D01*
X020718Y021784D01*
X020690Y021789D01*
X020662Y021797D01*
X020636Y021810D01*
X020611Y021825D01*
X020589Y021844D01*
X020570Y021866D01*
X020553Y021889D01*
X020540Y021915D01*
X020531Y021943D01*
X020525Y021971D01*
X020523Y022000D01*
X020523Y023000D02*
X020525Y023029D01*
X020531Y023057D01*
X020540Y023085D01*
X020553Y023111D01*
X020570Y023134D01*
X020589Y023156D01*
X020611Y023175D01*
X020636Y023190D01*
X020662Y023203D01*
X020690Y023211D01*
X020718Y023216D01*
X020747Y023217D01*
X020776Y023214D01*
X020804Y023207D01*
X020831Y023197D01*
X020857Y023183D01*
X020880Y023166D01*
X020901Y023146D01*
X020919Y023123D01*
X020934Y023098D01*
X020945Y023071D01*
X020953Y023043D01*
X020957Y023014D01*
X020957Y022986D01*
X020953Y022957D01*
X020945Y022929D01*
X020934Y022902D01*
X020919Y022877D01*
X020901Y022854D01*
X020880Y022834D01*
X020857Y022817D01*
X020831Y022803D01*
X020804Y022793D01*
X020776Y022786D01*
X020747Y022783D01*
X020718Y022784D01*
X020690Y022789D01*
X020662Y022797D01*
X020636Y022810D01*
X020611Y022825D01*
X020589Y022844D01*
X020570Y022866D01*
X020553Y022889D01*
X020540Y022915D01*
X020531Y022943D01*
X020525Y022971D01*
X020523Y023000D01*
X020523Y024000D02*
X020525Y024029D01*
X020531Y024057D01*
X020540Y024085D01*
X020553Y024111D01*
X020570Y024134D01*
X020589Y024156D01*
X020611Y024175D01*
X020636Y024190D01*
X020662Y024203D01*
X020690Y024211D01*
X020718Y024216D01*
X020747Y024217D01*
X020776Y024214D01*
X020804Y024207D01*
X020831Y024197D01*
X020857Y024183D01*
X020880Y024166D01*
X020901Y024146D01*
X020919Y024123D01*
X020934Y024098D01*
X020945Y024071D01*
X020953Y024043D01*
X020957Y024014D01*
X020957Y023986D01*
X020953Y023957D01*
X020945Y023929D01*
X020934Y023902D01*
X020919Y023877D01*
X020901Y023854D01*
X020880Y023834D01*
X020857Y023817D01*
X020831Y023803D01*
X020804Y023793D01*
X020776Y023786D01*
X020747Y023783D01*
X020718Y023784D01*
X020690Y023789D01*
X020662Y023797D01*
X020636Y023810D01*
X020611Y023825D01*
X020589Y023844D01*
X020570Y023866D01*
X020553Y023889D01*
X020540Y023915D01*
X020531Y023943D01*
X020525Y023971D01*
X020523Y024000D01*
X020523Y025000D02*
X020525Y025029D01*
X020531Y025057D01*
X020540Y025085D01*
X020553Y025111D01*
X020570Y025134D01*
X020589Y025156D01*
X020611Y025175D01*
X020636Y025190D01*
X020662Y025203D01*
X020690Y025211D01*
X020718Y025216D01*
X020747Y025217D01*
X020776Y025214D01*
X020804Y025207D01*
X020831Y025197D01*
X020857Y025183D01*
X020880Y025166D01*
X020901Y025146D01*
X020919Y025123D01*
X020934Y025098D01*
X020945Y025071D01*
X020953Y025043D01*
X020957Y025014D01*
X020957Y024986D01*
X020953Y024957D01*
X020945Y024929D01*
X020934Y024902D01*
X020919Y024877D01*
X020901Y024854D01*
X020880Y024834D01*
X020857Y024817D01*
X020831Y024803D01*
X020804Y024793D01*
X020776Y024786D01*
X020747Y024783D01*
X020718Y024784D01*
X020690Y024789D01*
X020662Y024797D01*
X020636Y024810D01*
X020611Y024825D01*
X020589Y024844D01*
X020570Y024866D01*
X020553Y024889D01*
X020540Y024915D01*
X020531Y024943D01*
X020525Y024971D01*
X020523Y025000D01*
X020523Y026000D02*
X020525Y026029D01*
X020531Y026057D01*
X020540Y026085D01*
X020553Y026111D01*
X020570Y026134D01*
X020589Y026156D01*
X020611Y026175D01*
X020636Y026190D01*
X020662Y026203D01*
X020690Y026211D01*
X020718Y026216D01*
X020747Y026217D01*
X020776Y026214D01*
X020804Y026207D01*
X020831Y026197D01*
X020857Y026183D01*
X020880Y026166D01*
X020901Y026146D01*
X020919Y026123D01*
X020934Y026098D01*
X020945Y026071D01*
X020953Y026043D01*
X020957Y026014D01*
X020957Y025986D01*
X020953Y025957D01*
X020945Y025929D01*
X020934Y025902D01*
X020919Y025877D01*
X020901Y025854D01*
X020880Y025834D01*
X020857Y025817D01*
X020831Y025803D01*
X020804Y025793D01*
X020776Y025786D01*
X020747Y025783D01*
X020718Y025784D01*
X020690Y025789D01*
X020662Y025797D01*
X020636Y025810D01*
X020611Y025825D01*
X020589Y025844D01*
X020570Y025866D01*
X020553Y025889D01*
X020540Y025915D01*
X020531Y025943D01*
X020525Y025971D01*
X020523Y026000D01*
X020523Y027000D02*
X020525Y027029D01*
X020531Y027057D01*
X020540Y027085D01*
X020553Y027111D01*
X020570Y027134D01*
X020589Y027156D01*
X020611Y027175D01*
X020636Y027190D01*
X020662Y027203D01*
X020690Y027211D01*
X020718Y027216D01*
X020747Y027217D01*
X020776Y027214D01*
X020804Y027207D01*
X020831Y027197D01*
X020857Y027183D01*
X020880Y027166D01*
X020901Y027146D01*
X020919Y027123D01*
X020934Y027098D01*
X020945Y027071D01*
X020953Y027043D01*
X020957Y027014D01*
X020957Y026986D01*
X020953Y026957D01*
X020945Y026929D01*
X020934Y026902D01*
X020919Y026877D01*
X020901Y026854D01*
X020880Y026834D01*
X020857Y026817D01*
X020831Y026803D01*
X020804Y026793D01*
X020776Y026786D01*
X020747Y026783D01*
X020718Y026784D01*
X020690Y026789D01*
X020662Y026797D01*
X020636Y026810D01*
X020611Y026825D01*
X020589Y026844D01*
X020570Y026866D01*
X020553Y026889D01*
X020540Y026915D01*
X020531Y026943D01*
X020525Y026971D01*
X020523Y027000D01*
X022500Y027100D02*
X022502Y027150D01*
X022508Y027200D01*
X022518Y027249D01*
X022531Y027298D01*
X022549Y027345D01*
X022570Y027391D01*
X022594Y027434D01*
X022622Y027476D01*
X022653Y027516D01*
X022687Y027553D01*
X022724Y027587D01*
X022764Y027618D01*
X022806Y027646D01*
X022849Y027670D01*
X022895Y027691D01*
X022942Y027709D01*
X022991Y027722D01*
X023040Y027732D01*
X023090Y027738D01*
X023140Y027740D01*
X023190Y027738D01*
X023240Y027732D01*
X023289Y027722D01*
X023338Y027709D01*
X023385Y027691D01*
X023431Y027670D01*
X023474Y027646D01*
X023516Y027618D01*
X023556Y027587D01*
X023593Y027553D01*
X023627Y027516D01*
X023658Y027476D01*
X023686Y027434D01*
X023710Y027391D01*
X023731Y027345D01*
X023749Y027298D01*
X023762Y027249D01*
X023772Y027200D01*
X023778Y027150D01*
X023780Y027100D01*
X023778Y027050D01*
X023772Y027000D01*
X023762Y026951D01*
X023749Y026902D01*
X023731Y026855D01*
X023710Y026809D01*
X023686Y026766D01*
X023658Y026724D01*
X023627Y026684D01*
X023593Y026647D01*
X023556Y026613D01*
X023516Y026582D01*
X023474Y026554D01*
X023431Y026530D01*
X023385Y026509D01*
X023338Y026491D01*
X023289Y026478D01*
X023240Y026468D01*
X023190Y026462D01*
X023140Y026460D01*
X023090Y026462D01*
X023040Y026468D01*
X022991Y026478D01*
X022942Y026491D01*
X022895Y026509D01*
X022849Y026530D01*
X022806Y026554D01*
X022764Y026582D01*
X022724Y026613D01*
X022687Y026647D01*
X022653Y026684D01*
X022622Y026724D01*
X022594Y026766D01*
X022570Y026809D01*
X022549Y026855D01*
X022531Y026902D01*
X022518Y026951D01*
X022508Y027000D01*
X022502Y027050D01*
X022500Y027100D01*
X022500Y023100D02*
X022502Y023150D01*
X022508Y023200D01*
X022518Y023249D01*
X022531Y023298D01*
X022549Y023345D01*
X022570Y023391D01*
X022594Y023434D01*
X022622Y023476D01*
X022653Y023516D01*
X022687Y023553D01*
X022724Y023587D01*
X022764Y023618D01*
X022806Y023646D01*
X022849Y023670D01*
X022895Y023691D01*
X022942Y023709D01*
X022991Y023722D01*
X023040Y023732D01*
X023090Y023738D01*
X023140Y023740D01*
X023190Y023738D01*
X023240Y023732D01*
X023289Y023722D01*
X023338Y023709D01*
X023385Y023691D01*
X023431Y023670D01*
X023474Y023646D01*
X023516Y023618D01*
X023556Y023587D01*
X023593Y023553D01*
X023627Y023516D01*
X023658Y023476D01*
X023686Y023434D01*
X023710Y023391D01*
X023731Y023345D01*
X023749Y023298D01*
X023762Y023249D01*
X023772Y023200D01*
X023778Y023150D01*
X023780Y023100D01*
X023778Y023050D01*
X023772Y023000D01*
X023762Y022951D01*
X023749Y022902D01*
X023731Y022855D01*
X023710Y022809D01*
X023686Y022766D01*
X023658Y022724D01*
X023627Y022684D01*
X023593Y022647D01*
X023556Y022613D01*
X023516Y022582D01*
X023474Y022554D01*
X023431Y022530D01*
X023385Y022509D01*
X023338Y022491D01*
X023289Y022478D01*
X023240Y022468D01*
X023190Y022462D01*
X023140Y022460D01*
X023090Y022462D01*
X023040Y022468D01*
X022991Y022478D01*
X022942Y022491D01*
X022895Y022509D01*
X022849Y022530D01*
X022806Y022554D01*
X022764Y022582D01*
X022724Y022613D01*
X022687Y022647D01*
X022653Y022684D01*
X022622Y022724D01*
X022594Y022766D01*
X022570Y022809D01*
X022549Y022855D01*
X022531Y022902D01*
X022518Y022951D01*
X022508Y023000D01*
X022502Y023050D01*
X022500Y023100D01*
X021710Y036700D02*
X021712Y036750D01*
X021718Y036800D01*
X021728Y036849D01*
X021742Y036897D01*
X021759Y036944D01*
X021780Y036989D01*
X021805Y037033D01*
X021833Y037074D01*
X021865Y037113D01*
X021899Y037150D01*
X021936Y037184D01*
X021976Y037214D01*
X022018Y037241D01*
X022062Y037265D01*
X022108Y037286D01*
X022155Y037302D01*
X022203Y037315D01*
X022253Y037324D01*
X022302Y037329D01*
X022353Y037330D01*
X022403Y037327D01*
X022452Y037320D01*
X022501Y037309D01*
X022549Y037294D01*
X022595Y037276D01*
X022640Y037254D01*
X022683Y037228D01*
X022724Y037199D01*
X022763Y037167D01*
X022799Y037132D01*
X022831Y037094D01*
X022861Y037054D01*
X022888Y037011D01*
X022911Y036967D01*
X022930Y036921D01*
X022946Y036873D01*
X022958Y036824D01*
X022966Y036775D01*
X022970Y036725D01*
X022970Y036675D01*
X022966Y036625D01*
X022958Y036576D01*
X022946Y036527D01*
X022930Y036479D01*
X022911Y036433D01*
X022888Y036389D01*
X022861Y036346D01*
X022831Y036306D01*
X022799Y036268D01*
X022763Y036233D01*
X022724Y036201D01*
X022683Y036172D01*
X022640Y036146D01*
X022595Y036124D01*
X022549Y036106D01*
X022501Y036091D01*
X022452Y036080D01*
X022403Y036073D01*
X022353Y036070D01*
X022302Y036071D01*
X022253Y036076D01*
X022203Y036085D01*
X022155Y036098D01*
X022108Y036114D01*
X022062Y036135D01*
X022018Y036159D01*
X021976Y036186D01*
X021936Y036216D01*
X021899Y036250D01*
X021865Y036287D01*
X021833Y036326D01*
X021805Y036367D01*
X021780Y036411D01*
X021759Y036456D01*
X021742Y036503D01*
X021728Y036551D01*
X021718Y036600D01*
X021712Y036650D01*
X021710Y036700D01*
X018510Y036700D02*
X018512Y036750D01*
X018518Y036800D01*
X018528Y036849D01*
X018542Y036897D01*
X018559Y036944D01*
X018580Y036989D01*
X018605Y037033D01*
X018633Y037074D01*
X018665Y037113D01*
X018699Y037150D01*
X018736Y037184D01*
X018776Y037214D01*
X018818Y037241D01*
X018862Y037265D01*
X018908Y037286D01*
X018955Y037302D01*
X019003Y037315D01*
X019053Y037324D01*
X019102Y037329D01*
X019153Y037330D01*
X019203Y037327D01*
X019252Y037320D01*
X019301Y037309D01*
X019349Y037294D01*
X019395Y037276D01*
X019440Y037254D01*
X019483Y037228D01*
X019524Y037199D01*
X019563Y037167D01*
X019599Y037132D01*
X019631Y037094D01*
X019661Y037054D01*
X019688Y037011D01*
X019711Y036967D01*
X019730Y036921D01*
X019746Y036873D01*
X019758Y036824D01*
X019766Y036775D01*
X019770Y036725D01*
X019770Y036675D01*
X019766Y036625D01*
X019758Y036576D01*
X019746Y036527D01*
X019730Y036479D01*
X019711Y036433D01*
X019688Y036389D01*
X019661Y036346D01*
X019631Y036306D01*
X019599Y036268D01*
X019563Y036233D01*
X019524Y036201D01*
X019483Y036172D01*
X019440Y036146D01*
X019395Y036124D01*
X019349Y036106D01*
X019301Y036091D01*
X019252Y036080D01*
X019203Y036073D01*
X019153Y036070D01*
X019102Y036071D01*
X019053Y036076D01*
X019003Y036085D01*
X018955Y036098D01*
X018908Y036114D01*
X018862Y036135D01*
X018818Y036159D01*
X018776Y036186D01*
X018736Y036216D01*
X018699Y036250D01*
X018665Y036287D01*
X018633Y036326D01*
X018605Y036367D01*
X018580Y036411D01*
X018559Y036456D01*
X018542Y036503D01*
X018528Y036551D01*
X018518Y036600D01*
X018512Y036650D01*
X018510Y036700D01*
X002700Y027100D02*
X002702Y027150D01*
X002708Y027200D01*
X002718Y027249D01*
X002731Y027298D01*
X002749Y027345D01*
X002770Y027391D01*
X002794Y027434D01*
X002822Y027476D01*
X002853Y027516D01*
X002887Y027553D01*
X002924Y027587D01*
X002964Y027618D01*
X003006Y027646D01*
X003049Y027670D01*
X003095Y027691D01*
X003142Y027709D01*
X003191Y027722D01*
X003240Y027732D01*
X003290Y027738D01*
X003340Y027740D01*
X003390Y027738D01*
X003440Y027732D01*
X003489Y027722D01*
X003538Y027709D01*
X003585Y027691D01*
X003631Y027670D01*
X003674Y027646D01*
X003716Y027618D01*
X003756Y027587D01*
X003793Y027553D01*
X003827Y027516D01*
X003858Y027476D01*
X003886Y027434D01*
X003910Y027391D01*
X003931Y027345D01*
X003949Y027298D01*
X003962Y027249D01*
X003972Y027200D01*
X003978Y027150D01*
X003980Y027100D01*
X003978Y027050D01*
X003972Y027000D01*
X003962Y026951D01*
X003949Y026902D01*
X003931Y026855D01*
X003910Y026809D01*
X003886Y026766D01*
X003858Y026724D01*
X003827Y026684D01*
X003793Y026647D01*
X003756Y026613D01*
X003716Y026582D01*
X003674Y026554D01*
X003631Y026530D01*
X003585Y026509D01*
X003538Y026491D01*
X003489Y026478D01*
X003440Y026468D01*
X003390Y026462D01*
X003340Y026460D01*
X003290Y026462D01*
X003240Y026468D01*
X003191Y026478D01*
X003142Y026491D01*
X003095Y026509D01*
X003049Y026530D01*
X003006Y026554D01*
X002964Y026582D01*
X002924Y026613D01*
X002887Y026647D01*
X002853Y026684D01*
X002822Y026724D01*
X002794Y026766D01*
X002770Y026809D01*
X002749Y026855D01*
X002731Y026902D01*
X002718Y026951D01*
X002708Y027000D01*
X002702Y027050D01*
X002700Y027100D01*
X002700Y023100D02*
X002702Y023150D01*
X002708Y023200D01*
X002718Y023249D01*
X002731Y023298D01*
X002749Y023345D01*
X002770Y023391D01*
X002794Y023434D01*
X002822Y023476D01*
X002853Y023516D01*
X002887Y023553D01*
X002924Y023587D01*
X002964Y023618D01*
X003006Y023646D01*
X003049Y023670D01*
X003095Y023691D01*
X003142Y023709D01*
X003191Y023722D01*
X003240Y023732D01*
X003290Y023738D01*
X003340Y023740D01*
X003390Y023738D01*
X003440Y023732D01*
X003489Y023722D01*
X003538Y023709D01*
X003585Y023691D01*
X003631Y023670D01*
X003674Y023646D01*
X003716Y023618D01*
X003756Y023587D01*
X003793Y023553D01*
X003827Y023516D01*
X003858Y023476D01*
X003886Y023434D01*
X003910Y023391D01*
X003931Y023345D01*
X003949Y023298D01*
X003962Y023249D01*
X003972Y023200D01*
X003978Y023150D01*
X003980Y023100D01*
X003978Y023050D01*
X003972Y023000D01*
X003962Y022951D01*
X003949Y022902D01*
X003931Y022855D01*
X003910Y022809D01*
X003886Y022766D01*
X003858Y022724D01*
X003827Y022684D01*
X003793Y022647D01*
X003756Y022613D01*
X003716Y022582D01*
X003674Y022554D01*
X003631Y022530D01*
X003585Y022509D01*
X003538Y022491D01*
X003489Y022478D01*
X003440Y022468D01*
X003390Y022462D01*
X003340Y022460D01*
X003290Y022462D01*
X003240Y022468D01*
X003191Y022478D01*
X003142Y022491D01*
X003095Y022509D01*
X003049Y022530D01*
X003006Y022554D01*
X002964Y022582D01*
X002924Y022613D01*
X002887Y022647D01*
X002853Y022684D01*
X002822Y022724D01*
X002794Y022766D01*
X002770Y022809D01*
X002749Y022855D01*
X002731Y022902D01*
X002718Y022951D01*
X002708Y023000D01*
X002702Y023050D01*
X002700Y023100D01*
X001910Y036700D02*
X001912Y036750D01*
X001918Y036800D01*
X001928Y036849D01*
X001942Y036897D01*
X001959Y036944D01*
X001980Y036989D01*
X002005Y037033D01*
X002033Y037074D01*
X002065Y037113D01*
X002099Y037150D01*
X002136Y037184D01*
X002176Y037214D01*
X002218Y037241D01*
X002262Y037265D01*
X002308Y037286D01*
X002355Y037302D01*
X002403Y037315D01*
X002453Y037324D01*
X002502Y037329D01*
X002553Y037330D01*
X002603Y037327D01*
X002652Y037320D01*
X002701Y037309D01*
X002749Y037294D01*
X002795Y037276D01*
X002840Y037254D01*
X002883Y037228D01*
X002924Y037199D01*
X002963Y037167D01*
X002999Y037132D01*
X003031Y037094D01*
X003061Y037054D01*
X003088Y037011D01*
X003111Y036967D01*
X003130Y036921D01*
X003146Y036873D01*
X003158Y036824D01*
X003166Y036775D01*
X003170Y036725D01*
X003170Y036675D01*
X003166Y036625D01*
X003158Y036576D01*
X003146Y036527D01*
X003130Y036479D01*
X003111Y036433D01*
X003088Y036389D01*
X003061Y036346D01*
X003031Y036306D01*
X002999Y036268D01*
X002963Y036233D01*
X002924Y036201D01*
X002883Y036172D01*
X002840Y036146D01*
X002795Y036124D01*
X002749Y036106D01*
X002701Y036091D01*
X002652Y036080D01*
X002603Y036073D01*
X002553Y036070D01*
X002502Y036071D01*
X002453Y036076D01*
X002403Y036085D01*
X002355Y036098D01*
X002308Y036114D01*
X002262Y036135D01*
X002218Y036159D01*
X002176Y036186D01*
X002136Y036216D01*
X002099Y036250D01*
X002065Y036287D01*
X002033Y036326D01*
X002005Y036367D01*
X001980Y036411D01*
X001959Y036456D01*
X001942Y036503D01*
X001928Y036551D01*
X001918Y036600D01*
X001912Y036650D01*
X001910Y036700D01*
X038310Y036700D02*
X038312Y036750D01*
X038318Y036800D01*
X038328Y036849D01*
X038342Y036897D01*
X038359Y036944D01*
X038380Y036989D01*
X038405Y037033D01*
X038433Y037074D01*
X038465Y037113D01*
X038499Y037150D01*
X038536Y037184D01*
X038576Y037214D01*
X038618Y037241D01*
X038662Y037265D01*
X038708Y037286D01*
X038755Y037302D01*
X038803Y037315D01*
X038853Y037324D01*
X038902Y037329D01*
X038953Y037330D01*
X039003Y037327D01*
X039052Y037320D01*
X039101Y037309D01*
X039149Y037294D01*
X039195Y037276D01*
X039240Y037254D01*
X039283Y037228D01*
X039324Y037199D01*
X039363Y037167D01*
X039399Y037132D01*
X039431Y037094D01*
X039461Y037054D01*
X039488Y037011D01*
X039511Y036967D01*
X039530Y036921D01*
X039546Y036873D01*
X039558Y036824D01*
X039566Y036775D01*
X039570Y036725D01*
X039570Y036675D01*
X039566Y036625D01*
X039558Y036576D01*
X039546Y036527D01*
X039530Y036479D01*
X039511Y036433D01*
X039488Y036389D01*
X039461Y036346D01*
X039431Y036306D01*
X039399Y036268D01*
X039363Y036233D01*
X039324Y036201D01*
X039283Y036172D01*
X039240Y036146D01*
X039195Y036124D01*
X039149Y036106D01*
X039101Y036091D01*
X039052Y036080D01*
X039003Y036073D01*
X038953Y036070D01*
X038902Y036071D01*
X038853Y036076D01*
X038803Y036085D01*
X038755Y036098D01*
X038708Y036114D01*
X038662Y036135D01*
X038618Y036159D01*
X038576Y036186D01*
X038536Y036216D01*
X038499Y036250D01*
X038465Y036287D01*
X038433Y036326D01*
X038405Y036367D01*
X038380Y036411D01*
X038359Y036456D01*
X038342Y036503D01*
X038328Y036551D01*
X038318Y036600D01*
X038312Y036650D01*
X038310Y036700D01*
X038310Y003000D02*
X038312Y003050D01*
X038318Y003100D01*
X038328Y003149D01*
X038342Y003197D01*
X038359Y003244D01*
X038380Y003289D01*
X038405Y003333D01*
X038433Y003374D01*
X038465Y003413D01*
X038499Y003450D01*
X038536Y003484D01*
X038576Y003514D01*
X038618Y003541D01*
X038662Y003565D01*
X038708Y003586D01*
X038755Y003602D01*
X038803Y003615D01*
X038853Y003624D01*
X038902Y003629D01*
X038953Y003630D01*
X039003Y003627D01*
X039052Y003620D01*
X039101Y003609D01*
X039149Y003594D01*
X039195Y003576D01*
X039240Y003554D01*
X039283Y003528D01*
X039324Y003499D01*
X039363Y003467D01*
X039399Y003432D01*
X039431Y003394D01*
X039461Y003354D01*
X039488Y003311D01*
X039511Y003267D01*
X039530Y003221D01*
X039546Y003173D01*
X039558Y003124D01*
X039566Y003075D01*
X039570Y003025D01*
X039570Y002975D01*
X039566Y002925D01*
X039558Y002876D01*
X039546Y002827D01*
X039530Y002779D01*
X039511Y002733D01*
X039488Y002689D01*
X039461Y002646D01*
X039431Y002606D01*
X039399Y002568D01*
X039363Y002533D01*
X039324Y002501D01*
X039283Y002472D01*
X039240Y002446D01*
X039195Y002424D01*
X039149Y002406D01*
X039101Y002391D01*
X039052Y002380D01*
X039003Y002373D01*
X038953Y002370D01*
X038902Y002371D01*
X038853Y002376D01*
X038803Y002385D01*
X038755Y002398D01*
X038708Y002414D01*
X038662Y002435D01*
X038618Y002459D01*
X038576Y002486D01*
X038536Y002516D01*
X038499Y002550D01*
X038465Y002587D01*
X038433Y002626D01*
X038405Y002667D01*
X038380Y002711D01*
X038359Y002756D01*
X038342Y002803D01*
X038328Y002851D01*
X038318Y002900D01*
X038312Y002950D01*
X038310Y003000D01*
D11*
X036530Y002300D02*
X036250Y002300D01*
X034530Y002300D02*
X034250Y002300D01*
X034390Y002440D02*
X034390Y002160D01*
X031900Y007390D02*
X031480Y007390D01*
X031480Y007600D01*
X031550Y007670D01*
X031830Y007670D01*
X031900Y007600D01*
X031900Y007390D01*
X031830Y007850D02*
X031900Y007920D01*
X031900Y008061D01*
X031830Y008131D01*
X031760Y008131D01*
X031480Y007850D01*
X031480Y008131D01*
X031176Y008047D02*
X030704Y008047D01*
X030940Y007653D01*
X031176Y008047D01*
X031050Y008780D02*
X031050Y009060D01*
X031050Y008920D02*
X030630Y008920D01*
X030700Y009240D02*
X030630Y009310D01*
X030630Y009450D01*
X030700Y009520D01*
X030840Y009520D01*
X030910Y009450D01*
X030910Y009380D01*
X030840Y009240D01*
X031050Y009240D01*
X031050Y009520D01*
X031000Y010309D02*
X030580Y010309D01*
X030720Y010309D02*
X030720Y010519D01*
X030790Y010589D01*
X030930Y010589D01*
X031000Y010519D01*
X031000Y010309D01*
X030720Y010449D02*
X030580Y010589D01*
X030580Y010769D02*
X030580Y011049D01*
X030580Y010909D02*
X031000Y010909D01*
X030860Y010769D01*
X030790Y011230D02*
X030790Y011510D01*
X030580Y011440D02*
X031000Y011440D01*
X030790Y011230D01*
X028850Y012680D02*
X028850Y012960D01*
X028850Y012820D02*
X028430Y012820D01*
X028500Y013140D02*
X028430Y013210D01*
X028430Y013350D01*
X028500Y013420D01*
X028570Y013420D01*
X028640Y013350D01*
X028640Y013140D01*
X028500Y013140D01*
X028640Y013140D02*
X028780Y013280D01*
X028850Y013420D01*
X028650Y014040D02*
X028650Y014460D01*
X028440Y014460D01*
X028370Y014390D01*
X028370Y014250D01*
X028440Y014180D01*
X028650Y014180D01*
X028510Y014180D02*
X028370Y014040D01*
X028190Y014040D02*
X027909Y014040D01*
X028049Y014040D02*
X028049Y014460D01*
X028190Y014320D01*
X027729Y014250D02*
X027729Y014460D01*
X027449Y014460D01*
X027519Y014320D02*
X027449Y014250D01*
X027449Y014110D01*
X027519Y014040D01*
X027659Y014040D01*
X027729Y014110D01*
X027729Y014250D02*
X027589Y014320D01*
X027519Y014320D01*
X028430Y015020D02*
X028850Y015020D01*
X028850Y014880D02*
X028850Y015160D01*
X028850Y015340D02*
X028850Y015620D01*
X028780Y015620D01*
X028500Y015340D01*
X028430Y015340D01*
X030704Y014547D02*
X031176Y014547D01*
X030940Y014153D01*
X030704Y014547D01*
X031480Y014561D02*
X031480Y014420D01*
X031550Y014350D01*
X031550Y014170D02*
X031830Y014170D01*
X031900Y014100D01*
X031900Y013890D01*
X031480Y013890D01*
X031480Y014100D01*
X031550Y014170D01*
X031830Y014350D02*
X031900Y014420D01*
X031900Y014561D01*
X031830Y014631D01*
X031760Y014631D01*
X031690Y014561D01*
X031620Y014631D01*
X031550Y014631D01*
X031480Y014561D01*
X031690Y014561D02*
X031690Y014491D01*
X028600Y011340D02*
X028530Y011410D01*
X028460Y011410D01*
X028390Y011340D01*
X028320Y011410D01*
X028250Y011410D01*
X028180Y011340D01*
X028180Y011200D01*
X028250Y011130D01*
X028180Y010949D02*
X028180Y010669D01*
X028180Y010809D02*
X028600Y010809D01*
X028460Y010669D01*
X028390Y010489D02*
X028320Y010419D01*
X028320Y010209D01*
X028320Y010349D02*
X028180Y010489D01*
X028390Y010489D02*
X028530Y010489D01*
X028600Y010419D01*
X028600Y010209D01*
X028180Y010209D01*
X028530Y011130D02*
X028600Y011200D01*
X028600Y011340D01*
X028390Y011340D02*
X028390Y011270D01*
X027200Y011709D02*
X027200Y011919D01*
X027130Y011989D01*
X026990Y011989D01*
X026920Y011919D01*
X026920Y011709D01*
X026920Y011849D02*
X026780Y011989D01*
X026780Y012169D02*
X026780Y012449D01*
X026780Y012309D02*
X027200Y012309D01*
X027060Y012169D01*
X027130Y012630D02*
X027200Y012700D01*
X027200Y012840D01*
X027130Y012910D01*
X027060Y012910D01*
X026780Y012630D01*
X026780Y012910D01*
X026780Y011709D02*
X027200Y011709D01*
X028480Y007910D02*
X028480Y007630D01*
X028480Y007770D02*
X028900Y007770D01*
X028760Y007630D01*
X028480Y007449D02*
X028480Y007169D01*
X028480Y007309D02*
X028900Y007309D01*
X028760Y007169D01*
X028830Y006989D02*
X028690Y006989D01*
X028620Y006919D01*
X028620Y006709D01*
X028620Y006849D02*
X028480Y006989D01*
X028480Y006709D02*
X028900Y006709D01*
X028900Y006919D01*
X028830Y006989D01*
X021590Y017960D02*
X021590Y018240D01*
X021730Y018100D02*
X021450Y018100D01*
X022780Y018789D02*
X022780Y018929D01*
X022850Y018999D01*
X022780Y019180D02*
X022780Y019460D01*
X022780Y019320D02*
X023200Y019320D01*
X023060Y019180D01*
X023130Y018999D02*
X023200Y018929D01*
X023200Y018789D01*
X023130Y018719D01*
X022850Y018719D01*
X022780Y018789D01*
X021730Y020100D02*
X021450Y020100D01*
X019930Y021000D02*
X019650Y021000D01*
X019790Y019140D02*
X019790Y018860D01*
X019930Y019000D02*
X019650Y019000D01*
X024446Y018853D02*
X025234Y018853D01*
X024840Y019394D01*
X024446Y018853D01*
X025530Y018929D02*
X025600Y018999D01*
X025880Y018999D01*
X025950Y018929D01*
X025950Y018719D01*
X025530Y018719D01*
X025530Y018929D01*
X025530Y019180D02*
X025530Y019460D01*
X025530Y019320D02*
X025950Y019320D01*
X025810Y019180D01*
X028180Y021669D02*
X028600Y021669D01*
X028600Y021879D01*
X028530Y021949D01*
X028390Y021949D01*
X028320Y021879D01*
X028320Y021669D01*
X028320Y021809D02*
X028180Y021949D01*
X028250Y022130D02*
X028180Y022200D01*
X028180Y022340D01*
X028250Y022410D01*
X028530Y022410D01*
X028600Y022340D01*
X028600Y022200D01*
X028530Y022130D01*
X028460Y022130D01*
X028390Y022200D01*
X028390Y022410D01*
X028980Y022340D02*
X028980Y022200D01*
X029050Y022130D01*
X029120Y022130D01*
X029190Y022200D01*
X029190Y022340D01*
X029120Y022410D01*
X029050Y022410D01*
X028980Y022340D01*
X029190Y022340D02*
X029260Y022410D01*
X029330Y022410D01*
X029400Y022340D01*
X029400Y022200D01*
X029330Y022130D01*
X029260Y022130D01*
X029190Y022200D01*
X029190Y021949D02*
X029120Y021879D01*
X029120Y021669D01*
X028980Y021669D02*
X029400Y021669D01*
X029400Y021879D01*
X029330Y021949D01*
X029190Y021949D01*
X029120Y021809D02*
X028980Y021949D01*
X031480Y024090D02*
X031900Y024090D01*
X031900Y024300D01*
X031830Y024370D01*
X031690Y024370D01*
X031620Y024300D01*
X031620Y024090D01*
X031620Y024230D02*
X031480Y024370D01*
X031480Y024550D02*
X031760Y024831D01*
X031830Y024831D01*
X031900Y024761D01*
X031900Y024620D01*
X031830Y024550D01*
X031480Y024550D02*
X031480Y024831D01*
X031480Y025011D02*
X031480Y025291D01*
X031480Y025151D02*
X031900Y025151D01*
X031760Y025011D01*
X032280Y025081D02*
X032350Y025011D01*
X032630Y025291D01*
X032350Y025291D01*
X032280Y025221D01*
X032280Y025081D01*
X032350Y025011D02*
X032630Y025011D01*
X032700Y025081D01*
X032700Y025221D01*
X032630Y025291D01*
X032630Y024831D02*
X032700Y024761D01*
X032700Y024620D01*
X032630Y024550D01*
X032630Y024370D02*
X032490Y024370D01*
X032420Y024300D01*
X032420Y024090D01*
X032280Y024090D02*
X032700Y024090D01*
X032700Y024300D01*
X032630Y024370D01*
X032420Y024230D02*
X032280Y024370D01*
X032280Y024550D02*
X032560Y024831D01*
X032630Y024831D01*
X032280Y024831D02*
X032280Y024550D01*
X030400Y027190D02*
X029980Y027190D01*
X030120Y027190D02*
X030120Y027400D01*
X030190Y027470D01*
X030330Y027470D01*
X030400Y027400D01*
X030400Y027190D01*
X030120Y027330D02*
X029980Y027470D01*
X029980Y027650D02*
X030050Y027650D01*
X030330Y027931D01*
X030400Y027931D01*
X030400Y027650D01*
X029600Y027400D02*
X029600Y027190D01*
X029180Y027190D01*
X029320Y027190D02*
X029320Y027400D01*
X029390Y027470D01*
X029530Y027470D01*
X029600Y027400D01*
X029320Y027330D02*
X029180Y027470D01*
X029250Y027650D02*
X029180Y027720D01*
X029180Y027861D01*
X029250Y027931D01*
X029320Y027931D01*
X029390Y027861D01*
X029390Y027650D01*
X029250Y027650D01*
X029390Y027650D02*
X029530Y027791D01*
X029600Y027931D01*
X030319Y029240D02*
X030319Y029660D01*
X030529Y029450D01*
X030249Y029450D01*
X030709Y029520D02*
X030709Y029590D01*
X030779Y029660D01*
X030920Y029660D01*
X030990Y029590D01*
X031170Y029590D02*
X031240Y029660D01*
X031450Y029660D01*
X031450Y029240D01*
X031450Y029380D02*
X031240Y029380D01*
X031170Y029450D01*
X031170Y029590D01*
X031310Y029380D02*
X031170Y029240D01*
X030990Y029240D02*
X030709Y029520D01*
X030709Y029240D02*
X030990Y029240D01*
X030990Y030040D02*
X030709Y030320D01*
X030709Y030390D01*
X030779Y030460D01*
X030920Y030460D01*
X030990Y030390D01*
X031170Y030390D02*
X031240Y030460D01*
X031450Y030460D01*
X031450Y030040D01*
X031450Y030180D02*
X031240Y030180D01*
X031170Y030250D01*
X031170Y030390D01*
X031310Y030180D02*
X031170Y030040D01*
X030990Y030040D02*
X030709Y030040D01*
X030529Y030110D02*
X030459Y030040D01*
X030319Y030040D01*
X030249Y030110D01*
X030249Y030250D01*
X030319Y030320D01*
X030389Y030320D01*
X030529Y030250D01*
X030529Y030460D01*
X030249Y030460D01*
X031630Y031590D02*
X031910Y031310D01*
X031910Y031240D01*
X032091Y031240D02*
X032371Y031240D01*
X032091Y031520D01*
X032091Y031590D01*
X032161Y031660D01*
X032301Y031660D01*
X032371Y031590D01*
X032551Y031590D02*
X032551Y031450D01*
X032621Y031380D01*
X032831Y031380D01*
X032691Y031380D02*
X032551Y031240D01*
X032831Y031240D02*
X032831Y031660D01*
X032621Y031660D01*
X032551Y031590D01*
X032551Y032040D02*
X032691Y032180D01*
X032621Y032180D02*
X032831Y032180D01*
X032831Y032040D02*
X032831Y032460D01*
X032621Y032460D01*
X032551Y032390D01*
X032551Y032250D01*
X032621Y032180D01*
X032371Y032040D02*
X032091Y032320D01*
X032091Y032390D01*
X032161Y032460D01*
X032301Y032460D01*
X032371Y032390D01*
X032371Y032040D02*
X032091Y032040D01*
X031910Y032110D02*
X031840Y032040D01*
X031700Y032040D01*
X031630Y032110D01*
X031630Y032180D01*
X031700Y032250D01*
X031910Y032250D01*
X031910Y032110D01*
X031910Y032250D02*
X031770Y032390D01*
X031630Y032460D01*
X031071Y032740D02*
X031071Y033160D01*
X030861Y033160D01*
X030791Y033090D01*
X030791Y032950D01*
X030861Y032880D01*
X031071Y032880D01*
X030931Y032880D02*
X030791Y032740D01*
X030610Y032950D02*
X030400Y033160D01*
X030400Y032740D01*
X030330Y032950D02*
X030610Y032950D01*
X031630Y031660D02*
X031630Y031590D01*
X031630Y031660D02*
X031910Y031660D01*
X031909Y034790D02*
X032190Y034790D01*
X031909Y035070D01*
X031909Y035140D01*
X031979Y035210D01*
X032120Y035210D01*
X032190Y035140D01*
X032370Y035210D02*
X032650Y035210D01*
X032510Y035210D02*
X032510Y034790D01*
X030950Y034840D02*
X030950Y035260D01*
X030740Y035260D01*
X030670Y035190D01*
X030670Y035050D01*
X030740Y034980D01*
X030950Y034980D01*
X030810Y034980D02*
X030670Y034840D01*
X030490Y034910D02*
X030420Y034840D01*
X030279Y034840D01*
X030209Y034910D01*
X030209Y034980D01*
X030279Y035050D01*
X030349Y035050D01*
X030279Y035050D02*
X030209Y035120D01*
X030209Y035190D01*
X030279Y035260D01*
X030420Y035260D01*
X030490Y035190D01*
X029450Y035210D02*
X029170Y035210D01*
X029310Y035210D02*
X029310Y034790D01*
X028990Y034790D02*
X028709Y034790D01*
X028849Y034790D02*
X028849Y035210D01*
X028990Y035070D01*
X028995Y036990D02*
X028855Y036990D01*
X028785Y037060D01*
X028785Y037340D01*
X028855Y037410D01*
X028995Y037410D01*
X029065Y037340D01*
X029065Y037060D01*
X028995Y036990D01*
X028605Y036990D02*
X028605Y037410D01*
X028395Y037410D01*
X028325Y037340D01*
X028325Y037200D01*
X028395Y037130D01*
X028605Y037130D01*
X028465Y037130D02*
X028325Y036990D01*
X027684Y037270D02*
X027544Y036990D01*
X027404Y037270D01*
X027224Y037340D02*
X027154Y037410D01*
X027014Y037410D01*
X026944Y037340D01*
X027224Y037060D01*
X027154Y036990D01*
X027014Y036990D01*
X026944Y037060D01*
X026944Y037340D01*
X027224Y037340D02*
X027224Y037060D01*
X026763Y037060D02*
X026693Y037060D01*
X026693Y036990D01*
X026763Y036990D01*
X026763Y037060D01*
X026533Y036990D02*
X026253Y036990D01*
X026393Y036990D02*
X026393Y037410D01*
X026533Y037270D01*
X026073Y037060D02*
X026003Y037060D01*
X026003Y036990D01*
X026073Y036990D01*
X026073Y037060D01*
X025843Y036990D02*
X025562Y036990D01*
X025703Y036990D02*
X025703Y037410D01*
X025843Y037270D01*
X029246Y037410D02*
X029526Y037410D01*
X029386Y037410D02*
X029386Y036990D01*
X029706Y036990D02*
X029706Y037270D01*
X029846Y037410D01*
X029986Y037270D01*
X029986Y036990D01*
X030166Y037060D02*
X030236Y036990D01*
X030447Y036990D01*
X030447Y037410D01*
X030236Y037410D01*
X030166Y037340D01*
X030166Y037270D01*
X030236Y037200D01*
X030447Y037200D01*
X030236Y037200D02*
X030166Y037130D01*
X030166Y037060D01*
X029986Y037200D02*
X029706Y037200D01*
X030627Y037060D02*
X030627Y037410D01*
X030907Y037410D02*
X030907Y037060D01*
X030837Y036990D01*
X030697Y036990D01*
X030627Y037060D01*
X031087Y037060D02*
X031157Y036990D01*
X031297Y036990D01*
X031367Y037060D01*
X031367Y037340D01*
X031297Y037410D01*
X031157Y037410D01*
X031087Y037340D01*
X031547Y037410D02*
X031547Y036990D01*
X031828Y037410D01*
X031828Y036990D01*
X031995Y036990D02*
X032135Y036990D01*
X032065Y036990D02*
X032065Y037410D01*
X032135Y037410D02*
X031995Y037410D01*
X032775Y037410D02*
X032915Y037340D01*
X033055Y037200D01*
X032845Y037200D01*
X032775Y037130D01*
X032775Y037060D01*
X032845Y036990D01*
X032985Y036990D01*
X033055Y037060D01*
X033055Y037200D01*
X033236Y037130D02*
X033306Y037200D01*
X033516Y037200D01*
X033516Y037060D01*
X033446Y036990D01*
X033306Y036990D01*
X033236Y037060D01*
X033236Y037130D01*
X033376Y037340D02*
X033516Y037200D01*
X033696Y037270D02*
X033696Y037340D01*
X033766Y037410D01*
X033906Y037410D01*
X033976Y037340D01*
X034156Y037340D02*
X034156Y037270D01*
X034226Y037200D01*
X034367Y037200D01*
X034437Y037270D01*
X034437Y037340D01*
X034367Y037410D01*
X034226Y037410D01*
X034156Y037340D01*
X034226Y037200D02*
X034156Y037130D01*
X034156Y037060D01*
X034226Y036990D01*
X034367Y036990D01*
X034437Y037060D01*
X034437Y037130D01*
X034367Y037200D01*
X034617Y037200D02*
X034687Y037130D01*
X034897Y037130D01*
X034897Y036990D02*
X034897Y037410D01*
X034687Y037410D01*
X034617Y037340D01*
X034617Y037200D01*
X035077Y037130D02*
X035077Y037060D01*
X035147Y036990D01*
X035287Y036990D01*
X035357Y037060D01*
X035287Y037200D02*
X035147Y037200D01*
X035077Y037130D01*
X035077Y037340D02*
X035147Y037410D01*
X035287Y037410D01*
X035357Y037340D01*
X035357Y037270D01*
X035287Y037200D01*
X035538Y036990D02*
X035818Y036990D01*
X035818Y037410D01*
X035538Y037410D01*
X035678Y037200D02*
X035818Y037200D01*
X033976Y036990D02*
X033696Y037270D01*
X033696Y036990D02*
X033976Y036990D01*
X033376Y037340D02*
X033236Y037410D01*
X028551Y032460D02*
X028621Y032390D01*
X028621Y032110D01*
X028551Y032040D01*
X028411Y032040D01*
X028341Y032110D01*
X028160Y032250D02*
X027950Y032460D01*
X027950Y032040D01*
X027880Y032250D02*
X028160Y032250D01*
X028341Y032390D02*
X028411Y032460D01*
X028551Y032460D01*
X027100Y032300D02*
X027100Y032090D01*
X026680Y032090D01*
X026820Y032090D02*
X026820Y032300D01*
X026890Y032370D01*
X027030Y032370D01*
X027100Y032300D01*
X027030Y032550D02*
X027100Y032620D01*
X027100Y032761D01*
X027030Y032831D01*
X026960Y032831D01*
X026680Y032550D01*
X026680Y032831D01*
X026300Y032691D02*
X025880Y032691D01*
X025880Y032831D02*
X025880Y032550D01*
X025880Y032370D02*
X026020Y032230D01*
X026020Y032300D02*
X026020Y032090D01*
X025880Y032090D02*
X026300Y032090D01*
X026300Y032300D01*
X026230Y032370D01*
X026090Y032370D01*
X026020Y032300D01*
X026160Y032550D02*
X026300Y032691D01*
X026230Y033011D02*
X026300Y033081D01*
X026300Y033221D01*
X026230Y033291D01*
X025950Y033011D01*
X025880Y033081D01*
X025880Y033221D01*
X025950Y033291D01*
X026230Y033291D01*
X026230Y033011D02*
X025950Y033011D01*
X025500Y033011D02*
X025500Y033291D01*
X025430Y033291D01*
X025150Y033011D01*
X025080Y033011D01*
X025080Y032831D02*
X025080Y032550D01*
X025080Y032691D02*
X025500Y032691D01*
X025360Y032550D01*
X025290Y032370D02*
X025220Y032300D01*
X025220Y032090D01*
X025080Y032090D02*
X025500Y032090D01*
X025500Y032300D01*
X025430Y032370D01*
X025290Y032370D01*
X025220Y032230D02*
X025080Y032370D01*
X026680Y032370D02*
X026820Y032230D01*
X022100Y033390D02*
X022100Y033600D01*
X022030Y033670D01*
X021890Y033670D01*
X021820Y033600D01*
X021820Y033390D01*
X021680Y033390D02*
X022100Y033390D01*
X021820Y033530D02*
X021680Y033670D01*
X021680Y033850D02*
X021960Y034131D01*
X022030Y034131D01*
X022100Y034061D01*
X022100Y033920D01*
X022030Y033850D01*
X021680Y033850D02*
X021680Y034131D01*
X021750Y034311D02*
X021680Y034381D01*
X021680Y034521D01*
X021750Y034591D01*
X021820Y034591D01*
X021890Y034521D01*
X021890Y034451D01*
X021890Y034521D02*
X021960Y034591D01*
X022030Y034591D01*
X022100Y034521D01*
X022100Y034381D01*
X022030Y034311D01*
X016018Y036990D02*
X015738Y036990D01*
X015557Y037060D02*
X015487Y036990D01*
X015347Y036990D01*
X015277Y037060D01*
X015277Y037130D01*
X015347Y037200D01*
X015487Y037200D01*
X015557Y037270D01*
X015557Y037340D01*
X015487Y037410D01*
X015347Y037410D01*
X015277Y037340D01*
X015097Y037410D02*
X014887Y037410D01*
X014817Y037340D01*
X014817Y037200D01*
X014887Y037130D01*
X015097Y037130D01*
X015097Y036990D02*
X015097Y037410D01*
X014637Y037340D02*
X014637Y037270D01*
X014567Y037200D01*
X014426Y037200D01*
X014356Y037130D01*
X014356Y037060D01*
X014426Y036990D01*
X014567Y036990D01*
X014637Y037060D01*
X014637Y037130D01*
X014567Y037200D01*
X014426Y037200D02*
X014356Y037270D01*
X014356Y037340D01*
X014426Y037410D01*
X014567Y037410D01*
X014637Y037340D01*
X014176Y037340D02*
X014106Y037410D01*
X013966Y037410D01*
X013896Y037340D01*
X013896Y037270D01*
X014176Y036990D01*
X013896Y036990D01*
X013716Y037060D02*
X013646Y036990D01*
X013506Y036990D01*
X013436Y037060D01*
X013436Y037130D01*
X013506Y037200D01*
X013716Y037200D01*
X013716Y037060D01*
X013716Y037200D02*
X013576Y037340D01*
X013436Y037410D01*
X013255Y037200D02*
X013045Y037200D01*
X012975Y037130D01*
X012975Y037060D01*
X013045Y036990D01*
X013185Y036990D01*
X013255Y037060D01*
X013255Y037200D01*
X013115Y037340D01*
X012975Y037410D01*
X012335Y037410D02*
X012195Y037410D01*
X012265Y037410D02*
X012265Y036990D01*
X012335Y036990D02*
X012195Y036990D01*
X012028Y036990D02*
X012028Y037410D01*
X011747Y036990D01*
X011747Y037410D01*
X011567Y037340D02*
X011567Y037060D01*
X011497Y036990D01*
X011357Y036990D01*
X011287Y037060D01*
X011107Y037060D02*
X011037Y036990D01*
X010897Y036990D01*
X010827Y037060D01*
X010827Y037410D01*
X010647Y037410D02*
X010436Y037410D01*
X010366Y037340D01*
X010366Y037270D01*
X010436Y037200D01*
X010647Y037200D01*
X010647Y036990D02*
X010436Y036990D01*
X010366Y037060D01*
X010366Y037130D01*
X010436Y037200D01*
X010186Y037200D02*
X009906Y037200D01*
X009906Y037270D02*
X009906Y036990D01*
X010186Y036990D02*
X010186Y037270D01*
X010046Y037410D01*
X009906Y037270D01*
X009726Y037410D02*
X009446Y037410D01*
X009586Y037410D02*
X009586Y036990D01*
X009265Y037060D02*
X009265Y037340D01*
X009195Y037410D01*
X009055Y037410D01*
X008985Y037340D01*
X008985Y037060D01*
X009055Y036990D01*
X009195Y036990D01*
X009265Y037060D01*
X008805Y036990D02*
X008805Y037410D01*
X008595Y037410D01*
X008525Y037340D01*
X008525Y037200D01*
X008595Y037130D01*
X008805Y037130D01*
X008665Y037130D02*
X008525Y036990D01*
X007884Y037270D02*
X007744Y036990D01*
X007604Y037270D01*
X007424Y037340D02*
X007354Y037410D01*
X007214Y037410D01*
X007144Y037340D01*
X007424Y037060D01*
X007354Y036990D01*
X007214Y036990D01*
X007144Y037060D01*
X007144Y037340D01*
X007424Y037340D02*
X007424Y037060D01*
X006963Y037060D02*
X006893Y037060D01*
X006893Y036990D01*
X006963Y036990D01*
X006963Y037060D01*
X006733Y036990D02*
X006453Y036990D01*
X006593Y036990D02*
X006593Y037410D01*
X006733Y037270D01*
X006273Y037060D02*
X006203Y037060D01*
X006203Y036990D01*
X006273Y036990D01*
X006273Y037060D01*
X006043Y036990D02*
X005762Y036990D01*
X005903Y036990D02*
X005903Y037410D01*
X006043Y037270D01*
X009049Y035210D02*
X009049Y034790D01*
X008909Y034790D02*
X009190Y034790D01*
X009190Y035070D02*
X009049Y035210D01*
X009370Y035210D02*
X009650Y035210D01*
X009510Y035210D02*
X009510Y034790D01*
X010409Y034910D02*
X010479Y034840D01*
X010620Y034840D01*
X010690Y034910D01*
X010870Y034840D02*
X011010Y034980D01*
X010940Y034980D02*
X011150Y034980D01*
X011150Y034840D02*
X011150Y035260D01*
X010940Y035260D01*
X010870Y035190D01*
X010870Y035050D01*
X010940Y034980D01*
X010690Y035190D02*
X010620Y035260D01*
X010479Y035260D01*
X010409Y035190D01*
X010409Y035120D01*
X010479Y035050D01*
X010409Y034980D01*
X010409Y034910D01*
X010479Y035050D02*
X010549Y035050D01*
X012109Y035070D02*
X012109Y035140D01*
X012179Y035210D01*
X012320Y035210D01*
X012390Y035140D01*
X012570Y035210D02*
X012850Y035210D01*
X012710Y035210D02*
X012710Y034790D01*
X012390Y034790D02*
X012109Y035070D01*
X012109Y034790D02*
X012390Y034790D01*
X011271Y033160D02*
X011061Y033160D01*
X010991Y033090D01*
X010991Y032950D01*
X011061Y032880D01*
X011271Y032880D01*
X011271Y032740D02*
X011271Y033160D01*
X011131Y032880D02*
X010991Y032740D01*
X010810Y032950D02*
X010600Y033160D01*
X010600Y032740D01*
X010530Y032950D02*
X010810Y032950D01*
X011830Y032460D02*
X011970Y032390D01*
X012110Y032250D01*
X011900Y032250D01*
X011830Y032180D01*
X011830Y032110D01*
X011900Y032040D01*
X012040Y032040D01*
X012110Y032110D01*
X012110Y032250D01*
X012291Y032320D02*
X012291Y032390D01*
X012361Y032460D01*
X012501Y032460D01*
X012571Y032390D01*
X012751Y032390D02*
X012751Y032250D01*
X012821Y032180D01*
X013031Y032180D01*
X012891Y032180D02*
X012751Y032040D01*
X012571Y032040D02*
X012291Y032320D01*
X012291Y032040D02*
X012571Y032040D01*
X012501Y031660D02*
X012571Y031590D01*
X012501Y031660D02*
X012361Y031660D01*
X012291Y031590D01*
X012291Y031520D01*
X012571Y031240D01*
X012291Y031240D01*
X012110Y031240D02*
X012110Y031310D01*
X011830Y031590D01*
X011830Y031660D01*
X012110Y031660D01*
X012751Y031590D02*
X012751Y031450D01*
X012821Y031380D01*
X013031Y031380D01*
X012891Y031380D02*
X012751Y031240D01*
X013031Y031240D02*
X013031Y031660D01*
X012821Y031660D01*
X012751Y031590D01*
X013031Y032040D02*
X013031Y032460D01*
X012821Y032460D01*
X012751Y032390D01*
X011650Y030460D02*
X011440Y030460D01*
X011370Y030390D01*
X011370Y030250D01*
X011440Y030180D01*
X011650Y030180D01*
X011650Y030040D02*
X011650Y030460D01*
X011510Y030180D02*
X011370Y030040D01*
X011190Y030040D02*
X010909Y030320D01*
X010909Y030390D01*
X010979Y030460D01*
X011120Y030460D01*
X011190Y030390D01*
X011190Y030040D02*
X010909Y030040D01*
X010729Y030110D02*
X010659Y030040D01*
X010519Y030040D01*
X010449Y030110D01*
X010449Y030250D01*
X010519Y030320D01*
X010589Y030320D01*
X010729Y030250D01*
X010729Y030460D01*
X010449Y030460D01*
X010519Y029660D02*
X010729Y029450D01*
X010449Y029450D01*
X010519Y029240D02*
X010519Y029660D01*
X010909Y029590D02*
X010979Y029660D01*
X011120Y029660D01*
X011190Y029590D01*
X011370Y029590D02*
X011440Y029660D01*
X011650Y029660D01*
X011650Y029240D01*
X011650Y029380D02*
X011440Y029380D01*
X011370Y029450D01*
X011370Y029590D01*
X011510Y029380D02*
X011370Y029240D01*
X011190Y029240D02*
X010909Y029520D01*
X010909Y029590D01*
X010909Y029240D02*
X011190Y029240D01*
X010600Y027931D02*
X010530Y027931D01*
X010250Y027650D01*
X010180Y027650D01*
X010180Y027470D02*
X010320Y027330D01*
X010320Y027400D02*
X010320Y027190D01*
X010180Y027190D02*
X010600Y027190D01*
X010600Y027400D01*
X010530Y027470D01*
X010390Y027470D01*
X010320Y027400D01*
X010600Y027650D02*
X010600Y027931D01*
X009800Y027931D02*
X009730Y027791D01*
X009590Y027650D01*
X009590Y027861D01*
X009520Y027931D01*
X009450Y027931D01*
X009380Y027861D01*
X009380Y027720D01*
X009450Y027650D01*
X009590Y027650D01*
X009590Y027470D02*
X009520Y027400D01*
X009520Y027190D01*
X009380Y027190D02*
X009800Y027190D01*
X009800Y027400D01*
X009730Y027470D01*
X009590Y027470D01*
X009520Y027330D02*
X009380Y027470D01*
X008180Y025120D02*
X008110Y025120D01*
X008040Y025050D01*
X007970Y025120D01*
X007900Y025120D01*
X007830Y025050D01*
X007830Y024910D01*
X007900Y024840D01*
X008040Y024980D02*
X008040Y025050D01*
X008180Y025120D02*
X008250Y025050D01*
X008250Y024910D01*
X008180Y024840D01*
X008250Y024660D02*
X008250Y024380D01*
X008250Y024520D02*
X007830Y024520D01*
X008450Y022410D02*
X008730Y022410D01*
X008800Y022340D01*
X008800Y022200D01*
X008730Y022130D01*
X008660Y022130D01*
X008590Y022200D01*
X008590Y022410D01*
X008450Y022410D02*
X008380Y022340D01*
X008380Y022200D01*
X008450Y022130D01*
X008380Y021949D02*
X008520Y021809D01*
X008520Y021879D02*
X008520Y021669D01*
X008380Y021669D02*
X008800Y021669D01*
X008800Y021879D01*
X008730Y021949D01*
X008590Y021949D01*
X008520Y021879D01*
X009180Y021949D02*
X009320Y021809D01*
X009320Y021879D02*
X009320Y021669D01*
X009180Y021669D02*
X009600Y021669D01*
X009600Y021879D01*
X009530Y021949D01*
X009390Y021949D01*
X009320Y021879D01*
X009320Y022130D02*
X009250Y022130D01*
X009180Y022200D01*
X009180Y022340D01*
X009250Y022410D01*
X009320Y022410D01*
X009390Y022340D01*
X009390Y022200D01*
X009460Y022130D01*
X009530Y022130D01*
X009600Y022200D01*
X009600Y022340D01*
X009530Y022410D01*
X009460Y022410D01*
X009390Y022340D01*
X009390Y022200D02*
X009320Y022130D01*
X011680Y024090D02*
X012100Y024090D01*
X012100Y024300D01*
X012030Y024370D01*
X011890Y024370D01*
X011820Y024300D01*
X011820Y024090D01*
X011820Y024230D02*
X011680Y024370D01*
X011680Y024550D02*
X011960Y024831D01*
X012030Y024831D01*
X012100Y024761D01*
X012100Y024620D01*
X012030Y024550D01*
X011680Y024550D02*
X011680Y024831D01*
X011680Y025011D02*
X011680Y025291D01*
X011680Y025151D02*
X012100Y025151D01*
X011960Y025011D01*
X012480Y025081D02*
X012550Y025011D01*
X012830Y025291D01*
X012550Y025291D01*
X012480Y025221D01*
X012480Y025081D01*
X012550Y025011D02*
X012830Y025011D01*
X012900Y025081D01*
X012900Y025221D01*
X012830Y025291D01*
X012830Y024831D02*
X012900Y024761D01*
X012900Y024620D01*
X012830Y024550D01*
X012830Y024370D02*
X012690Y024370D01*
X012620Y024300D01*
X012620Y024090D01*
X012480Y024090D02*
X012900Y024090D01*
X012900Y024300D01*
X012830Y024370D01*
X012620Y024230D02*
X012480Y024370D01*
X012480Y024550D02*
X012760Y024831D01*
X012830Y024831D01*
X012480Y024831D02*
X012480Y024550D01*
X013490Y021010D02*
X013420Y020940D01*
X013420Y020870D01*
X013490Y020800D01*
X013630Y020800D01*
X013700Y020870D01*
X013700Y020940D01*
X013630Y021010D01*
X013490Y021010D01*
X013490Y020800D02*
X013420Y020730D01*
X013420Y020660D01*
X013490Y020590D01*
X013630Y020590D01*
X013700Y020660D01*
X013700Y020730D01*
X013630Y020800D01*
X013880Y021010D02*
X014160Y021010D01*
X014020Y021010D02*
X014020Y020590D01*
X009050Y015620D02*
X008980Y015620D01*
X008700Y015340D01*
X008630Y015340D01*
X008630Y015020D02*
X009050Y015020D01*
X009050Y014880D02*
X009050Y015160D01*
X009050Y015340D02*
X009050Y015620D01*
X008850Y014460D02*
X008640Y014460D01*
X008570Y014390D01*
X008570Y014250D01*
X008640Y014180D01*
X008850Y014180D01*
X008850Y014040D02*
X008850Y014460D01*
X008710Y014180D02*
X008570Y014040D01*
X008390Y014040D02*
X008109Y014040D01*
X008249Y014040D02*
X008249Y014460D01*
X008390Y014320D01*
X007929Y014250D02*
X007929Y014460D01*
X007649Y014460D01*
X007719Y014320D02*
X007649Y014250D01*
X007649Y014110D01*
X007719Y014040D01*
X007859Y014040D01*
X007929Y014110D01*
X007929Y014250D02*
X007789Y014320D01*
X007719Y014320D01*
X008630Y013350D02*
X008700Y013420D01*
X008770Y013420D01*
X008840Y013350D01*
X008840Y013140D01*
X008700Y013140D01*
X008630Y013210D01*
X008630Y013350D01*
X008840Y013140D02*
X008980Y013280D01*
X009050Y013420D01*
X009050Y012960D02*
X009050Y012680D01*
X009050Y012820D02*
X008630Y012820D01*
X007400Y012840D02*
X007400Y012700D01*
X007330Y012630D01*
X007400Y012840D02*
X007330Y012910D01*
X007260Y012910D01*
X006980Y012630D01*
X006980Y012910D01*
X006980Y012449D02*
X006980Y012169D01*
X006980Y012309D02*
X007400Y012309D01*
X007260Y012169D01*
X007190Y011989D02*
X007120Y011919D01*
X007120Y011709D01*
X007120Y011849D02*
X006980Y011989D01*
X007190Y011989D02*
X007330Y011989D01*
X007400Y011919D01*
X007400Y011709D01*
X006980Y011709D01*
X008380Y011340D02*
X008380Y011200D01*
X008450Y011130D01*
X008380Y010949D02*
X008380Y010669D01*
X008380Y010809D02*
X008800Y010809D01*
X008660Y010669D01*
X008590Y010489D02*
X008520Y010419D01*
X008520Y010209D01*
X008520Y010349D02*
X008380Y010489D01*
X008590Y010489D02*
X008730Y010489D01*
X008800Y010419D01*
X008800Y010209D01*
X008380Y010209D01*
X008730Y011130D02*
X008800Y011200D01*
X008800Y011340D01*
X008730Y011410D01*
X008660Y011410D01*
X008590Y011340D01*
X008520Y011410D01*
X008450Y011410D01*
X008380Y011340D01*
X008590Y011340D02*
X008590Y011270D01*
X010780Y011440D02*
X011200Y011440D01*
X010990Y011230D01*
X010990Y011510D01*
X010780Y011049D02*
X010780Y010769D01*
X010780Y010909D02*
X011200Y010909D01*
X011060Y010769D01*
X010990Y010589D02*
X010920Y010519D01*
X010920Y010309D01*
X010920Y010449D02*
X010780Y010589D01*
X010990Y010589D02*
X011130Y010589D01*
X011200Y010519D01*
X011200Y010309D01*
X010780Y010309D01*
X010900Y009520D02*
X010830Y009450D01*
X010830Y009310D01*
X010900Y009240D01*
X011040Y009240D02*
X011110Y009380D01*
X011110Y009450D01*
X011040Y009520D01*
X010900Y009520D01*
X011040Y009240D02*
X011250Y009240D01*
X011250Y009520D01*
X011250Y009060D02*
X011250Y008780D01*
X011250Y008920D02*
X010830Y008920D01*
X010904Y008047D02*
X011376Y008047D01*
X011140Y007653D01*
X010904Y008047D01*
X011680Y008131D02*
X011680Y007850D01*
X011960Y008131D01*
X012030Y008131D01*
X012100Y008061D01*
X012100Y007920D01*
X012030Y007850D01*
X012030Y007670D02*
X012100Y007600D01*
X012100Y007390D01*
X011680Y007390D01*
X011680Y007600D01*
X011750Y007670D01*
X012030Y007670D01*
X009100Y007770D02*
X008680Y007770D01*
X008680Y007630D02*
X008680Y007910D01*
X008960Y007630D02*
X009100Y007770D01*
X009100Y007309D02*
X008680Y007309D01*
X008680Y007169D02*
X008680Y007449D01*
X008960Y007169D02*
X009100Y007309D01*
X009030Y006989D02*
X008890Y006989D01*
X008820Y006919D01*
X008820Y006709D01*
X008820Y006849D02*
X008680Y006989D01*
X008680Y006709D02*
X009100Y006709D01*
X009100Y006919D01*
X009030Y006989D01*
X014450Y002300D02*
X014730Y002300D01*
X014590Y002440D02*
X014590Y002160D01*
X016450Y002300D02*
X016730Y002300D01*
X012100Y013890D02*
X011680Y013890D01*
X011680Y014100D01*
X011750Y014170D01*
X012030Y014170D01*
X012100Y014100D01*
X012100Y013890D01*
X012030Y014350D02*
X012100Y014420D01*
X012100Y014561D01*
X012030Y014631D01*
X011960Y014631D01*
X011890Y014561D01*
X011820Y014631D01*
X011750Y014631D01*
X011680Y014561D01*
X011680Y014420D01*
X011750Y014350D01*
X011890Y014491D02*
X011890Y014561D01*
X011376Y014547D02*
X010904Y014547D01*
X011140Y014153D01*
X011376Y014547D01*
X006150Y018719D02*
X006150Y018929D01*
X006080Y018999D01*
X005800Y018999D01*
X005730Y018929D01*
X005730Y018719D01*
X006150Y018719D01*
X006010Y019180D02*
X006150Y019320D01*
X005730Y019320D01*
X005730Y019180D02*
X005730Y019460D01*
X005434Y018853D02*
X004646Y018853D01*
X005040Y019394D01*
X005434Y018853D01*
X003400Y018789D02*
X003330Y018719D01*
X003050Y018719D01*
X002980Y018789D01*
X002980Y018929D01*
X003050Y018999D01*
X002980Y019180D02*
X002980Y019460D01*
X002980Y019320D02*
X003400Y019320D01*
X003260Y019180D01*
X003330Y018999D02*
X003400Y018929D01*
X003400Y018789D01*
X001930Y018100D02*
X001650Y018100D01*
X001790Y018240D02*
X001790Y017960D01*
X001930Y020100D02*
X001650Y020100D01*
X002319Y024140D02*
X002249Y024210D01*
X002249Y024490D01*
X002319Y024560D01*
X002459Y024560D01*
X002529Y024490D01*
X002529Y024420D01*
X002459Y024350D01*
X002249Y024350D01*
X002319Y024140D02*
X002459Y024140D01*
X002529Y024210D01*
X002709Y024140D02*
X002990Y024140D01*
X002849Y024140D02*
X002849Y024560D01*
X002990Y024420D01*
X003170Y024350D02*
X003240Y024280D01*
X003450Y024280D01*
X003450Y024140D02*
X003450Y024560D01*
X003240Y024560D01*
X003170Y024490D01*
X003170Y024350D01*
X003310Y024280D02*
X003170Y024140D01*
X003170Y024940D02*
X003310Y025080D01*
X003240Y025080D02*
X003450Y025080D01*
X003450Y024940D02*
X003450Y025360D01*
X003240Y025360D01*
X003170Y025290D01*
X003170Y025150D01*
X003240Y025080D01*
X002990Y024940D02*
X002709Y024940D01*
X002849Y024940D02*
X002849Y025360D01*
X002990Y025220D01*
X002529Y025220D02*
X002529Y025290D01*
X002459Y025360D01*
X002319Y025360D01*
X002249Y025290D01*
X002249Y025220D01*
X002319Y025150D01*
X002459Y025150D01*
X002529Y025220D01*
X002459Y025150D02*
X002529Y025080D01*
X002529Y025010D01*
X002459Y024940D01*
X002319Y024940D01*
X002249Y025010D01*
X002249Y025080D01*
X002319Y025150D01*
X002829Y025740D02*
X002759Y025810D01*
X002759Y025880D01*
X002829Y025950D01*
X002759Y026020D01*
X002759Y026090D01*
X002829Y026160D01*
X002970Y026160D01*
X003040Y026090D01*
X003220Y026090D02*
X003290Y026160D01*
X003430Y026160D01*
X003500Y026090D01*
X003500Y025810D01*
X003430Y025740D01*
X003290Y025740D01*
X003220Y025810D01*
X003040Y025810D02*
X002970Y025740D01*
X002829Y025740D01*
X002829Y025950D02*
X002899Y025950D01*
X005280Y032090D02*
X005700Y032090D01*
X005700Y032300D01*
X005630Y032370D01*
X005490Y032370D01*
X005420Y032300D01*
X005420Y032090D01*
X005420Y032230D02*
X005280Y032370D01*
X005280Y032550D02*
X005280Y032831D01*
X005280Y032691D02*
X005700Y032691D01*
X005560Y032550D01*
X005700Y033011D02*
X005700Y033291D01*
X005630Y033291D01*
X005350Y033011D01*
X005280Y033011D01*
X006080Y033081D02*
X006150Y033011D01*
X006430Y033291D01*
X006150Y033291D01*
X006080Y033221D01*
X006080Y033081D01*
X006150Y033011D02*
X006430Y033011D01*
X006500Y033081D01*
X006500Y033221D01*
X006430Y033291D01*
X006080Y032831D02*
X006080Y032550D01*
X006080Y032691D02*
X006500Y032691D01*
X006360Y032550D01*
X006290Y032370D02*
X006220Y032300D01*
X006220Y032090D01*
X006080Y032090D02*
X006500Y032090D01*
X006500Y032300D01*
X006430Y032370D01*
X006290Y032370D01*
X006220Y032230D02*
X006080Y032370D01*
X006880Y032370D02*
X007020Y032230D01*
X007020Y032300D02*
X007020Y032090D01*
X006880Y032090D02*
X007300Y032090D01*
X007300Y032300D01*
X007230Y032370D01*
X007090Y032370D01*
X007020Y032300D01*
X006880Y032550D02*
X007160Y032831D01*
X007230Y032831D01*
X007300Y032761D01*
X007300Y032620D01*
X007230Y032550D01*
X006880Y032550D02*
X006880Y032831D01*
X008080Y032250D02*
X008360Y032250D01*
X008150Y032460D01*
X008150Y032040D01*
X008541Y032110D02*
X008611Y032040D01*
X008751Y032040D01*
X008821Y032110D01*
X008821Y032390D01*
X008751Y032460D01*
X008611Y032460D01*
X008541Y032390D01*
X010647Y036990D02*
X010647Y037410D01*
X011107Y037410D02*
X011107Y037060D01*
X011287Y037340D02*
X011357Y037410D01*
X011497Y037410D01*
X011567Y037340D01*
X015738Y037410D02*
X016018Y037410D01*
X016018Y036990D01*
X016018Y037200D02*
X015878Y037200D01*
X022629Y026160D02*
X022559Y026090D01*
X022559Y026020D01*
X022629Y025950D01*
X022559Y025880D01*
X022559Y025810D01*
X022629Y025740D01*
X022770Y025740D01*
X022840Y025810D01*
X023020Y025810D02*
X023090Y025740D01*
X023230Y025740D01*
X023300Y025810D01*
X023300Y026090D01*
X023230Y026160D01*
X023090Y026160D01*
X023020Y026090D01*
X022840Y026090D02*
X022770Y026160D01*
X022629Y026160D01*
X022629Y025950D02*
X022699Y025950D01*
X022649Y025360D02*
X022649Y024940D01*
X022509Y024940D02*
X022790Y024940D01*
X022970Y024940D02*
X023110Y025080D01*
X023040Y025080D02*
X023250Y025080D01*
X023250Y024940D02*
X023250Y025360D01*
X023040Y025360D01*
X022970Y025290D01*
X022970Y025150D01*
X023040Y025080D01*
X022790Y025220D02*
X022649Y025360D01*
X022329Y025290D02*
X022329Y025220D01*
X022259Y025150D01*
X022119Y025150D01*
X022049Y025080D01*
X022049Y025010D01*
X022119Y024940D01*
X022259Y024940D01*
X022329Y025010D01*
X022329Y025080D01*
X022259Y025150D01*
X022119Y025150D02*
X022049Y025220D01*
X022049Y025290D01*
X022119Y025360D01*
X022259Y025360D01*
X022329Y025290D01*
X022259Y024560D02*
X022119Y024560D01*
X022049Y024490D01*
X022049Y024210D01*
X022119Y024140D01*
X022259Y024140D01*
X022329Y024210D01*
X022259Y024350D02*
X022049Y024350D01*
X022259Y024350D02*
X022329Y024420D01*
X022329Y024490D01*
X022259Y024560D01*
X022649Y024560D02*
X022649Y024140D01*
X022509Y024140D02*
X022790Y024140D01*
X022970Y024140D02*
X023110Y024280D01*
X023040Y024280D02*
X023250Y024280D01*
X023250Y024140D02*
X023250Y024560D01*
X023040Y024560D01*
X022970Y024490D01*
X022970Y024350D01*
X023040Y024280D01*
X022790Y024420D02*
X022649Y024560D01*
X027630Y024520D02*
X028050Y024520D01*
X028050Y024380D02*
X028050Y024660D01*
X027980Y024840D02*
X028050Y024910D01*
X028050Y025050D01*
X027980Y025120D01*
X027910Y025120D01*
X027840Y025050D01*
X027770Y025120D01*
X027700Y025120D01*
X027630Y025050D01*
X027630Y024910D01*
X027700Y024840D01*
X027840Y024980D02*
X027840Y025050D01*
X033220Y020940D02*
X033220Y020870D01*
X033290Y020800D01*
X033430Y020800D01*
X033500Y020870D01*
X033500Y020940D01*
X033430Y021010D01*
X033290Y021010D01*
X033220Y020940D01*
X033290Y020800D02*
X033220Y020730D01*
X033220Y020660D01*
X033290Y020590D01*
X033430Y020590D01*
X033500Y020660D01*
X033500Y020730D01*
X033430Y020800D01*
X033680Y021010D02*
X033960Y021010D01*
X033820Y021010D02*
X033820Y020590D01*
X039450Y021000D02*
X039730Y021000D01*
X039590Y019140D02*
X039590Y018860D01*
X039730Y019000D02*
X039450Y019000D01*
X039590Y023760D02*
X039590Y024040D01*
X039730Y023900D02*
X039450Y023900D01*
X039450Y025900D02*
X039730Y025900D01*
X002300Y033390D02*
X002300Y033600D01*
X002230Y033670D01*
X002090Y033670D01*
X002020Y033600D01*
X002020Y033390D01*
X001880Y033390D02*
X002300Y033390D01*
X002020Y033530D02*
X001880Y033670D01*
X001880Y033850D02*
X002160Y034131D01*
X002230Y034131D01*
X002300Y034061D01*
X002300Y033920D01*
X002230Y033850D01*
X001880Y033850D02*
X001880Y034131D01*
X001950Y034311D02*
X001880Y034381D01*
X001880Y034521D01*
X001950Y034591D01*
X002020Y034591D01*
X002090Y034521D01*
X002090Y034451D01*
X002090Y034521D02*
X002160Y034591D01*
X002230Y034591D01*
X002300Y034521D01*
X002300Y034381D01*
X002230Y034311D01*
D12*
X006822Y035633D02*
X006822Y036342D01*
X007247Y036342D01*
X007389Y036200D01*
X007389Y035917D01*
X007247Y035775D01*
X006822Y035775D01*
X006822Y035633D02*
X006963Y035491D01*
X007105Y035491D01*
X007731Y036342D02*
X007873Y036342D01*
X008156Y036059D01*
X008156Y036342D02*
X008156Y035775D01*
X008510Y035917D02*
X008510Y036200D01*
X008652Y036342D01*
X008935Y036342D01*
X009077Y036200D01*
X009077Y035917D01*
X008935Y035775D01*
X008652Y035775D01*
X008510Y035917D01*
X009396Y035917D02*
X009396Y035775D01*
X009537Y035775D01*
X009537Y035917D01*
X009396Y035917D01*
X009891Y035775D02*
X009891Y036200D01*
X010033Y036342D01*
X010458Y036342D01*
X010458Y035775D01*
X010812Y036059D02*
X010812Y036200D01*
X010953Y036342D01*
X011237Y036342D01*
X011379Y036200D01*
X011379Y035917D01*
X011237Y035775D01*
X010953Y035775D01*
X010812Y036059D02*
X011379Y036059D01*
X011732Y036200D02*
X011732Y035917D01*
X011874Y035775D01*
X012300Y035775D01*
X012300Y035491D02*
X012300Y036342D01*
X011874Y036342D01*
X011732Y036200D01*
X012653Y036200D02*
X012653Y035917D01*
X012795Y035775D01*
X013079Y035775D01*
X013220Y035917D01*
X013220Y036200D01*
X013079Y036342D01*
X012795Y036342D01*
X012653Y036200D01*
X013574Y036342D02*
X013574Y035491D01*
X013574Y035775D02*
X013999Y035775D01*
X014141Y035917D01*
X014141Y036200D01*
X013999Y036342D01*
X013574Y036342D01*
X014495Y036200D02*
X014495Y035775D01*
X014778Y035775D02*
X014778Y036200D01*
X014637Y036342D01*
X014495Y036200D01*
X014778Y036200D02*
X014920Y036342D01*
X015062Y036342D01*
X015062Y035775D01*
X026622Y035775D02*
X027047Y035775D01*
X027189Y035917D01*
X027189Y036200D01*
X027047Y036342D01*
X026622Y036342D01*
X026622Y035633D01*
X026763Y035491D01*
X026905Y035491D01*
X027531Y036342D02*
X027673Y036342D01*
X027956Y036059D01*
X027956Y036342D02*
X027956Y035775D01*
X028310Y035917D02*
X028310Y036200D01*
X028452Y036342D01*
X028735Y036342D01*
X028877Y036200D01*
X028877Y035917D01*
X028735Y035775D01*
X028452Y035775D01*
X028310Y035917D01*
X029196Y035917D02*
X029196Y035775D01*
X029337Y035775D01*
X029337Y035917D01*
X029196Y035917D01*
X029691Y035775D02*
X029691Y036200D01*
X029833Y036342D01*
X030258Y036342D01*
X030258Y035775D01*
X030612Y036059D02*
X030612Y036200D01*
X030753Y036342D01*
X031037Y036342D01*
X031179Y036200D01*
X031179Y035917D01*
X031037Y035775D01*
X030753Y035775D01*
X030612Y036059D02*
X031179Y036059D01*
X031532Y036200D02*
X031532Y035917D01*
X031674Y035775D01*
X032100Y035775D01*
X032100Y035491D02*
X032100Y036342D01*
X031674Y036342D01*
X031532Y036200D01*
X032453Y036200D02*
X032453Y035917D01*
X032595Y035775D01*
X032879Y035775D01*
X033020Y035917D01*
X033020Y036200D01*
X032879Y036342D01*
X032595Y036342D01*
X032453Y036200D01*
X033374Y036342D02*
X033374Y035491D01*
X033374Y035775D02*
X033799Y035775D01*
X033941Y035917D01*
X033941Y036200D01*
X033799Y036342D01*
X033374Y036342D01*
X034295Y036200D02*
X034295Y035775D01*
X034578Y035775D02*
X034578Y036200D01*
X034437Y036342D01*
X034295Y036200D01*
X034578Y036200D02*
X034720Y036342D01*
X034862Y036342D01*
X034862Y035775D01*
D13*
X025008Y012868D02*
X025053Y012423D01*
X025154Y012394D01*
X025250Y012354D01*
X025342Y012303D01*
X025688Y012586D01*
X025926Y012348D01*
X025643Y012002D01*
X025694Y011910D01*
X025734Y011814D01*
X025763Y011713D01*
X026208Y011668D01*
X026208Y011332D01*
X025763Y011287D01*
X025734Y011186D01*
X025694Y011090D01*
X025643Y010998D01*
X025926Y010652D01*
X025688Y010414D01*
X025342Y010697D01*
X025274Y010658D01*
X025203Y010625D01*
X025005Y011102D01*
X025069Y011135D01*
X025127Y011179D01*
X025177Y011232D01*
X025217Y011292D01*
X025246Y011358D01*
X025265Y011428D01*
X025271Y011500D01*
X025263Y011580D01*
X025241Y011658D01*
X025204Y011730D01*
X025155Y011794D01*
X025094Y011848D01*
X025025Y011889D01*
X024949Y011917D01*
X024869Y011930D01*
X024789Y011928D01*
X024710Y011910D01*
X024635Y011879D01*
X024568Y011834D01*
X024511Y011777D01*
X024465Y011711D01*
X024432Y011637D01*
X024413Y011559D01*
X024410Y011478D01*
X024422Y011398D01*
X024448Y011322D01*
X024488Y011252D01*
X024541Y011190D01*
X024604Y011140D01*
X024675Y011102D01*
X024477Y010625D01*
X024406Y010658D01*
X024338Y010697D01*
X023992Y010414D01*
X023754Y010652D01*
X024037Y010998D01*
X023986Y011090D01*
X023946Y011186D01*
X023917Y011287D01*
X023472Y011332D01*
X023472Y011668D01*
X023917Y011713D01*
X023946Y011814D01*
X023986Y011910D01*
X024037Y012002D01*
X023754Y012348D01*
X023992Y012586D01*
X024338Y012303D01*
X024430Y012354D01*
X024526Y012394D01*
X024627Y012423D01*
X024672Y012868D01*
X025008Y012868D01*
X025010Y012851D02*
X024670Y012851D01*
X024665Y012793D02*
X025015Y012793D01*
X025021Y012736D02*
X024659Y012736D01*
X024653Y012678D02*
X025027Y012678D01*
X025033Y012620D02*
X024647Y012620D01*
X024641Y012563D02*
X025039Y012563D01*
X025045Y012505D02*
X024635Y012505D01*
X024629Y012448D02*
X025051Y012448D01*
X025163Y012390D02*
X024517Y012390D01*
X024391Y012333D02*
X025289Y012333D01*
X025378Y012333D02*
X025913Y012333D01*
X025884Y012390D02*
X025448Y012390D01*
X025519Y012448D02*
X025826Y012448D01*
X025769Y012505D02*
X025590Y012505D01*
X025660Y012563D02*
X025711Y012563D01*
X025866Y012275D02*
X023814Y012275D01*
X023861Y012218D02*
X025819Y012218D01*
X025772Y012160D02*
X023908Y012160D01*
X023955Y012102D02*
X025725Y012102D01*
X025678Y012045D02*
X024002Y012045D01*
X024028Y011987D02*
X025652Y011987D01*
X025683Y011930D02*
X023997Y011930D01*
X023970Y011872D02*
X024625Y011872D01*
X024549Y011815D02*
X023946Y011815D01*
X023930Y011757D02*
X024497Y011757D01*
X024460Y011700D02*
X023783Y011700D01*
X023472Y011642D02*
X024434Y011642D01*
X024419Y011584D02*
X023472Y011584D01*
X023472Y011527D02*
X024412Y011527D01*
X024411Y011469D02*
X023472Y011469D01*
X023472Y011412D02*
X024420Y011412D01*
X024437Y011354D02*
X023472Y011354D01*
X023821Y011297D02*
X024462Y011297D01*
X024499Y011239D02*
X023931Y011239D01*
X023948Y011182D02*
X024552Y011182D01*
X024634Y011124D02*
X023972Y011124D01*
X023999Y011066D02*
X024660Y011066D01*
X024637Y011009D02*
X024031Y011009D01*
X023999Y010951D02*
X024613Y010951D01*
X024589Y010894D02*
X023952Y010894D01*
X023905Y010836D02*
X024565Y010836D01*
X024541Y010779D02*
X023858Y010779D01*
X023811Y010721D02*
X024517Y010721D01*
X024493Y010664D02*
X024396Y010664D01*
X024297Y010664D02*
X023764Y010664D01*
X023800Y010606D02*
X024227Y010606D01*
X024156Y010548D02*
X023857Y010548D01*
X023915Y010491D02*
X024086Y010491D01*
X024015Y010433D02*
X023973Y010433D01*
X025043Y011009D02*
X025649Y011009D01*
X025681Y011066D02*
X025020Y011066D01*
X025047Y011124D02*
X025708Y011124D01*
X025732Y011182D02*
X025129Y011182D01*
X025182Y011239D02*
X025749Y011239D01*
X025859Y011297D02*
X025219Y011297D01*
X025245Y011354D02*
X026208Y011354D01*
X026208Y011412D02*
X025260Y011412D01*
X025268Y011469D02*
X026208Y011469D01*
X026208Y011527D02*
X025268Y011527D01*
X025262Y011584D02*
X026208Y011584D01*
X026208Y011642D02*
X025245Y011642D01*
X025220Y011700D02*
X025897Y011700D01*
X025750Y011757D02*
X025183Y011757D01*
X025131Y011815D02*
X025734Y011815D01*
X025710Y011872D02*
X025053Y011872D01*
X024302Y012333D02*
X023767Y012333D01*
X023796Y012390D02*
X024232Y012390D01*
X024161Y012448D02*
X023854Y012448D01*
X023911Y012505D02*
X024090Y012505D01*
X024020Y012563D02*
X023969Y012563D01*
X025067Y010951D02*
X025681Y010951D01*
X025728Y010894D02*
X025091Y010894D01*
X025115Y010836D02*
X025775Y010836D01*
X025822Y010779D02*
X025139Y010779D01*
X025163Y010721D02*
X025869Y010721D01*
X025916Y010664D02*
X025383Y010664D01*
X025453Y010606D02*
X025880Y010606D01*
X025823Y010548D02*
X025524Y010548D01*
X025594Y010491D02*
X025765Y010491D01*
X025707Y010433D02*
X025665Y010433D01*
X025284Y010664D02*
X025187Y010664D01*
X006408Y011332D02*
X005963Y011287D01*
X005934Y011186D01*
X005894Y011090D01*
X005843Y010998D01*
X006126Y010652D01*
X005888Y010414D01*
X005542Y010697D01*
X005474Y010658D01*
X005403Y010625D01*
X005205Y011102D01*
X005269Y011135D01*
X005327Y011179D01*
X005377Y011232D01*
X005417Y011292D01*
X005446Y011358D01*
X005465Y011428D01*
X005471Y011500D01*
X005463Y011580D01*
X005441Y011658D01*
X005404Y011730D01*
X005355Y011794D01*
X005294Y011848D01*
X005225Y011889D01*
X005149Y011917D01*
X005069Y011930D01*
X004989Y011928D01*
X004910Y011910D01*
X004835Y011879D01*
X004768Y011834D01*
X004711Y011777D01*
X004665Y011711D01*
X004632Y011637D01*
X004613Y011559D01*
X004610Y011478D01*
X004622Y011398D01*
X004648Y011322D01*
X004688Y011252D01*
X004741Y011190D01*
X004804Y011140D01*
X004875Y011102D01*
X004677Y010625D01*
X004606Y010658D01*
X004538Y010697D01*
X004192Y010414D01*
X003954Y010652D01*
X004237Y010998D01*
X004186Y011090D01*
X004146Y011186D01*
X004117Y011287D01*
X003672Y011332D01*
X003672Y011668D01*
X004117Y011713D01*
X004146Y011814D01*
X004186Y011910D01*
X004237Y012002D01*
X003954Y012348D01*
X004192Y012586D01*
X004538Y012303D01*
X004630Y012354D01*
X004726Y012394D01*
X004827Y012423D01*
X004872Y012868D01*
X005208Y012868D01*
X005253Y012423D01*
X005354Y012394D01*
X005450Y012354D01*
X005542Y012303D01*
X005888Y012586D01*
X006126Y012348D01*
X005843Y012002D01*
X005894Y011910D01*
X005934Y011814D01*
X005963Y011713D01*
X006408Y011668D01*
X006408Y011332D01*
X006408Y011354D02*
X005445Y011354D01*
X005460Y011412D02*
X006408Y011412D01*
X006408Y011469D02*
X005468Y011469D01*
X005468Y011527D02*
X006408Y011527D01*
X006408Y011584D02*
X005462Y011584D01*
X005445Y011642D02*
X006408Y011642D01*
X006097Y011700D02*
X005420Y011700D01*
X005383Y011757D02*
X005950Y011757D01*
X005934Y011815D02*
X005331Y011815D01*
X005253Y011872D02*
X005910Y011872D01*
X005883Y011930D02*
X004197Y011930D01*
X004170Y011872D02*
X004825Y011872D01*
X004749Y011815D02*
X004146Y011815D01*
X004130Y011757D02*
X004697Y011757D01*
X004660Y011700D02*
X003983Y011700D01*
X003672Y011642D02*
X004634Y011642D01*
X004619Y011584D02*
X003672Y011584D01*
X003672Y011527D02*
X004612Y011527D01*
X004611Y011469D02*
X003672Y011469D01*
X003672Y011412D02*
X004620Y011412D01*
X004637Y011354D02*
X003672Y011354D01*
X004021Y011297D02*
X004662Y011297D01*
X004699Y011239D02*
X004131Y011239D01*
X004148Y011182D02*
X004752Y011182D01*
X004834Y011124D02*
X004172Y011124D01*
X004199Y011066D02*
X004860Y011066D01*
X004837Y011009D02*
X004231Y011009D01*
X004199Y010951D02*
X004813Y010951D01*
X004789Y010894D02*
X004152Y010894D01*
X004105Y010836D02*
X004765Y010836D01*
X004741Y010779D02*
X004058Y010779D01*
X004011Y010721D02*
X004717Y010721D01*
X004693Y010664D02*
X004596Y010664D01*
X004497Y010664D02*
X003964Y010664D01*
X004000Y010606D02*
X004427Y010606D01*
X004356Y010548D02*
X004057Y010548D01*
X004115Y010491D02*
X004286Y010491D01*
X004215Y010433D02*
X004173Y010433D01*
X005243Y011009D02*
X005849Y011009D01*
X005881Y011066D02*
X005220Y011066D01*
X005247Y011124D02*
X005908Y011124D01*
X005932Y011182D02*
X005329Y011182D01*
X005382Y011239D02*
X005949Y011239D01*
X006059Y011297D02*
X005419Y011297D01*
X005267Y010951D02*
X005881Y010951D01*
X005928Y010894D02*
X005291Y010894D01*
X005315Y010836D02*
X005975Y010836D01*
X006022Y010779D02*
X005339Y010779D01*
X005363Y010721D02*
X006069Y010721D01*
X006116Y010664D02*
X005583Y010664D01*
X005653Y010606D02*
X006080Y010606D01*
X006023Y010548D02*
X005724Y010548D01*
X005794Y010491D02*
X005965Y010491D01*
X005907Y010433D02*
X005865Y010433D01*
X005484Y010664D02*
X005387Y010664D01*
X005852Y011987D02*
X004228Y011987D01*
X004202Y012045D02*
X005878Y012045D01*
X005925Y012102D02*
X004155Y012102D01*
X004108Y012160D02*
X005972Y012160D01*
X006019Y012218D02*
X004061Y012218D01*
X004014Y012275D02*
X006066Y012275D01*
X006113Y012333D02*
X005578Y012333D01*
X005489Y012333D02*
X004591Y012333D01*
X004502Y012333D02*
X003967Y012333D01*
X003996Y012390D02*
X004432Y012390D01*
X004361Y012448D02*
X004054Y012448D01*
X004111Y012505D02*
X004290Y012505D01*
X004220Y012563D02*
X004169Y012563D01*
X004717Y012390D02*
X005363Y012390D01*
X005251Y012448D02*
X004829Y012448D01*
X004835Y012505D02*
X005245Y012505D01*
X005239Y012563D02*
X004841Y012563D01*
X004847Y012620D02*
X005233Y012620D01*
X005227Y012678D02*
X004853Y012678D01*
X004859Y012736D02*
X005221Y012736D01*
X005215Y012793D02*
X004865Y012793D01*
X004870Y012851D02*
X005210Y012851D01*
X005648Y012390D02*
X006084Y012390D01*
X006026Y012448D02*
X005719Y012448D01*
X005790Y012505D02*
X005969Y012505D01*
X005911Y012563D02*
X005860Y012563D01*
D14*
X011140Y014080D03*
X011140Y007580D03*
X030940Y007580D03*
X030940Y014080D03*
D15*
X025310Y018659D02*
X025310Y019522D01*
X024370Y019532D02*
X024370Y018659D01*
X005510Y018659D02*
X005510Y019522D01*
X004570Y019532D02*
X004570Y018659D01*
D16*
X009684Y015851D02*
X009684Y014749D01*
X010196Y014749D01*
X010196Y015851D01*
X009684Y015851D01*
X009684Y013651D02*
X009684Y012549D01*
X010196Y012549D01*
X010196Y013651D01*
X009684Y013651D01*
X009489Y009256D02*
X009489Y008744D01*
X010591Y008744D01*
X010591Y009256D01*
X009489Y009256D01*
X012489Y021244D02*
X013591Y021244D01*
X013591Y021756D01*
X012489Y021756D01*
X012489Y021244D01*
X009296Y024249D02*
X009296Y025351D01*
X008784Y025351D01*
X008784Y024249D01*
X009296Y024249D01*
X028584Y024249D02*
X028584Y025351D01*
X029096Y025351D01*
X029096Y024249D01*
X028584Y024249D01*
X032289Y021756D02*
X032289Y021244D01*
X033391Y021244D01*
X033391Y021756D01*
X032289Y021756D01*
X029996Y015851D02*
X029484Y015851D01*
X029484Y014749D01*
X029996Y014749D01*
X029996Y015851D01*
X029996Y013651D02*
X029484Y013651D01*
X029484Y012549D01*
X029996Y012549D01*
X029996Y013651D01*
X030391Y009256D02*
X029289Y009256D01*
X029289Y008744D01*
X030391Y008744D01*
X030391Y009256D01*
D17*
X030214Y009404D03*
X029466Y009404D03*
X029840Y008596D03*
X032840Y021096D03*
X032466Y021904D03*
X033214Y021904D03*
X013414Y021904D03*
X012666Y021904D03*
X013040Y021096D03*
X010414Y009404D03*
X009666Y009404D03*
X010040Y008596D03*
D18*
X009536Y012726D03*
X009536Y013474D03*
X010344Y013100D03*
X009536Y014926D03*
X009536Y015674D03*
X010344Y015300D03*
X009444Y024426D03*
X009444Y025174D03*
X008636Y024800D03*
X028436Y024800D03*
X029244Y024426D03*
X029244Y025174D03*
X029336Y015674D03*
X029336Y014926D03*
X030144Y015300D03*
X029336Y013474D03*
X029336Y012726D03*
X030144Y013100D03*
M02*
