G75*
G70*
%OFA0B0*%
%FSLAX24Y24*%
%IPPOS*%
%LPD*%
%AMOC8*
5,1,8,0,0,1.08239X$1,22.5*
%
%ADD10C,0.0000*%
%ADD11R,0.0710X0.0630*%
%ADD12R,0.0787X0.0472*%
%ADD13R,0.0512X0.0591*%
%ADD14R,0.0591X0.0512*%
D10*
X001340Y001800D02*
X001340Y037900D01*
X020340Y037900D01*
X020340Y027600D01*
X021140Y027600D01*
X021140Y037900D01*
X040140Y037900D01*
X040140Y001800D01*
X021140Y001800D01*
X021140Y021400D01*
X020340Y021400D01*
X020340Y001800D01*
X001340Y001800D01*
X018510Y003000D02*
X018512Y003050D01*
X018518Y003100D01*
X018528Y003149D01*
X018542Y003197D01*
X018559Y003244D01*
X018580Y003289D01*
X018605Y003333D01*
X018633Y003374D01*
X018665Y003413D01*
X018699Y003450D01*
X018736Y003484D01*
X018776Y003514D01*
X018818Y003541D01*
X018862Y003565D01*
X018908Y003586D01*
X018955Y003602D01*
X019003Y003615D01*
X019053Y003624D01*
X019102Y003629D01*
X019153Y003630D01*
X019203Y003627D01*
X019252Y003620D01*
X019301Y003609D01*
X019349Y003594D01*
X019395Y003576D01*
X019440Y003554D01*
X019483Y003528D01*
X019524Y003499D01*
X019563Y003467D01*
X019599Y003432D01*
X019631Y003394D01*
X019661Y003354D01*
X019688Y003311D01*
X019711Y003267D01*
X019730Y003221D01*
X019746Y003173D01*
X019758Y003124D01*
X019766Y003075D01*
X019770Y003025D01*
X019770Y002975D01*
X019766Y002925D01*
X019758Y002876D01*
X019746Y002827D01*
X019730Y002779D01*
X019711Y002733D01*
X019688Y002689D01*
X019661Y002646D01*
X019631Y002606D01*
X019599Y002568D01*
X019563Y002533D01*
X019524Y002501D01*
X019483Y002472D01*
X019440Y002446D01*
X019395Y002424D01*
X019349Y002406D01*
X019301Y002391D01*
X019252Y002380D01*
X019203Y002373D01*
X019153Y002370D01*
X019102Y002371D01*
X019053Y002376D01*
X019003Y002385D01*
X018955Y002398D01*
X018908Y002414D01*
X018862Y002435D01*
X018818Y002459D01*
X018776Y002486D01*
X018736Y002516D01*
X018699Y002550D01*
X018665Y002587D01*
X018633Y002626D01*
X018605Y002667D01*
X018580Y002711D01*
X018559Y002756D01*
X018542Y002803D01*
X018528Y002851D01*
X018518Y002900D01*
X018512Y002950D01*
X018510Y003000D01*
X020523Y022000D02*
X020525Y022029D01*
X020531Y022057D01*
X020540Y022085D01*
X020553Y022111D01*
X020570Y022134D01*
X020589Y022156D01*
X020611Y022175D01*
X020636Y022190D01*
X020662Y022203D01*
X020690Y022211D01*
X020718Y022216D01*
X020747Y022217D01*
X020776Y022214D01*
X020804Y022207D01*
X020831Y022197D01*
X020857Y022183D01*
X020880Y022166D01*
X020901Y022146D01*
X020919Y022123D01*
X020934Y022098D01*
X020945Y022071D01*
X020953Y022043D01*
X020957Y022014D01*
X020957Y021986D01*
X020953Y021957D01*
X020945Y021929D01*
X020934Y021902D01*
X020919Y021877D01*
X020901Y021854D01*
X020880Y021834D01*
X020857Y021817D01*
X020831Y021803D01*
X020804Y021793D01*
X020776Y021786D01*
X020747Y021783D01*
X020718Y021784D01*
X020690Y021789D01*
X020662Y021797D01*
X020636Y021810D01*
X020611Y021825D01*
X020589Y021844D01*
X020570Y021866D01*
X020553Y021889D01*
X020540Y021915D01*
X020531Y021943D01*
X020525Y021971D01*
X020523Y022000D01*
X020523Y023000D02*
X020525Y023029D01*
X020531Y023057D01*
X020540Y023085D01*
X020553Y023111D01*
X020570Y023134D01*
X020589Y023156D01*
X020611Y023175D01*
X020636Y023190D01*
X020662Y023203D01*
X020690Y023211D01*
X020718Y023216D01*
X020747Y023217D01*
X020776Y023214D01*
X020804Y023207D01*
X020831Y023197D01*
X020857Y023183D01*
X020880Y023166D01*
X020901Y023146D01*
X020919Y023123D01*
X020934Y023098D01*
X020945Y023071D01*
X020953Y023043D01*
X020957Y023014D01*
X020957Y022986D01*
X020953Y022957D01*
X020945Y022929D01*
X020934Y022902D01*
X020919Y022877D01*
X020901Y022854D01*
X020880Y022834D01*
X020857Y022817D01*
X020831Y022803D01*
X020804Y022793D01*
X020776Y022786D01*
X020747Y022783D01*
X020718Y022784D01*
X020690Y022789D01*
X020662Y022797D01*
X020636Y022810D01*
X020611Y022825D01*
X020589Y022844D01*
X020570Y022866D01*
X020553Y022889D01*
X020540Y022915D01*
X020531Y022943D01*
X020525Y022971D01*
X020523Y023000D01*
X020523Y024000D02*
X020525Y024029D01*
X020531Y024057D01*
X020540Y024085D01*
X020553Y024111D01*
X020570Y024134D01*
X020589Y024156D01*
X020611Y024175D01*
X020636Y024190D01*
X020662Y024203D01*
X020690Y024211D01*
X020718Y024216D01*
X020747Y024217D01*
X020776Y024214D01*
X020804Y024207D01*
X020831Y024197D01*
X020857Y024183D01*
X020880Y024166D01*
X020901Y024146D01*
X020919Y024123D01*
X020934Y024098D01*
X020945Y024071D01*
X020953Y024043D01*
X020957Y024014D01*
X020957Y023986D01*
X020953Y023957D01*
X020945Y023929D01*
X020934Y023902D01*
X020919Y023877D01*
X020901Y023854D01*
X020880Y023834D01*
X020857Y023817D01*
X020831Y023803D01*
X020804Y023793D01*
X020776Y023786D01*
X020747Y023783D01*
X020718Y023784D01*
X020690Y023789D01*
X020662Y023797D01*
X020636Y023810D01*
X020611Y023825D01*
X020589Y023844D01*
X020570Y023866D01*
X020553Y023889D01*
X020540Y023915D01*
X020531Y023943D01*
X020525Y023971D01*
X020523Y024000D01*
X020523Y025000D02*
X020525Y025029D01*
X020531Y025057D01*
X020540Y025085D01*
X020553Y025111D01*
X020570Y025134D01*
X020589Y025156D01*
X020611Y025175D01*
X020636Y025190D01*
X020662Y025203D01*
X020690Y025211D01*
X020718Y025216D01*
X020747Y025217D01*
X020776Y025214D01*
X020804Y025207D01*
X020831Y025197D01*
X020857Y025183D01*
X020880Y025166D01*
X020901Y025146D01*
X020919Y025123D01*
X020934Y025098D01*
X020945Y025071D01*
X020953Y025043D01*
X020957Y025014D01*
X020957Y024986D01*
X020953Y024957D01*
X020945Y024929D01*
X020934Y024902D01*
X020919Y024877D01*
X020901Y024854D01*
X020880Y024834D01*
X020857Y024817D01*
X020831Y024803D01*
X020804Y024793D01*
X020776Y024786D01*
X020747Y024783D01*
X020718Y024784D01*
X020690Y024789D01*
X020662Y024797D01*
X020636Y024810D01*
X020611Y024825D01*
X020589Y024844D01*
X020570Y024866D01*
X020553Y024889D01*
X020540Y024915D01*
X020531Y024943D01*
X020525Y024971D01*
X020523Y025000D01*
X020523Y026000D02*
X020525Y026029D01*
X020531Y026057D01*
X020540Y026085D01*
X020553Y026111D01*
X020570Y026134D01*
X020589Y026156D01*
X020611Y026175D01*
X020636Y026190D01*
X020662Y026203D01*
X020690Y026211D01*
X020718Y026216D01*
X020747Y026217D01*
X020776Y026214D01*
X020804Y026207D01*
X020831Y026197D01*
X020857Y026183D01*
X020880Y026166D01*
X020901Y026146D01*
X020919Y026123D01*
X020934Y026098D01*
X020945Y026071D01*
X020953Y026043D01*
X020957Y026014D01*
X020957Y025986D01*
X020953Y025957D01*
X020945Y025929D01*
X020934Y025902D01*
X020919Y025877D01*
X020901Y025854D01*
X020880Y025834D01*
X020857Y025817D01*
X020831Y025803D01*
X020804Y025793D01*
X020776Y025786D01*
X020747Y025783D01*
X020718Y025784D01*
X020690Y025789D01*
X020662Y025797D01*
X020636Y025810D01*
X020611Y025825D01*
X020589Y025844D01*
X020570Y025866D01*
X020553Y025889D01*
X020540Y025915D01*
X020531Y025943D01*
X020525Y025971D01*
X020523Y026000D01*
X020523Y027000D02*
X020525Y027029D01*
X020531Y027057D01*
X020540Y027085D01*
X020553Y027111D01*
X020570Y027134D01*
X020589Y027156D01*
X020611Y027175D01*
X020636Y027190D01*
X020662Y027203D01*
X020690Y027211D01*
X020718Y027216D01*
X020747Y027217D01*
X020776Y027214D01*
X020804Y027207D01*
X020831Y027197D01*
X020857Y027183D01*
X020880Y027166D01*
X020901Y027146D01*
X020919Y027123D01*
X020934Y027098D01*
X020945Y027071D01*
X020953Y027043D01*
X020957Y027014D01*
X020957Y026986D01*
X020953Y026957D01*
X020945Y026929D01*
X020934Y026902D01*
X020919Y026877D01*
X020901Y026854D01*
X020880Y026834D01*
X020857Y026817D01*
X020831Y026803D01*
X020804Y026793D01*
X020776Y026786D01*
X020747Y026783D01*
X020718Y026784D01*
X020690Y026789D01*
X020662Y026797D01*
X020636Y026810D01*
X020611Y026825D01*
X020589Y026844D01*
X020570Y026866D01*
X020553Y026889D01*
X020540Y026915D01*
X020531Y026943D01*
X020525Y026971D01*
X020523Y027000D01*
X022500Y027100D02*
X022502Y027150D01*
X022508Y027200D01*
X022518Y027249D01*
X022531Y027298D01*
X022549Y027345D01*
X022570Y027391D01*
X022594Y027434D01*
X022622Y027476D01*
X022653Y027516D01*
X022687Y027553D01*
X022724Y027587D01*
X022764Y027618D01*
X022806Y027646D01*
X022849Y027670D01*
X022895Y027691D01*
X022942Y027709D01*
X022991Y027722D01*
X023040Y027732D01*
X023090Y027738D01*
X023140Y027740D01*
X023190Y027738D01*
X023240Y027732D01*
X023289Y027722D01*
X023338Y027709D01*
X023385Y027691D01*
X023431Y027670D01*
X023474Y027646D01*
X023516Y027618D01*
X023556Y027587D01*
X023593Y027553D01*
X023627Y027516D01*
X023658Y027476D01*
X023686Y027434D01*
X023710Y027391D01*
X023731Y027345D01*
X023749Y027298D01*
X023762Y027249D01*
X023772Y027200D01*
X023778Y027150D01*
X023780Y027100D01*
X023778Y027050D01*
X023772Y027000D01*
X023762Y026951D01*
X023749Y026902D01*
X023731Y026855D01*
X023710Y026809D01*
X023686Y026766D01*
X023658Y026724D01*
X023627Y026684D01*
X023593Y026647D01*
X023556Y026613D01*
X023516Y026582D01*
X023474Y026554D01*
X023431Y026530D01*
X023385Y026509D01*
X023338Y026491D01*
X023289Y026478D01*
X023240Y026468D01*
X023190Y026462D01*
X023140Y026460D01*
X023090Y026462D01*
X023040Y026468D01*
X022991Y026478D01*
X022942Y026491D01*
X022895Y026509D01*
X022849Y026530D01*
X022806Y026554D01*
X022764Y026582D01*
X022724Y026613D01*
X022687Y026647D01*
X022653Y026684D01*
X022622Y026724D01*
X022594Y026766D01*
X022570Y026809D01*
X022549Y026855D01*
X022531Y026902D01*
X022518Y026951D01*
X022508Y027000D01*
X022502Y027050D01*
X022500Y027100D01*
X022500Y023100D02*
X022502Y023150D01*
X022508Y023200D01*
X022518Y023249D01*
X022531Y023298D01*
X022549Y023345D01*
X022570Y023391D01*
X022594Y023434D01*
X022622Y023476D01*
X022653Y023516D01*
X022687Y023553D01*
X022724Y023587D01*
X022764Y023618D01*
X022806Y023646D01*
X022849Y023670D01*
X022895Y023691D01*
X022942Y023709D01*
X022991Y023722D01*
X023040Y023732D01*
X023090Y023738D01*
X023140Y023740D01*
X023190Y023738D01*
X023240Y023732D01*
X023289Y023722D01*
X023338Y023709D01*
X023385Y023691D01*
X023431Y023670D01*
X023474Y023646D01*
X023516Y023618D01*
X023556Y023587D01*
X023593Y023553D01*
X023627Y023516D01*
X023658Y023476D01*
X023686Y023434D01*
X023710Y023391D01*
X023731Y023345D01*
X023749Y023298D01*
X023762Y023249D01*
X023772Y023200D01*
X023778Y023150D01*
X023780Y023100D01*
X023778Y023050D01*
X023772Y023000D01*
X023762Y022951D01*
X023749Y022902D01*
X023731Y022855D01*
X023710Y022809D01*
X023686Y022766D01*
X023658Y022724D01*
X023627Y022684D01*
X023593Y022647D01*
X023556Y022613D01*
X023516Y022582D01*
X023474Y022554D01*
X023431Y022530D01*
X023385Y022509D01*
X023338Y022491D01*
X023289Y022478D01*
X023240Y022468D01*
X023190Y022462D01*
X023140Y022460D01*
X023090Y022462D01*
X023040Y022468D01*
X022991Y022478D01*
X022942Y022491D01*
X022895Y022509D01*
X022849Y022530D01*
X022806Y022554D01*
X022764Y022582D01*
X022724Y022613D01*
X022687Y022647D01*
X022653Y022684D01*
X022622Y022724D01*
X022594Y022766D01*
X022570Y022809D01*
X022549Y022855D01*
X022531Y022902D01*
X022518Y022951D01*
X022508Y023000D01*
X022502Y023050D01*
X022500Y023100D01*
X021710Y036700D02*
X021712Y036750D01*
X021718Y036800D01*
X021728Y036849D01*
X021742Y036897D01*
X021759Y036944D01*
X021780Y036989D01*
X021805Y037033D01*
X021833Y037074D01*
X021865Y037113D01*
X021899Y037150D01*
X021936Y037184D01*
X021976Y037214D01*
X022018Y037241D01*
X022062Y037265D01*
X022108Y037286D01*
X022155Y037302D01*
X022203Y037315D01*
X022253Y037324D01*
X022302Y037329D01*
X022353Y037330D01*
X022403Y037327D01*
X022452Y037320D01*
X022501Y037309D01*
X022549Y037294D01*
X022595Y037276D01*
X022640Y037254D01*
X022683Y037228D01*
X022724Y037199D01*
X022763Y037167D01*
X022799Y037132D01*
X022831Y037094D01*
X022861Y037054D01*
X022888Y037011D01*
X022911Y036967D01*
X022930Y036921D01*
X022946Y036873D01*
X022958Y036824D01*
X022966Y036775D01*
X022970Y036725D01*
X022970Y036675D01*
X022966Y036625D01*
X022958Y036576D01*
X022946Y036527D01*
X022930Y036479D01*
X022911Y036433D01*
X022888Y036389D01*
X022861Y036346D01*
X022831Y036306D01*
X022799Y036268D01*
X022763Y036233D01*
X022724Y036201D01*
X022683Y036172D01*
X022640Y036146D01*
X022595Y036124D01*
X022549Y036106D01*
X022501Y036091D01*
X022452Y036080D01*
X022403Y036073D01*
X022353Y036070D01*
X022302Y036071D01*
X022253Y036076D01*
X022203Y036085D01*
X022155Y036098D01*
X022108Y036114D01*
X022062Y036135D01*
X022018Y036159D01*
X021976Y036186D01*
X021936Y036216D01*
X021899Y036250D01*
X021865Y036287D01*
X021833Y036326D01*
X021805Y036367D01*
X021780Y036411D01*
X021759Y036456D01*
X021742Y036503D01*
X021728Y036551D01*
X021718Y036600D01*
X021712Y036650D01*
X021710Y036700D01*
X018510Y036700D02*
X018512Y036750D01*
X018518Y036800D01*
X018528Y036849D01*
X018542Y036897D01*
X018559Y036944D01*
X018580Y036989D01*
X018605Y037033D01*
X018633Y037074D01*
X018665Y037113D01*
X018699Y037150D01*
X018736Y037184D01*
X018776Y037214D01*
X018818Y037241D01*
X018862Y037265D01*
X018908Y037286D01*
X018955Y037302D01*
X019003Y037315D01*
X019053Y037324D01*
X019102Y037329D01*
X019153Y037330D01*
X019203Y037327D01*
X019252Y037320D01*
X019301Y037309D01*
X019349Y037294D01*
X019395Y037276D01*
X019440Y037254D01*
X019483Y037228D01*
X019524Y037199D01*
X019563Y037167D01*
X019599Y037132D01*
X019631Y037094D01*
X019661Y037054D01*
X019688Y037011D01*
X019711Y036967D01*
X019730Y036921D01*
X019746Y036873D01*
X019758Y036824D01*
X019766Y036775D01*
X019770Y036725D01*
X019770Y036675D01*
X019766Y036625D01*
X019758Y036576D01*
X019746Y036527D01*
X019730Y036479D01*
X019711Y036433D01*
X019688Y036389D01*
X019661Y036346D01*
X019631Y036306D01*
X019599Y036268D01*
X019563Y036233D01*
X019524Y036201D01*
X019483Y036172D01*
X019440Y036146D01*
X019395Y036124D01*
X019349Y036106D01*
X019301Y036091D01*
X019252Y036080D01*
X019203Y036073D01*
X019153Y036070D01*
X019102Y036071D01*
X019053Y036076D01*
X019003Y036085D01*
X018955Y036098D01*
X018908Y036114D01*
X018862Y036135D01*
X018818Y036159D01*
X018776Y036186D01*
X018736Y036216D01*
X018699Y036250D01*
X018665Y036287D01*
X018633Y036326D01*
X018605Y036367D01*
X018580Y036411D01*
X018559Y036456D01*
X018542Y036503D01*
X018528Y036551D01*
X018518Y036600D01*
X018512Y036650D01*
X018510Y036700D01*
X002700Y027100D02*
X002702Y027150D01*
X002708Y027200D01*
X002718Y027249D01*
X002731Y027298D01*
X002749Y027345D01*
X002770Y027391D01*
X002794Y027434D01*
X002822Y027476D01*
X002853Y027516D01*
X002887Y027553D01*
X002924Y027587D01*
X002964Y027618D01*
X003006Y027646D01*
X003049Y027670D01*
X003095Y027691D01*
X003142Y027709D01*
X003191Y027722D01*
X003240Y027732D01*
X003290Y027738D01*
X003340Y027740D01*
X003390Y027738D01*
X003440Y027732D01*
X003489Y027722D01*
X003538Y027709D01*
X003585Y027691D01*
X003631Y027670D01*
X003674Y027646D01*
X003716Y027618D01*
X003756Y027587D01*
X003793Y027553D01*
X003827Y027516D01*
X003858Y027476D01*
X003886Y027434D01*
X003910Y027391D01*
X003931Y027345D01*
X003949Y027298D01*
X003962Y027249D01*
X003972Y027200D01*
X003978Y027150D01*
X003980Y027100D01*
X003978Y027050D01*
X003972Y027000D01*
X003962Y026951D01*
X003949Y026902D01*
X003931Y026855D01*
X003910Y026809D01*
X003886Y026766D01*
X003858Y026724D01*
X003827Y026684D01*
X003793Y026647D01*
X003756Y026613D01*
X003716Y026582D01*
X003674Y026554D01*
X003631Y026530D01*
X003585Y026509D01*
X003538Y026491D01*
X003489Y026478D01*
X003440Y026468D01*
X003390Y026462D01*
X003340Y026460D01*
X003290Y026462D01*
X003240Y026468D01*
X003191Y026478D01*
X003142Y026491D01*
X003095Y026509D01*
X003049Y026530D01*
X003006Y026554D01*
X002964Y026582D01*
X002924Y026613D01*
X002887Y026647D01*
X002853Y026684D01*
X002822Y026724D01*
X002794Y026766D01*
X002770Y026809D01*
X002749Y026855D01*
X002731Y026902D01*
X002718Y026951D01*
X002708Y027000D01*
X002702Y027050D01*
X002700Y027100D01*
X002700Y023100D02*
X002702Y023150D01*
X002708Y023200D01*
X002718Y023249D01*
X002731Y023298D01*
X002749Y023345D01*
X002770Y023391D01*
X002794Y023434D01*
X002822Y023476D01*
X002853Y023516D01*
X002887Y023553D01*
X002924Y023587D01*
X002964Y023618D01*
X003006Y023646D01*
X003049Y023670D01*
X003095Y023691D01*
X003142Y023709D01*
X003191Y023722D01*
X003240Y023732D01*
X003290Y023738D01*
X003340Y023740D01*
X003390Y023738D01*
X003440Y023732D01*
X003489Y023722D01*
X003538Y023709D01*
X003585Y023691D01*
X003631Y023670D01*
X003674Y023646D01*
X003716Y023618D01*
X003756Y023587D01*
X003793Y023553D01*
X003827Y023516D01*
X003858Y023476D01*
X003886Y023434D01*
X003910Y023391D01*
X003931Y023345D01*
X003949Y023298D01*
X003962Y023249D01*
X003972Y023200D01*
X003978Y023150D01*
X003980Y023100D01*
X003978Y023050D01*
X003972Y023000D01*
X003962Y022951D01*
X003949Y022902D01*
X003931Y022855D01*
X003910Y022809D01*
X003886Y022766D01*
X003858Y022724D01*
X003827Y022684D01*
X003793Y022647D01*
X003756Y022613D01*
X003716Y022582D01*
X003674Y022554D01*
X003631Y022530D01*
X003585Y022509D01*
X003538Y022491D01*
X003489Y022478D01*
X003440Y022468D01*
X003390Y022462D01*
X003340Y022460D01*
X003290Y022462D01*
X003240Y022468D01*
X003191Y022478D01*
X003142Y022491D01*
X003095Y022509D01*
X003049Y022530D01*
X003006Y022554D01*
X002964Y022582D01*
X002924Y022613D01*
X002887Y022647D01*
X002853Y022684D01*
X002822Y022724D01*
X002794Y022766D01*
X002770Y022809D01*
X002749Y022855D01*
X002731Y022902D01*
X002718Y022951D01*
X002708Y023000D01*
X002702Y023050D01*
X002700Y023100D01*
X001910Y036700D02*
X001912Y036750D01*
X001918Y036800D01*
X001928Y036849D01*
X001942Y036897D01*
X001959Y036944D01*
X001980Y036989D01*
X002005Y037033D01*
X002033Y037074D01*
X002065Y037113D01*
X002099Y037150D01*
X002136Y037184D01*
X002176Y037214D01*
X002218Y037241D01*
X002262Y037265D01*
X002308Y037286D01*
X002355Y037302D01*
X002403Y037315D01*
X002453Y037324D01*
X002502Y037329D01*
X002553Y037330D01*
X002603Y037327D01*
X002652Y037320D01*
X002701Y037309D01*
X002749Y037294D01*
X002795Y037276D01*
X002840Y037254D01*
X002883Y037228D01*
X002924Y037199D01*
X002963Y037167D01*
X002999Y037132D01*
X003031Y037094D01*
X003061Y037054D01*
X003088Y037011D01*
X003111Y036967D01*
X003130Y036921D01*
X003146Y036873D01*
X003158Y036824D01*
X003166Y036775D01*
X003170Y036725D01*
X003170Y036675D01*
X003166Y036625D01*
X003158Y036576D01*
X003146Y036527D01*
X003130Y036479D01*
X003111Y036433D01*
X003088Y036389D01*
X003061Y036346D01*
X003031Y036306D01*
X002999Y036268D01*
X002963Y036233D01*
X002924Y036201D01*
X002883Y036172D01*
X002840Y036146D01*
X002795Y036124D01*
X002749Y036106D01*
X002701Y036091D01*
X002652Y036080D01*
X002603Y036073D01*
X002553Y036070D01*
X002502Y036071D01*
X002453Y036076D01*
X002403Y036085D01*
X002355Y036098D01*
X002308Y036114D01*
X002262Y036135D01*
X002218Y036159D01*
X002176Y036186D01*
X002136Y036216D01*
X002099Y036250D01*
X002065Y036287D01*
X002033Y036326D01*
X002005Y036367D01*
X001980Y036411D01*
X001959Y036456D01*
X001942Y036503D01*
X001928Y036551D01*
X001918Y036600D01*
X001912Y036650D01*
X001910Y036700D01*
X038310Y036700D02*
X038312Y036750D01*
X038318Y036800D01*
X038328Y036849D01*
X038342Y036897D01*
X038359Y036944D01*
X038380Y036989D01*
X038405Y037033D01*
X038433Y037074D01*
X038465Y037113D01*
X038499Y037150D01*
X038536Y037184D01*
X038576Y037214D01*
X038618Y037241D01*
X038662Y037265D01*
X038708Y037286D01*
X038755Y037302D01*
X038803Y037315D01*
X038853Y037324D01*
X038902Y037329D01*
X038953Y037330D01*
X039003Y037327D01*
X039052Y037320D01*
X039101Y037309D01*
X039149Y037294D01*
X039195Y037276D01*
X039240Y037254D01*
X039283Y037228D01*
X039324Y037199D01*
X039363Y037167D01*
X039399Y037132D01*
X039431Y037094D01*
X039461Y037054D01*
X039488Y037011D01*
X039511Y036967D01*
X039530Y036921D01*
X039546Y036873D01*
X039558Y036824D01*
X039566Y036775D01*
X039570Y036725D01*
X039570Y036675D01*
X039566Y036625D01*
X039558Y036576D01*
X039546Y036527D01*
X039530Y036479D01*
X039511Y036433D01*
X039488Y036389D01*
X039461Y036346D01*
X039431Y036306D01*
X039399Y036268D01*
X039363Y036233D01*
X039324Y036201D01*
X039283Y036172D01*
X039240Y036146D01*
X039195Y036124D01*
X039149Y036106D01*
X039101Y036091D01*
X039052Y036080D01*
X039003Y036073D01*
X038953Y036070D01*
X038902Y036071D01*
X038853Y036076D01*
X038803Y036085D01*
X038755Y036098D01*
X038708Y036114D01*
X038662Y036135D01*
X038618Y036159D01*
X038576Y036186D01*
X038536Y036216D01*
X038499Y036250D01*
X038465Y036287D01*
X038433Y036326D01*
X038405Y036367D01*
X038380Y036411D01*
X038359Y036456D01*
X038342Y036503D01*
X038328Y036551D01*
X038318Y036600D01*
X038312Y036650D01*
X038310Y036700D01*
X038310Y003000D02*
X038312Y003050D01*
X038318Y003100D01*
X038328Y003149D01*
X038342Y003197D01*
X038359Y003244D01*
X038380Y003289D01*
X038405Y003333D01*
X038433Y003374D01*
X038465Y003413D01*
X038499Y003450D01*
X038536Y003484D01*
X038576Y003514D01*
X038618Y003541D01*
X038662Y003565D01*
X038708Y003586D01*
X038755Y003602D01*
X038803Y003615D01*
X038853Y003624D01*
X038902Y003629D01*
X038953Y003630D01*
X039003Y003627D01*
X039052Y003620D01*
X039101Y003609D01*
X039149Y003594D01*
X039195Y003576D01*
X039240Y003554D01*
X039283Y003528D01*
X039324Y003499D01*
X039363Y003467D01*
X039399Y003432D01*
X039431Y003394D01*
X039461Y003354D01*
X039488Y003311D01*
X039511Y003267D01*
X039530Y003221D01*
X039546Y003173D01*
X039558Y003124D01*
X039566Y003075D01*
X039570Y003025D01*
X039570Y002975D01*
X039566Y002925D01*
X039558Y002876D01*
X039546Y002827D01*
X039530Y002779D01*
X039511Y002733D01*
X039488Y002689D01*
X039461Y002646D01*
X039431Y002606D01*
X039399Y002568D01*
X039363Y002533D01*
X039324Y002501D01*
X039283Y002472D01*
X039240Y002446D01*
X039195Y002424D01*
X039149Y002406D01*
X039101Y002391D01*
X039052Y002380D01*
X039003Y002373D01*
X038953Y002370D01*
X038902Y002371D01*
X038853Y002376D01*
X038803Y002385D01*
X038755Y002398D01*
X038708Y002414D01*
X038662Y002435D01*
X038618Y002459D01*
X038576Y002486D01*
X038536Y002516D01*
X038499Y002550D01*
X038465Y002587D01*
X038433Y002626D01*
X038405Y002667D01*
X038380Y002711D01*
X038359Y002756D01*
X038342Y002803D01*
X038328Y002851D01*
X038318Y002900D01*
X038312Y002950D01*
X038310Y003000D01*
D11*
X026840Y032840D03*
X025740Y032840D03*
X024640Y032840D03*
X023540Y032840D03*
X022440Y032840D03*
X022440Y033960D03*
X023540Y033960D03*
X024640Y033960D03*
X025740Y033960D03*
X026840Y033960D03*
X007040Y033960D03*
X005940Y033960D03*
X004840Y033960D03*
X003740Y033960D03*
X002640Y033960D03*
X002640Y032840D03*
X003740Y032840D03*
X004840Y032840D03*
X005940Y032840D03*
X007040Y032840D03*
D12*
X008840Y033024D03*
X008840Y032237D03*
X008840Y031450D03*
X008840Y030662D03*
X008840Y029875D03*
X008840Y029087D03*
X008840Y033812D03*
X008840Y034599D03*
X015218Y034599D03*
X015218Y033812D03*
X015218Y033024D03*
X015218Y032237D03*
X015218Y031450D03*
X015218Y030662D03*
X015218Y029875D03*
X015218Y029087D03*
X028640Y029087D03*
X028640Y029875D03*
X028640Y030662D03*
X028640Y031450D03*
X028640Y032237D03*
X028640Y033024D03*
X028640Y033812D03*
X028640Y034599D03*
X035018Y034599D03*
X035018Y033812D03*
X035018Y033024D03*
X035018Y032237D03*
X035018Y031450D03*
X035018Y030662D03*
X035018Y029875D03*
X035018Y029087D03*
D13*
X037766Y031600D03*
X038514Y031600D03*
X018714Y031600D03*
X017966Y031600D03*
D14*
X016140Y029774D03*
X016140Y029026D03*
X024440Y030526D03*
X024440Y031274D03*
X025240Y031274D03*
X025240Y030526D03*
X035940Y029774D03*
X035940Y029026D03*
X005440Y030526D03*
X005440Y031274D03*
X004640Y031274D03*
X004640Y030526D03*
M02*
