%
M48
M72
T01C0.0236
T02C0.0320
T03C0.0354
T04C0.0360
T05C0.0394
T06C0.0400
T07C0.0433
T08C0.0512
T09C0.1180
T10C0.1260
T11C0.1280
%
T01
X1890Y34900
X4190Y34900
X5390Y34900
X7590Y34900
X8040Y34300
X8140Y33550
X8140Y32000
X7040Y32200
X8140Y30800
X7090Y29700
X7640Y28600
X8140Y29000
X8340Y27950
X8440Y26350
X6790Y27400
X5840Y27100
X5040Y26600
X5040Y28050
X2040Y26900
X1890Y24900
X1940Y23200
X4140Y21900
X5940Y22800
X6840Y22100
X6290Y21550
X6740Y20900
X7840Y22200
X9040Y22350
X9640Y22200
X10690Y22300
X11490Y21600
X10740Y23500
X10040Y25100
X11190Y25900
X12040Y26100
X12540Y25500
X12740Y26500
X11440Y27500
X10990Y28750
X9840Y28700
X9940Y29500
X9690Y30250
X9690Y31050
X9640Y32000
X10290Y32950
X11990Y32500
X12890Y33400
X14490Y33400
X14390Y32600
X14140Y31300
X13490Y31050
X13740Y30300
X13540Y29900
X14190Y29050
X13790Y27900
X12840Y28000
X14290Y26400
X13190Y24700
X13590Y23900
X14090Y22100
X14890Y21600
X16090Y22200
X13090Y19300
X14890Y18600
X10590Y19400
X8140Y18100
X7140Y16700
X6590Y15300
X5690Y14900
X3690Y15000
X3540Y13300
X3690Y11400
X2540Y8900
X3690Y8400
X5490Y8500
X7490Y9400
X8390Y9900
X8390Y8900
X9690Y10000
X8040Y11400
X8040Y13600
X10740Y12600
X11440Y10900
X10740Y7800
X8240Y6800
X6340Y6300
X8540Y4100
X6740Y2900
X3240Y4900
X2040Y6100
X1940Y2800
X10740Y2400
X11290Y3100
X11240Y4600
X21740Y2800
X23040Y4900
X21840Y6100
X23490Y8400
X22340Y8900
X23490Y11400
X23340Y13300
X23490Y15000
X25490Y14900
X26390Y15300
X26940Y16700
X27940Y18100
X30440Y16900
X32890Y19300
X34690Y18600
X34690Y21600
X33890Y22100
X33390Y23900
X32990Y24700
X32340Y25500
X31840Y26100
X32540Y26500
X31240Y27500
X30790Y28750
X29640Y28700
X29740Y29500
X29490Y30250
X29490Y31050
X29440Y32000
X30090Y32950
X31790Y32500
X32690Y33400
X34290Y33400
X34190Y32600
X33940Y31300
X33290Y31050
X33540Y30300
X33340Y29900
X33990Y29050
X33590Y27900
X32640Y28000
X34090Y26400
X35990Y27300
X37690Y29900
X38890Y29900
X39690Y31500
X36590Y32400
X35740Y33400
X36490Y34200
X36290Y35000
X39490Y34900
X35890Y30700
X39190Y28000
X35890Y22200
X31290Y21600
X30490Y22300
X29440Y22200
X28840Y22350
X27640Y22200
X26640Y22100
X26090Y21550
X26540Y20900
X25740Y22800
X23940Y21900
X21740Y23200
X19390Y28000
X19090Y29900
X17890Y29900
X16090Y30700
X16790Y32400
X15940Y33400
X16690Y34200
X16490Y35000
X19690Y34900
X21690Y34900
X23990Y34900
X25190Y34900
X27390Y34900
X27840Y34300
X27940Y33550
X27940Y32000
X26840Y32200
X27940Y30800
X26890Y29700
X27440Y28600
X27940Y29000
X28140Y27950
X28240Y26350
X26590Y27400
X25640Y27100
X24840Y26600
X24840Y28050
X21840Y26900
X21690Y24900
X22640Y29700
X23540Y30100
X24840Y29800
X22740Y31200
X22840Y32000
X25240Y32200
X29790Y35000
X31490Y35000
X31190Y30750
X30990Y25900
X29840Y25100
X30540Y23500
X27340Y24400
X30390Y19400
X25040Y17000
X21940Y19000
X27840Y13600
X27840Y11400
X28190Y9900
X27290Y9400
X28190Y8900
X29490Y10000
X31240Y10900
X30540Y12600
X30540Y7800
X28040Y6800
X26140Y6300
X25290Y8500
X28340Y4100
X26540Y2900
X30540Y2400
X31090Y3100
X31040Y4600
X16190Y27300
X19890Y31500
X11390Y30750
X11690Y35000
X9990Y35000
X5440Y32200
X3740Y30100
X2840Y29700
X2940Y31200
X3040Y32000
X5040Y29800
X7540Y24400
X2140Y19000
X5240Y17000
X10640Y16900
T02
X26340Y19000
X26340Y20000
X6540Y20000
X6540Y19000
T03
X15220Y20100
X12660Y20100
X18840Y32600
X17840Y32600
X17840Y33600
X18840Y33600
X18840Y34600
X17840Y34600
X37640Y34600
X38640Y34600
X38640Y33600
X37640Y33600
X37640Y32600
X38640Y32600
X35020Y20100
X32460Y20100
T04
X9240Y10800
X10240Y10800
X29040Y10800
X30040Y10800
T05
X2290Y15100
X7540Y15100
X7540Y7600
X2290Y7600
X22090Y7600
X27340Y7600
X27340Y15100
X22090Y15100
T06
X8640Y18900
X8640Y19900
X8640Y20900
X5840Y23850
X6840Y24350
X6840Y25350
X5840Y25850
X6840Y26350
X5840Y24850
X1950Y28420
X3730Y28420
X3730Y30980
X1950Y30980
X15740Y25900
X15740Y24900
X15740Y23900
X21750Y28420
X23530Y28420
X25640Y25850
X26640Y25350
X26640Y24350
X25640Y23850
X25640Y24850
X26640Y26350
X19520Y29010
X19520Y30790
X21750Y30980
X23530Y30980
X16960Y30790
X16960Y29010
X28440Y20900
X28440Y19900
X28440Y18900
X35540Y23900
X35540Y24900
X35540Y25900
X36760Y29010
X36760Y30790
X39320Y30790
X39320Y29010
T07
X20740Y22000
X20740Y23000
X20740Y24000
X20740Y25000
X20740Y26000
X20740Y27000
T08
X12515Y7900
X13302Y5538
X14640Y3100
X16609Y3100
X18105Y5538
X18105Y10262
X18105Y11938
X18105Y16662
X18940Y19100
X18940Y21069
X18940Y25869
X18940Y23900
X22540Y20100
X22540Y18131
X2740Y20100
X2740Y18131
X12515Y14300
X13302Y11938
X13302Y10262
X13302Y16662
X32315Y14300
X33102Y11938
X33102Y10262
X32315Y7900
X33102Y5538
X34440Y3100
X36409Y3100
X37905Y5538
X37905Y10262
X37905Y11938
X37905Y16662
X38740Y19100
X38740Y21069
X38740Y23900
X38740Y25869
X33102Y16662
T09
X24340Y5894
X26190Y4713
X24340Y3531
X6390Y4713
X4540Y5894
X4540Y3531
T10
X7990Y3000
X19140Y3000
X27790Y3000
X38940Y3000
X22340Y36700
X19140Y36700
X2540Y36700
X38940Y36700
T11
X3340Y27100
X3340Y23100
X23140Y27100
X23140Y23100
M30
