G75*
G70*
%OFA0B0*%
%FSLAX24Y24*%
%IPPOS*%
%LPD*%
%AMOC8*
5,1,8,0,0,1.08239X$1,22.5*
%
%ADD10C,0.0000*%
%ADD11C,0.0080*%
%ADD12C,0.0050*%
%ADD13C,0.0040*%
%ADD14C,0.0060*%
%ADD15R,0.0079X0.0079*%
%ADD16R,0.0098X0.0059*%
%ADD17C,0.0030*%
%ADD18R,0.0300X0.4200*%
%ADD19R,0.0200X0.0750*%
%ADD20R,0.0200X0.0300*%
D10*
X001340Y001800D02*
X001340Y037900D01*
X020340Y037900D01*
X020340Y027600D01*
X021140Y027600D01*
X021140Y037900D01*
X040140Y037900D01*
X040140Y001800D01*
X021140Y001800D01*
X021140Y021400D01*
X020340Y021400D01*
X020340Y001800D01*
X001340Y001800D01*
X018510Y003000D02*
X018512Y003050D01*
X018518Y003100D01*
X018528Y003149D01*
X018542Y003197D01*
X018559Y003244D01*
X018580Y003289D01*
X018605Y003333D01*
X018633Y003374D01*
X018665Y003413D01*
X018699Y003450D01*
X018736Y003484D01*
X018776Y003514D01*
X018818Y003541D01*
X018862Y003565D01*
X018908Y003586D01*
X018955Y003602D01*
X019003Y003615D01*
X019053Y003624D01*
X019102Y003629D01*
X019153Y003630D01*
X019203Y003627D01*
X019252Y003620D01*
X019301Y003609D01*
X019349Y003594D01*
X019395Y003576D01*
X019440Y003554D01*
X019483Y003528D01*
X019524Y003499D01*
X019563Y003467D01*
X019599Y003432D01*
X019631Y003394D01*
X019661Y003354D01*
X019688Y003311D01*
X019711Y003267D01*
X019730Y003221D01*
X019746Y003173D01*
X019758Y003124D01*
X019766Y003075D01*
X019770Y003025D01*
X019770Y002975D01*
X019766Y002925D01*
X019758Y002876D01*
X019746Y002827D01*
X019730Y002779D01*
X019711Y002733D01*
X019688Y002689D01*
X019661Y002646D01*
X019631Y002606D01*
X019599Y002568D01*
X019563Y002533D01*
X019524Y002501D01*
X019483Y002472D01*
X019440Y002446D01*
X019395Y002424D01*
X019349Y002406D01*
X019301Y002391D01*
X019252Y002380D01*
X019203Y002373D01*
X019153Y002370D01*
X019102Y002371D01*
X019053Y002376D01*
X019003Y002385D01*
X018955Y002398D01*
X018908Y002414D01*
X018862Y002435D01*
X018818Y002459D01*
X018776Y002486D01*
X018736Y002516D01*
X018699Y002550D01*
X018665Y002587D01*
X018633Y002626D01*
X018605Y002667D01*
X018580Y002711D01*
X018559Y002756D01*
X018542Y002803D01*
X018528Y002851D01*
X018518Y002900D01*
X018512Y002950D01*
X018510Y003000D01*
X020523Y022000D02*
X020525Y022029D01*
X020531Y022057D01*
X020540Y022085D01*
X020553Y022111D01*
X020570Y022134D01*
X020589Y022156D01*
X020611Y022175D01*
X020636Y022190D01*
X020662Y022203D01*
X020690Y022211D01*
X020718Y022216D01*
X020747Y022217D01*
X020776Y022214D01*
X020804Y022207D01*
X020831Y022197D01*
X020857Y022183D01*
X020880Y022166D01*
X020901Y022146D01*
X020919Y022123D01*
X020934Y022098D01*
X020945Y022071D01*
X020953Y022043D01*
X020957Y022014D01*
X020957Y021986D01*
X020953Y021957D01*
X020945Y021929D01*
X020934Y021902D01*
X020919Y021877D01*
X020901Y021854D01*
X020880Y021834D01*
X020857Y021817D01*
X020831Y021803D01*
X020804Y021793D01*
X020776Y021786D01*
X020747Y021783D01*
X020718Y021784D01*
X020690Y021789D01*
X020662Y021797D01*
X020636Y021810D01*
X020611Y021825D01*
X020589Y021844D01*
X020570Y021866D01*
X020553Y021889D01*
X020540Y021915D01*
X020531Y021943D01*
X020525Y021971D01*
X020523Y022000D01*
X020523Y023000D02*
X020525Y023029D01*
X020531Y023057D01*
X020540Y023085D01*
X020553Y023111D01*
X020570Y023134D01*
X020589Y023156D01*
X020611Y023175D01*
X020636Y023190D01*
X020662Y023203D01*
X020690Y023211D01*
X020718Y023216D01*
X020747Y023217D01*
X020776Y023214D01*
X020804Y023207D01*
X020831Y023197D01*
X020857Y023183D01*
X020880Y023166D01*
X020901Y023146D01*
X020919Y023123D01*
X020934Y023098D01*
X020945Y023071D01*
X020953Y023043D01*
X020957Y023014D01*
X020957Y022986D01*
X020953Y022957D01*
X020945Y022929D01*
X020934Y022902D01*
X020919Y022877D01*
X020901Y022854D01*
X020880Y022834D01*
X020857Y022817D01*
X020831Y022803D01*
X020804Y022793D01*
X020776Y022786D01*
X020747Y022783D01*
X020718Y022784D01*
X020690Y022789D01*
X020662Y022797D01*
X020636Y022810D01*
X020611Y022825D01*
X020589Y022844D01*
X020570Y022866D01*
X020553Y022889D01*
X020540Y022915D01*
X020531Y022943D01*
X020525Y022971D01*
X020523Y023000D01*
X020523Y024000D02*
X020525Y024029D01*
X020531Y024057D01*
X020540Y024085D01*
X020553Y024111D01*
X020570Y024134D01*
X020589Y024156D01*
X020611Y024175D01*
X020636Y024190D01*
X020662Y024203D01*
X020690Y024211D01*
X020718Y024216D01*
X020747Y024217D01*
X020776Y024214D01*
X020804Y024207D01*
X020831Y024197D01*
X020857Y024183D01*
X020880Y024166D01*
X020901Y024146D01*
X020919Y024123D01*
X020934Y024098D01*
X020945Y024071D01*
X020953Y024043D01*
X020957Y024014D01*
X020957Y023986D01*
X020953Y023957D01*
X020945Y023929D01*
X020934Y023902D01*
X020919Y023877D01*
X020901Y023854D01*
X020880Y023834D01*
X020857Y023817D01*
X020831Y023803D01*
X020804Y023793D01*
X020776Y023786D01*
X020747Y023783D01*
X020718Y023784D01*
X020690Y023789D01*
X020662Y023797D01*
X020636Y023810D01*
X020611Y023825D01*
X020589Y023844D01*
X020570Y023866D01*
X020553Y023889D01*
X020540Y023915D01*
X020531Y023943D01*
X020525Y023971D01*
X020523Y024000D01*
X020523Y025000D02*
X020525Y025029D01*
X020531Y025057D01*
X020540Y025085D01*
X020553Y025111D01*
X020570Y025134D01*
X020589Y025156D01*
X020611Y025175D01*
X020636Y025190D01*
X020662Y025203D01*
X020690Y025211D01*
X020718Y025216D01*
X020747Y025217D01*
X020776Y025214D01*
X020804Y025207D01*
X020831Y025197D01*
X020857Y025183D01*
X020880Y025166D01*
X020901Y025146D01*
X020919Y025123D01*
X020934Y025098D01*
X020945Y025071D01*
X020953Y025043D01*
X020957Y025014D01*
X020957Y024986D01*
X020953Y024957D01*
X020945Y024929D01*
X020934Y024902D01*
X020919Y024877D01*
X020901Y024854D01*
X020880Y024834D01*
X020857Y024817D01*
X020831Y024803D01*
X020804Y024793D01*
X020776Y024786D01*
X020747Y024783D01*
X020718Y024784D01*
X020690Y024789D01*
X020662Y024797D01*
X020636Y024810D01*
X020611Y024825D01*
X020589Y024844D01*
X020570Y024866D01*
X020553Y024889D01*
X020540Y024915D01*
X020531Y024943D01*
X020525Y024971D01*
X020523Y025000D01*
X020523Y026000D02*
X020525Y026029D01*
X020531Y026057D01*
X020540Y026085D01*
X020553Y026111D01*
X020570Y026134D01*
X020589Y026156D01*
X020611Y026175D01*
X020636Y026190D01*
X020662Y026203D01*
X020690Y026211D01*
X020718Y026216D01*
X020747Y026217D01*
X020776Y026214D01*
X020804Y026207D01*
X020831Y026197D01*
X020857Y026183D01*
X020880Y026166D01*
X020901Y026146D01*
X020919Y026123D01*
X020934Y026098D01*
X020945Y026071D01*
X020953Y026043D01*
X020957Y026014D01*
X020957Y025986D01*
X020953Y025957D01*
X020945Y025929D01*
X020934Y025902D01*
X020919Y025877D01*
X020901Y025854D01*
X020880Y025834D01*
X020857Y025817D01*
X020831Y025803D01*
X020804Y025793D01*
X020776Y025786D01*
X020747Y025783D01*
X020718Y025784D01*
X020690Y025789D01*
X020662Y025797D01*
X020636Y025810D01*
X020611Y025825D01*
X020589Y025844D01*
X020570Y025866D01*
X020553Y025889D01*
X020540Y025915D01*
X020531Y025943D01*
X020525Y025971D01*
X020523Y026000D01*
X020523Y027000D02*
X020525Y027029D01*
X020531Y027057D01*
X020540Y027085D01*
X020553Y027111D01*
X020570Y027134D01*
X020589Y027156D01*
X020611Y027175D01*
X020636Y027190D01*
X020662Y027203D01*
X020690Y027211D01*
X020718Y027216D01*
X020747Y027217D01*
X020776Y027214D01*
X020804Y027207D01*
X020831Y027197D01*
X020857Y027183D01*
X020880Y027166D01*
X020901Y027146D01*
X020919Y027123D01*
X020934Y027098D01*
X020945Y027071D01*
X020953Y027043D01*
X020957Y027014D01*
X020957Y026986D01*
X020953Y026957D01*
X020945Y026929D01*
X020934Y026902D01*
X020919Y026877D01*
X020901Y026854D01*
X020880Y026834D01*
X020857Y026817D01*
X020831Y026803D01*
X020804Y026793D01*
X020776Y026786D01*
X020747Y026783D01*
X020718Y026784D01*
X020690Y026789D01*
X020662Y026797D01*
X020636Y026810D01*
X020611Y026825D01*
X020589Y026844D01*
X020570Y026866D01*
X020553Y026889D01*
X020540Y026915D01*
X020531Y026943D01*
X020525Y026971D01*
X020523Y027000D01*
X022500Y027100D02*
X022502Y027150D01*
X022508Y027200D01*
X022518Y027249D01*
X022531Y027298D01*
X022549Y027345D01*
X022570Y027391D01*
X022594Y027434D01*
X022622Y027476D01*
X022653Y027516D01*
X022687Y027553D01*
X022724Y027587D01*
X022764Y027618D01*
X022806Y027646D01*
X022849Y027670D01*
X022895Y027691D01*
X022942Y027709D01*
X022991Y027722D01*
X023040Y027732D01*
X023090Y027738D01*
X023140Y027740D01*
X023190Y027738D01*
X023240Y027732D01*
X023289Y027722D01*
X023338Y027709D01*
X023385Y027691D01*
X023431Y027670D01*
X023474Y027646D01*
X023516Y027618D01*
X023556Y027587D01*
X023593Y027553D01*
X023627Y027516D01*
X023658Y027476D01*
X023686Y027434D01*
X023710Y027391D01*
X023731Y027345D01*
X023749Y027298D01*
X023762Y027249D01*
X023772Y027200D01*
X023778Y027150D01*
X023780Y027100D01*
X023778Y027050D01*
X023772Y027000D01*
X023762Y026951D01*
X023749Y026902D01*
X023731Y026855D01*
X023710Y026809D01*
X023686Y026766D01*
X023658Y026724D01*
X023627Y026684D01*
X023593Y026647D01*
X023556Y026613D01*
X023516Y026582D01*
X023474Y026554D01*
X023431Y026530D01*
X023385Y026509D01*
X023338Y026491D01*
X023289Y026478D01*
X023240Y026468D01*
X023190Y026462D01*
X023140Y026460D01*
X023090Y026462D01*
X023040Y026468D01*
X022991Y026478D01*
X022942Y026491D01*
X022895Y026509D01*
X022849Y026530D01*
X022806Y026554D01*
X022764Y026582D01*
X022724Y026613D01*
X022687Y026647D01*
X022653Y026684D01*
X022622Y026724D01*
X022594Y026766D01*
X022570Y026809D01*
X022549Y026855D01*
X022531Y026902D01*
X022518Y026951D01*
X022508Y027000D01*
X022502Y027050D01*
X022500Y027100D01*
X022500Y023100D02*
X022502Y023150D01*
X022508Y023200D01*
X022518Y023249D01*
X022531Y023298D01*
X022549Y023345D01*
X022570Y023391D01*
X022594Y023434D01*
X022622Y023476D01*
X022653Y023516D01*
X022687Y023553D01*
X022724Y023587D01*
X022764Y023618D01*
X022806Y023646D01*
X022849Y023670D01*
X022895Y023691D01*
X022942Y023709D01*
X022991Y023722D01*
X023040Y023732D01*
X023090Y023738D01*
X023140Y023740D01*
X023190Y023738D01*
X023240Y023732D01*
X023289Y023722D01*
X023338Y023709D01*
X023385Y023691D01*
X023431Y023670D01*
X023474Y023646D01*
X023516Y023618D01*
X023556Y023587D01*
X023593Y023553D01*
X023627Y023516D01*
X023658Y023476D01*
X023686Y023434D01*
X023710Y023391D01*
X023731Y023345D01*
X023749Y023298D01*
X023762Y023249D01*
X023772Y023200D01*
X023778Y023150D01*
X023780Y023100D01*
X023778Y023050D01*
X023772Y023000D01*
X023762Y022951D01*
X023749Y022902D01*
X023731Y022855D01*
X023710Y022809D01*
X023686Y022766D01*
X023658Y022724D01*
X023627Y022684D01*
X023593Y022647D01*
X023556Y022613D01*
X023516Y022582D01*
X023474Y022554D01*
X023431Y022530D01*
X023385Y022509D01*
X023338Y022491D01*
X023289Y022478D01*
X023240Y022468D01*
X023190Y022462D01*
X023140Y022460D01*
X023090Y022462D01*
X023040Y022468D01*
X022991Y022478D01*
X022942Y022491D01*
X022895Y022509D01*
X022849Y022530D01*
X022806Y022554D01*
X022764Y022582D01*
X022724Y022613D01*
X022687Y022647D01*
X022653Y022684D01*
X022622Y022724D01*
X022594Y022766D01*
X022570Y022809D01*
X022549Y022855D01*
X022531Y022902D01*
X022518Y022951D01*
X022508Y023000D01*
X022502Y023050D01*
X022500Y023100D01*
X021710Y036700D02*
X021712Y036750D01*
X021718Y036800D01*
X021728Y036849D01*
X021742Y036897D01*
X021759Y036944D01*
X021780Y036989D01*
X021805Y037033D01*
X021833Y037074D01*
X021865Y037113D01*
X021899Y037150D01*
X021936Y037184D01*
X021976Y037214D01*
X022018Y037241D01*
X022062Y037265D01*
X022108Y037286D01*
X022155Y037302D01*
X022203Y037315D01*
X022253Y037324D01*
X022302Y037329D01*
X022353Y037330D01*
X022403Y037327D01*
X022452Y037320D01*
X022501Y037309D01*
X022549Y037294D01*
X022595Y037276D01*
X022640Y037254D01*
X022683Y037228D01*
X022724Y037199D01*
X022763Y037167D01*
X022799Y037132D01*
X022831Y037094D01*
X022861Y037054D01*
X022888Y037011D01*
X022911Y036967D01*
X022930Y036921D01*
X022946Y036873D01*
X022958Y036824D01*
X022966Y036775D01*
X022970Y036725D01*
X022970Y036675D01*
X022966Y036625D01*
X022958Y036576D01*
X022946Y036527D01*
X022930Y036479D01*
X022911Y036433D01*
X022888Y036389D01*
X022861Y036346D01*
X022831Y036306D01*
X022799Y036268D01*
X022763Y036233D01*
X022724Y036201D01*
X022683Y036172D01*
X022640Y036146D01*
X022595Y036124D01*
X022549Y036106D01*
X022501Y036091D01*
X022452Y036080D01*
X022403Y036073D01*
X022353Y036070D01*
X022302Y036071D01*
X022253Y036076D01*
X022203Y036085D01*
X022155Y036098D01*
X022108Y036114D01*
X022062Y036135D01*
X022018Y036159D01*
X021976Y036186D01*
X021936Y036216D01*
X021899Y036250D01*
X021865Y036287D01*
X021833Y036326D01*
X021805Y036367D01*
X021780Y036411D01*
X021759Y036456D01*
X021742Y036503D01*
X021728Y036551D01*
X021718Y036600D01*
X021712Y036650D01*
X021710Y036700D01*
X018510Y036700D02*
X018512Y036750D01*
X018518Y036800D01*
X018528Y036849D01*
X018542Y036897D01*
X018559Y036944D01*
X018580Y036989D01*
X018605Y037033D01*
X018633Y037074D01*
X018665Y037113D01*
X018699Y037150D01*
X018736Y037184D01*
X018776Y037214D01*
X018818Y037241D01*
X018862Y037265D01*
X018908Y037286D01*
X018955Y037302D01*
X019003Y037315D01*
X019053Y037324D01*
X019102Y037329D01*
X019153Y037330D01*
X019203Y037327D01*
X019252Y037320D01*
X019301Y037309D01*
X019349Y037294D01*
X019395Y037276D01*
X019440Y037254D01*
X019483Y037228D01*
X019524Y037199D01*
X019563Y037167D01*
X019599Y037132D01*
X019631Y037094D01*
X019661Y037054D01*
X019688Y037011D01*
X019711Y036967D01*
X019730Y036921D01*
X019746Y036873D01*
X019758Y036824D01*
X019766Y036775D01*
X019770Y036725D01*
X019770Y036675D01*
X019766Y036625D01*
X019758Y036576D01*
X019746Y036527D01*
X019730Y036479D01*
X019711Y036433D01*
X019688Y036389D01*
X019661Y036346D01*
X019631Y036306D01*
X019599Y036268D01*
X019563Y036233D01*
X019524Y036201D01*
X019483Y036172D01*
X019440Y036146D01*
X019395Y036124D01*
X019349Y036106D01*
X019301Y036091D01*
X019252Y036080D01*
X019203Y036073D01*
X019153Y036070D01*
X019102Y036071D01*
X019053Y036076D01*
X019003Y036085D01*
X018955Y036098D01*
X018908Y036114D01*
X018862Y036135D01*
X018818Y036159D01*
X018776Y036186D01*
X018736Y036216D01*
X018699Y036250D01*
X018665Y036287D01*
X018633Y036326D01*
X018605Y036367D01*
X018580Y036411D01*
X018559Y036456D01*
X018542Y036503D01*
X018528Y036551D01*
X018518Y036600D01*
X018512Y036650D01*
X018510Y036700D01*
X002700Y027100D02*
X002702Y027150D01*
X002708Y027200D01*
X002718Y027249D01*
X002731Y027298D01*
X002749Y027345D01*
X002770Y027391D01*
X002794Y027434D01*
X002822Y027476D01*
X002853Y027516D01*
X002887Y027553D01*
X002924Y027587D01*
X002964Y027618D01*
X003006Y027646D01*
X003049Y027670D01*
X003095Y027691D01*
X003142Y027709D01*
X003191Y027722D01*
X003240Y027732D01*
X003290Y027738D01*
X003340Y027740D01*
X003390Y027738D01*
X003440Y027732D01*
X003489Y027722D01*
X003538Y027709D01*
X003585Y027691D01*
X003631Y027670D01*
X003674Y027646D01*
X003716Y027618D01*
X003756Y027587D01*
X003793Y027553D01*
X003827Y027516D01*
X003858Y027476D01*
X003886Y027434D01*
X003910Y027391D01*
X003931Y027345D01*
X003949Y027298D01*
X003962Y027249D01*
X003972Y027200D01*
X003978Y027150D01*
X003980Y027100D01*
X003978Y027050D01*
X003972Y027000D01*
X003962Y026951D01*
X003949Y026902D01*
X003931Y026855D01*
X003910Y026809D01*
X003886Y026766D01*
X003858Y026724D01*
X003827Y026684D01*
X003793Y026647D01*
X003756Y026613D01*
X003716Y026582D01*
X003674Y026554D01*
X003631Y026530D01*
X003585Y026509D01*
X003538Y026491D01*
X003489Y026478D01*
X003440Y026468D01*
X003390Y026462D01*
X003340Y026460D01*
X003290Y026462D01*
X003240Y026468D01*
X003191Y026478D01*
X003142Y026491D01*
X003095Y026509D01*
X003049Y026530D01*
X003006Y026554D01*
X002964Y026582D01*
X002924Y026613D01*
X002887Y026647D01*
X002853Y026684D01*
X002822Y026724D01*
X002794Y026766D01*
X002770Y026809D01*
X002749Y026855D01*
X002731Y026902D01*
X002718Y026951D01*
X002708Y027000D01*
X002702Y027050D01*
X002700Y027100D01*
X002700Y023100D02*
X002702Y023150D01*
X002708Y023200D01*
X002718Y023249D01*
X002731Y023298D01*
X002749Y023345D01*
X002770Y023391D01*
X002794Y023434D01*
X002822Y023476D01*
X002853Y023516D01*
X002887Y023553D01*
X002924Y023587D01*
X002964Y023618D01*
X003006Y023646D01*
X003049Y023670D01*
X003095Y023691D01*
X003142Y023709D01*
X003191Y023722D01*
X003240Y023732D01*
X003290Y023738D01*
X003340Y023740D01*
X003390Y023738D01*
X003440Y023732D01*
X003489Y023722D01*
X003538Y023709D01*
X003585Y023691D01*
X003631Y023670D01*
X003674Y023646D01*
X003716Y023618D01*
X003756Y023587D01*
X003793Y023553D01*
X003827Y023516D01*
X003858Y023476D01*
X003886Y023434D01*
X003910Y023391D01*
X003931Y023345D01*
X003949Y023298D01*
X003962Y023249D01*
X003972Y023200D01*
X003978Y023150D01*
X003980Y023100D01*
X003978Y023050D01*
X003972Y023000D01*
X003962Y022951D01*
X003949Y022902D01*
X003931Y022855D01*
X003910Y022809D01*
X003886Y022766D01*
X003858Y022724D01*
X003827Y022684D01*
X003793Y022647D01*
X003756Y022613D01*
X003716Y022582D01*
X003674Y022554D01*
X003631Y022530D01*
X003585Y022509D01*
X003538Y022491D01*
X003489Y022478D01*
X003440Y022468D01*
X003390Y022462D01*
X003340Y022460D01*
X003290Y022462D01*
X003240Y022468D01*
X003191Y022478D01*
X003142Y022491D01*
X003095Y022509D01*
X003049Y022530D01*
X003006Y022554D01*
X002964Y022582D01*
X002924Y022613D01*
X002887Y022647D01*
X002853Y022684D01*
X002822Y022724D01*
X002794Y022766D01*
X002770Y022809D01*
X002749Y022855D01*
X002731Y022902D01*
X002718Y022951D01*
X002708Y023000D01*
X002702Y023050D01*
X002700Y023100D01*
X001910Y036700D02*
X001912Y036750D01*
X001918Y036800D01*
X001928Y036849D01*
X001942Y036897D01*
X001959Y036944D01*
X001980Y036989D01*
X002005Y037033D01*
X002033Y037074D01*
X002065Y037113D01*
X002099Y037150D01*
X002136Y037184D01*
X002176Y037214D01*
X002218Y037241D01*
X002262Y037265D01*
X002308Y037286D01*
X002355Y037302D01*
X002403Y037315D01*
X002453Y037324D01*
X002502Y037329D01*
X002553Y037330D01*
X002603Y037327D01*
X002652Y037320D01*
X002701Y037309D01*
X002749Y037294D01*
X002795Y037276D01*
X002840Y037254D01*
X002883Y037228D01*
X002924Y037199D01*
X002963Y037167D01*
X002999Y037132D01*
X003031Y037094D01*
X003061Y037054D01*
X003088Y037011D01*
X003111Y036967D01*
X003130Y036921D01*
X003146Y036873D01*
X003158Y036824D01*
X003166Y036775D01*
X003170Y036725D01*
X003170Y036675D01*
X003166Y036625D01*
X003158Y036576D01*
X003146Y036527D01*
X003130Y036479D01*
X003111Y036433D01*
X003088Y036389D01*
X003061Y036346D01*
X003031Y036306D01*
X002999Y036268D01*
X002963Y036233D01*
X002924Y036201D01*
X002883Y036172D01*
X002840Y036146D01*
X002795Y036124D01*
X002749Y036106D01*
X002701Y036091D01*
X002652Y036080D01*
X002603Y036073D01*
X002553Y036070D01*
X002502Y036071D01*
X002453Y036076D01*
X002403Y036085D01*
X002355Y036098D01*
X002308Y036114D01*
X002262Y036135D01*
X002218Y036159D01*
X002176Y036186D01*
X002136Y036216D01*
X002099Y036250D01*
X002065Y036287D01*
X002033Y036326D01*
X002005Y036367D01*
X001980Y036411D01*
X001959Y036456D01*
X001942Y036503D01*
X001928Y036551D01*
X001918Y036600D01*
X001912Y036650D01*
X001910Y036700D01*
X038310Y036700D02*
X038312Y036750D01*
X038318Y036800D01*
X038328Y036849D01*
X038342Y036897D01*
X038359Y036944D01*
X038380Y036989D01*
X038405Y037033D01*
X038433Y037074D01*
X038465Y037113D01*
X038499Y037150D01*
X038536Y037184D01*
X038576Y037214D01*
X038618Y037241D01*
X038662Y037265D01*
X038708Y037286D01*
X038755Y037302D01*
X038803Y037315D01*
X038853Y037324D01*
X038902Y037329D01*
X038953Y037330D01*
X039003Y037327D01*
X039052Y037320D01*
X039101Y037309D01*
X039149Y037294D01*
X039195Y037276D01*
X039240Y037254D01*
X039283Y037228D01*
X039324Y037199D01*
X039363Y037167D01*
X039399Y037132D01*
X039431Y037094D01*
X039461Y037054D01*
X039488Y037011D01*
X039511Y036967D01*
X039530Y036921D01*
X039546Y036873D01*
X039558Y036824D01*
X039566Y036775D01*
X039570Y036725D01*
X039570Y036675D01*
X039566Y036625D01*
X039558Y036576D01*
X039546Y036527D01*
X039530Y036479D01*
X039511Y036433D01*
X039488Y036389D01*
X039461Y036346D01*
X039431Y036306D01*
X039399Y036268D01*
X039363Y036233D01*
X039324Y036201D01*
X039283Y036172D01*
X039240Y036146D01*
X039195Y036124D01*
X039149Y036106D01*
X039101Y036091D01*
X039052Y036080D01*
X039003Y036073D01*
X038953Y036070D01*
X038902Y036071D01*
X038853Y036076D01*
X038803Y036085D01*
X038755Y036098D01*
X038708Y036114D01*
X038662Y036135D01*
X038618Y036159D01*
X038576Y036186D01*
X038536Y036216D01*
X038499Y036250D01*
X038465Y036287D01*
X038433Y036326D01*
X038405Y036367D01*
X038380Y036411D01*
X038359Y036456D01*
X038342Y036503D01*
X038328Y036551D01*
X038318Y036600D01*
X038312Y036650D01*
X038310Y036700D01*
X038310Y003000D02*
X038312Y003050D01*
X038318Y003100D01*
X038328Y003149D01*
X038342Y003197D01*
X038359Y003244D01*
X038380Y003289D01*
X038405Y003333D01*
X038433Y003374D01*
X038465Y003413D01*
X038499Y003450D01*
X038536Y003484D01*
X038576Y003514D01*
X038618Y003541D01*
X038662Y003565D01*
X038708Y003586D01*
X038755Y003602D01*
X038803Y003615D01*
X038853Y003624D01*
X038902Y003629D01*
X038953Y003630D01*
X039003Y003627D01*
X039052Y003620D01*
X039101Y003609D01*
X039149Y003594D01*
X039195Y003576D01*
X039240Y003554D01*
X039283Y003528D01*
X039324Y003499D01*
X039363Y003467D01*
X039399Y003432D01*
X039431Y003394D01*
X039461Y003354D01*
X039488Y003311D01*
X039511Y003267D01*
X039530Y003221D01*
X039546Y003173D01*
X039558Y003124D01*
X039566Y003075D01*
X039570Y003025D01*
X039570Y002975D01*
X039566Y002925D01*
X039558Y002876D01*
X039546Y002827D01*
X039530Y002779D01*
X039511Y002733D01*
X039488Y002689D01*
X039461Y002646D01*
X039431Y002606D01*
X039399Y002568D01*
X039363Y002533D01*
X039324Y002501D01*
X039283Y002472D01*
X039240Y002446D01*
X039195Y002424D01*
X039149Y002406D01*
X039101Y002391D01*
X039052Y002380D01*
X039003Y002373D01*
X038953Y002370D01*
X038902Y002371D01*
X038853Y002376D01*
X038803Y002385D01*
X038755Y002398D01*
X038708Y002414D01*
X038662Y002435D01*
X038618Y002459D01*
X038576Y002486D01*
X038536Y002516D01*
X038499Y002550D01*
X038465Y002587D01*
X038433Y002626D01*
X038405Y002667D01*
X038380Y002711D01*
X038359Y002756D01*
X038342Y002803D01*
X038328Y002851D01*
X038318Y002900D01*
X038312Y002950D01*
X038310Y003000D01*
D11*
X037629Y002194D02*
X033220Y002194D01*
X033220Y004754D01*
X037629Y004754D01*
X037629Y002194D01*
X037629Y001801D01*
X033220Y001801D01*
X033220Y002194D01*
X032969Y002559D02*
X032548Y002559D01*
X032548Y002769D01*
X032618Y002839D01*
X032758Y002839D01*
X032828Y002769D01*
X032828Y002559D01*
X032828Y002699D02*
X032969Y002839D01*
X032969Y003019D02*
X032969Y003159D01*
X032969Y003089D02*
X032548Y003089D01*
X032548Y003019D02*
X032548Y003159D01*
X032548Y003326D02*
X032969Y003606D01*
X032548Y003606D01*
X032548Y003326D02*
X032969Y003326D01*
X031689Y004790D02*
X039791Y004790D01*
X039820Y004792D01*
X039848Y004797D01*
X039876Y004806D01*
X039903Y004817D01*
X039927Y004832D01*
X039950Y004850D01*
X039971Y004871D01*
X039989Y004894D01*
X040004Y004918D01*
X040015Y004945D01*
X040024Y004973D01*
X040029Y005001D01*
X040031Y005030D01*
X040031Y010770D01*
X040029Y010799D01*
X040024Y010827D01*
X040015Y010855D01*
X040004Y010882D01*
X039989Y010906D01*
X039971Y010929D01*
X039950Y010950D01*
X039927Y010968D01*
X039903Y010983D01*
X039876Y010994D01*
X039848Y011003D01*
X039820Y011008D01*
X039791Y011010D01*
X031689Y011010D01*
X031689Y011190D02*
X039791Y011190D01*
X039820Y011192D01*
X039848Y011197D01*
X039876Y011206D01*
X039903Y011217D01*
X039927Y011232D01*
X039950Y011250D01*
X039971Y011271D01*
X039989Y011294D01*
X040004Y011318D01*
X040015Y011345D01*
X040024Y011373D01*
X040029Y011401D01*
X040031Y011430D01*
X040031Y017170D01*
X040029Y017199D01*
X040024Y017227D01*
X040015Y017255D01*
X040004Y017282D01*
X039989Y017306D01*
X039971Y017329D01*
X039950Y017350D01*
X039927Y017368D01*
X039903Y017383D01*
X039876Y017394D01*
X039848Y017403D01*
X039820Y017408D01*
X039791Y017410D01*
X031689Y017410D01*
X031660Y017408D01*
X031632Y017403D01*
X031604Y017394D01*
X031577Y017383D01*
X031553Y017368D01*
X031530Y017350D01*
X031509Y017329D01*
X031491Y017306D01*
X031476Y017282D01*
X031465Y017255D01*
X031456Y017227D01*
X031451Y017199D01*
X031449Y017170D01*
X031449Y011430D01*
X031451Y011401D01*
X031456Y011373D01*
X031465Y011345D01*
X031476Y011318D01*
X031491Y011294D01*
X031509Y011271D01*
X031530Y011250D01*
X031553Y011232D01*
X031577Y011217D01*
X031604Y011206D01*
X031632Y011197D01*
X031660Y011192D01*
X031689Y011190D01*
X031689Y011010D02*
X031660Y011008D01*
X031632Y011003D01*
X031604Y010994D01*
X031577Y010983D01*
X031553Y010968D01*
X031530Y010950D01*
X031509Y010929D01*
X031491Y010906D01*
X031476Y010882D01*
X031465Y010855D01*
X031456Y010827D01*
X031451Y010799D01*
X031449Y010770D01*
X031449Y005030D01*
X031451Y005001D01*
X031456Y004973D01*
X031465Y004945D01*
X031476Y004918D01*
X031491Y004894D01*
X031509Y004871D01*
X031530Y004850D01*
X031553Y004832D01*
X031577Y004817D01*
X031604Y004806D01*
X031632Y004797D01*
X031660Y004792D01*
X031689Y004790D01*
X031200Y006340D02*
X030780Y006340D01*
X030780Y006550D01*
X030850Y006620D01*
X030990Y006620D01*
X031060Y006550D01*
X031060Y006340D01*
X031060Y006480D02*
X031200Y006620D01*
X031200Y006800D02*
X031200Y007081D01*
X031200Y007261D02*
X030780Y007261D01*
X030780Y007081D02*
X030780Y006800D01*
X031200Y006800D01*
X030990Y006800D02*
X030990Y006941D01*
X031200Y007261D02*
X031200Y007541D01*
X031200Y007721D02*
X030920Y007721D01*
X030780Y007861D01*
X030920Y008001D01*
X031200Y008001D01*
X030990Y008001D02*
X030990Y007721D01*
X030850Y008182D02*
X030990Y008322D01*
X031200Y008322D01*
X030990Y008322D02*
X030850Y008462D01*
X030780Y008462D01*
X030780Y008182D02*
X030850Y008182D01*
X031270Y008642D02*
X031270Y008922D01*
X031200Y009102D02*
X030780Y009102D01*
X031200Y009383D01*
X030780Y009383D01*
X030850Y009563D02*
X031130Y009563D01*
X031200Y009633D01*
X031200Y009773D01*
X031130Y009843D01*
X030850Y009843D01*
X030780Y009773D01*
X030780Y009633D01*
X030850Y009563D01*
X030090Y011490D02*
X029950Y011630D01*
X030020Y011630D02*
X029810Y011630D01*
X029810Y011490D02*
X029810Y011910D01*
X030020Y011910D01*
X030090Y011840D01*
X030090Y011700D01*
X030020Y011630D01*
X029630Y011490D02*
X029630Y011910D01*
X029350Y011910D02*
X029350Y011490D01*
X029490Y011630D01*
X029630Y011490D01*
X029170Y011700D02*
X029170Y011840D01*
X029100Y011910D01*
X028889Y011910D01*
X028889Y011490D01*
X028889Y011630D02*
X029100Y011630D01*
X029170Y011700D01*
X030780Y012740D02*
X030780Y012950D01*
X030850Y013020D01*
X030990Y013020D01*
X031060Y012950D01*
X031060Y012740D01*
X031200Y012740D02*
X030780Y012740D01*
X031060Y012880D02*
X031200Y013020D01*
X031200Y013200D02*
X031200Y013481D01*
X031200Y013661D02*
X031200Y013941D01*
X031200Y014121D02*
X030920Y014121D01*
X030780Y014261D01*
X030920Y014401D01*
X031200Y014401D01*
X030990Y014401D02*
X030990Y014121D01*
X030850Y014582D02*
X030990Y014722D01*
X031200Y014722D01*
X030990Y014722D02*
X030850Y014862D01*
X030780Y014862D01*
X030780Y014582D02*
X030850Y014582D01*
X031270Y015042D02*
X031270Y015322D01*
X031200Y015502D02*
X030780Y015502D01*
X031200Y015783D01*
X030780Y015783D01*
X030850Y015963D02*
X031130Y015963D01*
X031200Y016033D01*
X031200Y016173D01*
X031130Y016243D01*
X030850Y016243D02*
X030780Y016173D01*
X030780Y016033D01*
X030850Y015963D01*
X028900Y017320D02*
X028620Y017320D01*
X028760Y017320D02*
X028760Y017740D01*
X028620Y017600D01*
X028439Y017670D02*
X028439Y017390D01*
X028369Y017320D01*
X028229Y017320D01*
X028159Y017390D01*
X028159Y017670D01*
X028229Y017740D01*
X028369Y017740D01*
X028439Y017670D01*
X028299Y017460D02*
X028439Y017320D01*
X027002Y016560D02*
X027002Y016490D01*
X026862Y016350D01*
X026862Y016140D01*
X026862Y016350D02*
X026722Y016490D01*
X026722Y016560D01*
X026541Y016140D02*
X026261Y016140D01*
X026261Y016560D01*
X026081Y016490D02*
X026081Y016350D01*
X026011Y016280D01*
X025801Y016280D01*
X025801Y016140D02*
X025801Y016560D01*
X026011Y016560D01*
X026081Y016490D01*
X025621Y016490D02*
X025621Y016350D01*
X025551Y016280D01*
X025340Y016280D01*
X025340Y016140D02*
X025340Y016560D01*
X025551Y016560D01*
X025621Y016490D01*
X025160Y016560D02*
X025160Y016210D01*
X025090Y016140D01*
X024950Y016140D01*
X024880Y016210D01*
X024880Y016560D01*
X024700Y016490D02*
X024630Y016560D01*
X024490Y016560D01*
X024420Y016490D01*
X024420Y016420D01*
X024490Y016350D01*
X024630Y016350D01*
X024700Y016280D01*
X024700Y016210D01*
X024630Y016140D01*
X024490Y016140D01*
X024420Y016210D01*
X024239Y016070D02*
X023959Y016070D01*
X023779Y016140D02*
X023639Y016280D01*
X023709Y016280D02*
X023499Y016280D01*
X023499Y016140D02*
X023499Y016560D01*
X023709Y016560D01*
X023779Y016490D01*
X023779Y016350D01*
X023709Y016280D01*
X023319Y016140D02*
X023319Y016560D01*
X023038Y016560D02*
X023038Y016140D01*
X023179Y016280D01*
X023319Y016140D01*
X022858Y016350D02*
X022788Y016280D01*
X022578Y016280D01*
X022578Y016140D02*
X022578Y016560D01*
X022788Y016560D01*
X022858Y016490D01*
X022858Y016350D01*
X021634Y016911D02*
X021634Y021320D01*
X024194Y021320D01*
X024194Y016911D01*
X021634Y016911D01*
X021241Y016911D01*
X021241Y021320D01*
X021634Y021320D01*
X021090Y022400D02*
X021090Y027800D01*
X027240Y027800D01*
X027240Y022400D01*
X021090Y022400D01*
X020239Y022289D02*
X020239Y017880D01*
X019846Y017880D01*
X019846Y022289D01*
X020239Y022289D01*
X020239Y022680D02*
X019846Y022680D01*
X019846Y027089D01*
X020239Y027089D01*
X020239Y022680D01*
X019846Y022680D02*
X017286Y022680D01*
X017286Y027089D01*
X019846Y027089D01*
X019071Y028140D02*
X018931Y028140D01*
X018861Y028210D01*
X018861Y028490D01*
X018931Y028560D01*
X019071Y028560D01*
X019141Y028490D01*
X019141Y028350D02*
X019001Y028350D01*
X019141Y028350D02*
X019141Y028210D01*
X019071Y028140D01*
X018681Y028210D02*
X018681Y028490D01*
X018611Y028560D01*
X018471Y028560D01*
X018401Y028490D01*
X018401Y028210D01*
X018471Y028140D01*
X018611Y028140D01*
X018681Y028210D01*
X018221Y028140D02*
X018081Y028280D01*
X018151Y028280D02*
X017940Y028280D01*
X017940Y028140D02*
X017940Y028560D01*
X018151Y028560D01*
X018221Y028490D01*
X018221Y028350D01*
X018151Y028280D01*
X017760Y028350D02*
X017690Y028280D01*
X017480Y028280D01*
X017480Y028140D02*
X017480Y028560D01*
X017690Y028560D01*
X017760Y028490D01*
X017760Y028350D01*
X017390Y028700D02*
X019090Y028700D01*
X019440Y029500D02*
X019440Y030293D01*
X019090Y031100D02*
X017390Y031100D01*
X017400Y031290D02*
X016980Y031290D01*
X016980Y031500D01*
X017050Y031570D01*
X017190Y031570D01*
X017260Y031500D01*
X017260Y031290D01*
X017260Y031430D02*
X017400Y031570D01*
X017330Y031750D02*
X017400Y031820D01*
X017400Y031961D01*
X017330Y032031D01*
X017190Y032031D01*
X017120Y031961D01*
X017120Y031891D01*
X017190Y031750D01*
X016980Y031750D01*
X016980Y032031D01*
X016780Y032840D02*
X016780Y032980D01*
X016780Y032910D02*
X017200Y032910D01*
X017200Y032840D02*
X017200Y032980D01*
X017130Y033147D02*
X017200Y033217D01*
X017200Y033357D01*
X017130Y033427D01*
X017060Y033427D01*
X016990Y033357D01*
X016990Y033217D01*
X016920Y033147D01*
X016850Y033147D01*
X016780Y033217D01*
X016780Y033357D01*
X016850Y033427D01*
X016780Y033607D02*
X016780Y033818D01*
X016850Y033888D01*
X016990Y033888D01*
X017060Y033818D01*
X017060Y033607D01*
X017200Y033607D02*
X016780Y033607D01*
X017040Y030305D02*
X017040Y029500D01*
X016331Y028460D02*
X016331Y028040D01*
X016471Y028040D02*
X016190Y028040D01*
X016010Y028040D02*
X015870Y028180D01*
X015940Y028180D02*
X015730Y028180D01*
X015730Y028040D02*
X015730Y028460D01*
X015940Y028460D01*
X016010Y028390D01*
X016010Y028250D01*
X015940Y028180D01*
X016190Y028320D02*
X016331Y028460D01*
X016220Y027060D02*
X016080Y027060D01*
X016010Y026990D01*
X015830Y027060D02*
X015830Y026780D01*
X015690Y026640D01*
X015550Y026780D01*
X015550Y027060D01*
X015370Y026990D02*
X015370Y026920D01*
X015300Y026850D01*
X015370Y026780D01*
X015370Y026710D01*
X015300Y026640D01*
X015159Y026640D01*
X015089Y026710D01*
X015230Y026850D02*
X015300Y026850D01*
X015370Y026990D02*
X015300Y027060D01*
X015159Y027060D01*
X015089Y026990D01*
X016010Y026710D02*
X016080Y026640D01*
X016220Y026640D01*
X016290Y026710D01*
X016290Y026780D01*
X016220Y026850D01*
X016150Y026850D01*
X016220Y026850D02*
X016290Y026920D01*
X016290Y026990D01*
X016220Y027060D01*
X016648Y025941D02*
X017069Y025941D01*
X017069Y026081D02*
X017069Y025800D01*
X016788Y025800D02*
X016648Y025941D01*
X016648Y025620D02*
X016648Y025340D01*
X016648Y025480D02*
X017069Y025480D01*
X016998Y025160D02*
X016648Y025160D01*
X016648Y024880D02*
X016998Y024880D01*
X017069Y024950D01*
X017069Y025090D01*
X016998Y025160D01*
X016998Y024700D02*
X016718Y024700D01*
X016648Y024629D01*
X016648Y024489D01*
X016718Y024419D01*
X016998Y024419D01*
X017069Y024489D01*
X017069Y024629D01*
X016998Y024700D01*
X017069Y024239D02*
X016928Y024099D01*
X016928Y024169D02*
X016928Y023959D01*
X017069Y023959D02*
X016648Y023959D01*
X016648Y024169D01*
X016718Y024239D01*
X016858Y024239D01*
X016928Y024169D01*
X016444Y023160D02*
X016444Y022740D01*
X016444Y022950D02*
X016164Y022950D01*
X015984Y022950D02*
X015843Y022950D01*
X015984Y022950D02*
X015984Y022810D01*
X015913Y022740D01*
X015773Y022740D01*
X015703Y022810D01*
X015703Y023090D01*
X015773Y023160D01*
X015913Y023160D01*
X015984Y023090D01*
X016164Y023160D02*
X016164Y022740D01*
X015536Y022740D02*
X015396Y022740D01*
X015466Y022740D02*
X015466Y023160D01*
X015396Y023160D02*
X015536Y023160D01*
X015216Y023160D02*
X015216Y022740D01*
X015216Y022950D02*
X014936Y022950D01*
X014936Y022740D02*
X014936Y023160D01*
X014980Y023710D02*
X014980Y023850D01*
X014980Y023780D02*
X014560Y023780D01*
X014560Y023710D02*
X014560Y023850D01*
X014630Y024017D02*
X014700Y024017D01*
X014770Y024087D01*
X014770Y024227D01*
X014840Y024297D01*
X014910Y024297D01*
X014980Y024227D01*
X014980Y024087D01*
X014910Y024017D01*
X014630Y024017D02*
X014560Y024087D01*
X014560Y024227D01*
X014630Y024297D01*
X014560Y024477D02*
X014560Y024688D01*
X014630Y024758D01*
X014770Y024758D01*
X014840Y024688D01*
X014840Y024477D01*
X014980Y024477D02*
X014560Y024477D01*
X014560Y024938D02*
X014560Y025148D01*
X014630Y025218D01*
X014770Y025218D01*
X014840Y025148D01*
X014840Y024938D01*
X014980Y024938D02*
X014560Y024938D01*
X014560Y025398D02*
X014980Y025398D01*
X014840Y025538D01*
X014980Y025678D01*
X014560Y025678D01*
X014560Y025858D02*
X014560Y026069D01*
X014630Y026139D01*
X014770Y026139D01*
X014840Y026069D01*
X014840Y025858D01*
X014980Y025858D02*
X014560Y025858D01*
X014840Y025999D02*
X014980Y026139D01*
X013310Y027742D02*
X013310Y027812D01*
X013240Y027882D01*
X013030Y027882D01*
X013030Y027742D01*
X013100Y027671D01*
X013240Y027671D01*
X013310Y027742D01*
X013310Y027812D01*
X013240Y027882D01*
X013030Y027882D01*
X013170Y028022D01*
X013310Y028092D01*
X013170Y028022D01*
X013030Y027882D01*
X013030Y027742D01*
X013100Y027671D01*
X013240Y027671D01*
X013310Y027742D01*
X012850Y027742D02*
X012780Y027671D01*
X012639Y027671D01*
X012569Y027742D01*
X012639Y027671D01*
X012780Y027671D01*
X012850Y027742D01*
X012850Y027812D01*
X012780Y027882D01*
X012569Y027882D01*
X012569Y027742D01*
X012569Y027882D01*
X012709Y028022D01*
X012850Y028092D01*
X012709Y028022D01*
X012569Y027882D01*
X012780Y027882D01*
X012850Y027812D01*
X012850Y027742D01*
X012389Y027671D02*
X012109Y027671D01*
X012389Y027952D01*
X012389Y028022D01*
X012319Y028092D01*
X012179Y028092D01*
X012109Y028022D01*
X012179Y028092D01*
X012319Y028092D01*
X012389Y028022D01*
X012389Y027952D01*
X012109Y027671D01*
X012389Y027671D01*
X011929Y027742D02*
X011859Y027671D01*
X011719Y027671D01*
X011649Y027742D01*
X011649Y027812D01*
X011719Y027882D01*
X011859Y027882D01*
X011929Y027812D01*
X011929Y027742D01*
X011859Y027671D01*
X011719Y027671D01*
X011649Y027742D01*
X011649Y027812D01*
X011719Y027882D01*
X011649Y027952D01*
X011649Y028022D01*
X011649Y027952D01*
X011719Y027882D01*
X011859Y027882D01*
X011929Y027952D01*
X011929Y028022D01*
X011859Y028092D01*
X011929Y028022D01*
X011929Y027952D01*
X011859Y027882D01*
X011929Y027812D01*
X011929Y027742D01*
X011859Y028092D02*
X011719Y028092D01*
X011649Y028022D01*
X011719Y028092D01*
X011859Y028092D01*
X011468Y028022D02*
X011468Y027882D01*
X011398Y027812D01*
X011188Y027812D01*
X011398Y027812D01*
X011468Y027882D01*
X011468Y028022D01*
X011398Y028092D01*
X011188Y028092D01*
X011188Y027671D01*
X011188Y028092D01*
X011398Y028092D01*
X011468Y028022D01*
X011008Y028022D02*
X010938Y028092D01*
X010798Y028092D01*
X010728Y028022D01*
X010728Y027952D01*
X010798Y027882D01*
X010938Y027882D01*
X011008Y027812D01*
X011008Y027742D01*
X010938Y027671D01*
X010798Y027671D01*
X010728Y027742D01*
X010798Y027671D01*
X010938Y027671D01*
X011008Y027742D01*
X011008Y027812D01*
X010938Y027882D01*
X010798Y027882D01*
X010728Y027952D01*
X010728Y028022D01*
X010798Y028092D01*
X010938Y028092D01*
X011008Y028022D01*
X010548Y028092D02*
X010267Y028092D01*
X010267Y027671D01*
X010548Y027671D01*
X010267Y027671D01*
X010267Y028092D01*
X010548Y028092D01*
X010408Y027882D02*
X010267Y027882D01*
X010408Y027882D01*
X008000Y027524D02*
X007580Y027524D01*
X007580Y027244D02*
X008000Y027524D01*
X008000Y027244D02*
X007580Y027244D01*
X007580Y027064D02*
X008000Y027064D01*
X007580Y026784D01*
X008000Y026784D01*
X007930Y026603D02*
X007650Y026603D01*
X007580Y026533D01*
X007580Y026393D01*
X007650Y026323D01*
X007930Y026323D01*
X008000Y026393D01*
X008000Y026533D01*
X007930Y026603D01*
X007930Y026143D02*
X008000Y026073D01*
X008000Y025933D01*
X007930Y025863D01*
X007650Y025863D01*
X007580Y025933D01*
X007580Y026073D01*
X007650Y026143D01*
X008070Y025683D02*
X008070Y025402D01*
X008000Y025222D02*
X007860Y025082D01*
X007860Y025152D02*
X007860Y024942D01*
X008000Y024942D02*
X007580Y024942D01*
X007580Y025152D01*
X007650Y025222D01*
X007790Y025222D01*
X007860Y025152D01*
X007930Y024762D02*
X007650Y024762D01*
X007580Y024692D01*
X007580Y024552D01*
X007650Y024482D01*
X007930Y024482D01*
X008000Y024552D01*
X008000Y024692D01*
X007930Y024762D01*
X007930Y024301D02*
X008000Y024231D01*
X008000Y024091D01*
X007930Y024021D01*
X007790Y024091D02*
X007790Y024231D01*
X007860Y024301D01*
X007930Y024301D01*
X007790Y024091D02*
X007720Y024021D01*
X007650Y024021D01*
X007580Y024091D01*
X007580Y024231D01*
X007650Y024301D01*
X007580Y023841D02*
X008000Y023841D01*
X007580Y023561D01*
X008000Y023561D01*
X008000Y023381D02*
X008000Y023100D01*
X007580Y023100D01*
X007580Y023381D01*
X007790Y023241D02*
X007790Y023100D01*
X007860Y022920D02*
X007930Y022920D01*
X008000Y022850D01*
X008000Y022710D01*
X007930Y022640D01*
X007790Y022710D02*
X007790Y022850D01*
X007860Y022920D01*
X007650Y022920D02*
X007580Y022850D01*
X007580Y022710D01*
X007650Y022640D01*
X007720Y022640D01*
X007790Y022710D01*
X007440Y022400D02*
X007440Y027800D01*
X001290Y027800D01*
X001290Y022400D01*
X007440Y022400D01*
X005169Y019569D02*
X004748Y019569D01*
X004748Y019289D02*
X005169Y019569D01*
X005169Y019289D02*
X004748Y019289D01*
X004888Y019109D02*
X004748Y018969D01*
X004888Y018829D01*
X005169Y018829D01*
X004958Y018829D02*
X004958Y019109D01*
X004888Y019109D02*
X005169Y019109D01*
X004748Y018649D02*
X004748Y018368D01*
X005169Y018368D01*
X004958Y018368D02*
X004958Y018508D01*
X006109Y018190D02*
X006109Y017910D01*
X006179Y017840D01*
X006319Y017840D01*
X006389Y017910D01*
X006570Y017840D02*
X006850Y018120D01*
X006850Y018190D01*
X006780Y018260D01*
X006640Y018260D01*
X006570Y018190D01*
X006389Y018190D02*
X006319Y018260D01*
X006179Y018260D01*
X006109Y018190D01*
X006570Y017840D02*
X006850Y017840D01*
X006922Y016560D02*
X006922Y016490D01*
X007062Y016350D01*
X007062Y016140D01*
X007062Y016350D02*
X007202Y016490D01*
X007202Y016560D01*
X006741Y016140D02*
X006461Y016140D01*
X006461Y016560D01*
X006281Y016490D02*
X006281Y016350D01*
X006211Y016280D01*
X006001Y016280D01*
X006001Y016140D02*
X006001Y016560D01*
X006211Y016560D01*
X006281Y016490D01*
X005821Y016490D02*
X005821Y016350D01*
X005751Y016280D01*
X005540Y016280D01*
X005540Y016140D02*
X005540Y016560D01*
X005751Y016560D01*
X005821Y016490D01*
X005360Y016560D02*
X005360Y016210D01*
X005290Y016140D01*
X005150Y016140D01*
X005080Y016210D01*
X005080Y016560D01*
X004900Y016490D02*
X004830Y016560D01*
X004690Y016560D01*
X004620Y016490D01*
X004620Y016420D01*
X004690Y016350D01*
X004830Y016350D01*
X004900Y016280D01*
X004900Y016210D01*
X004830Y016140D01*
X004690Y016140D01*
X004620Y016210D01*
X004439Y016070D02*
X004159Y016070D01*
X003979Y016140D02*
X003839Y016280D01*
X003909Y016280D02*
X003699Y016280D01*
X003699Y016140D02*
X003699Y016560D01*
X003909Y016560D01*
X003979Y016490D01*
X003979Y016350D01*
X003909Y016280D01*
X003519Y016140D02*
X003519Y016560D01*
X003238Y016560D02*
X003238Y016140D01*
X003379Y016280D01*
X003519Y016140D01*
X003058Y016350D02*
X002988Y016280D01*
X002778Y016280D01*
X002778Y016140D02*
X002778Y016560D01*
X002988Y016560D01*
X003058Y016490D01*
X003058Y016350D01*
X001834Y016911D02*
X001834Y021320D01*
X004394Y021320D01*
X004394Y016911D01*
X001834Y016911D01*
X001441Y016911D01*
X001441Y021320D01*
X001834Y021320D01*
X008359Y017670D02*
X008359Y017390D01*
X008429Y017320D01*
X008569Y017320D01*
X008639Y017390D01*
X008639Y017670D01*
X008569Y017740D01*
X008429Y017740D01*
X008359Y017670D01*
X008499Y017460D02*
X008639Y017320D01*
X008820Y017320D02*
X009100Y017320D01*
X008960Y017320D02*
X008960Y017740D01*
X008820Y017600D01*
X010980Y016173D02*
X010980Y016033D01*
X011050Y015963D01*
X011330Y015963D01*
X011400Y016033D01*
X011400Y016173D01*
X011330Y016243D01*
X011050Y016243D02*
X010980Y016173D01*
X010980Y015783D02*
X011400Y015783D01*
X010980Y015502D01*
X011400Y015502D01*
X011470Y015322D02*
X011470Y015042D01*
X011400Y014722D02*
X011190Y014722D01*
X011050Y014862D01*
X010980Y014862D01*
X011190Y014722D02*
X011050Y014582D01*
X010980Y014582D01*
X011120Y014401D02*
X011400Y014401D01*
X011190Y014401D02*
X011190Y014121D01*
X011120Y014121D02*
X010980Y014261D01*
X011120Y014401D01*
X011120Y014121D02*
X011400Y014121D01*
X011400Y013941D02*
X011400Y013661D01*
X010980Y013661D01*
X010980Y013481D02*
X010980Y013200D01*
X011400Y013200D01*
X011400Y013481D01*
X011190Y013341D02*
X011190Y013200D01*
X011190Y013020D02*
X011260Y012950D01*
X011260Y012740D01*
X011400Y012740D02*
X010980Y012740D01*
X010980Y012950D01*
X011050Y013020D01*
X011190Y013020D01*
X011260Y012880D02*
X011400Y013020D01*
X010220Y011910D02*
X010290Y011840D01*
X010290Y011700D01*
X010220Y011630D01*
X010010Y011630D01*
X010010Y011490D02*
X010010Y011910D01*
X010220Y011910D01*
X010150Y011630D02*
X010290Y011490D01*
X009830Y011490D02*
X009830Y011910D01*
X009550Y011910D02*
X009550Y011490D01*
X009690Y011630D01*
X009830Y011490D01*
X009370Y011700D02*
X009370Y011840D01*
X009300Y011910D01*
X009089Y011910D01*
X009089Y011490D01*
X009089Y011630D02*
X009300Y011630D01*
X009370Y011700D01*
X011649Y011430D02*
X011649Y017170D01*
X011651Y017199D01*
X011656Y017227D01*
X011665Y017255D01*
X011676Y017282D01*
X011691Y017306D01*
X011709Y017329D01*
X011730Y017350D01*
X011753Y017368D01*
X011777Y017383D01*
X011804Y017394D01*
X011832Y017403D01*
X011860Y017408D01*
X011889Y017410D01*
X019991Y017410D01*
X020020Y017408D01*
X020048Y017403D01*
X020076Y017394D01*
X020103Y017383D01*
X020127Y017368D01*
X020150Y017350D01*
X020171Y017329D01*
X020189Y017306D01*
X020204Y017282D01*
X020215Y017255D01*
X020224Y017227D01*
X020229Y017199D01*
X020231Y017170D01*
X020231Y011430D01*
X020229Y011401D01*
X020224Y011373D01*
X020215Y011345D01*
X020204Y011318D01*
X020189Y011294D01*
X020171Y011271D01*
X020150Y011250D01*
X020127Y011232D01*
X020103Y011217D01*
X020076Y011206D01*
X020048Y011197D01*
X020020Y011192D01*
X019991Y011190D01*
X011889Y011190D01*
X011889Y011010D02*
X019991Y011010D01*
X020020Y011008D01*
X020048Y011003D01*
X020076Y010994D01*
X020103Y010983D01*
X020127Y010968D01*
X020150Y010950D01*
X020171Y010929D01*
X020189Y010906D01*
X020204Y010882D01*
X020215Y010855D01*
X020224Y010827D01*
X020229Y010799D01*
X020231Y010770D01*
X020231Y005030D01*
X020229Y005001D01*
X020224Y004973D01*
X020215Y004945D01*
X020204Y004918D01*
X020189Y004894D01*
X020171Y004871D01*
X020150Y004850D01*
X020127Y004832D01*
X020103Y004817D01*
X020076Y004806D01*
X020048Y004797D01*
X020020Y004792D01*
X019991Y004790D01*
X011889Y004790D01*
X011860Y004792D01*
X011832Y004797D01*
X011804Y004806D01*
X011777Y004817D01*
X011753Y004832D01*
X011730Y004850D01*
X011709Y004871D01*
X011691Y004894D01*
X011676Y004918D01*
X011665Y004945D01*
X011656Y004973D01*
X011651Y005001D01*
X011649Y005030D01*
X011649Y010770D01*
X011651Y010799D01*
X011656Y010827D01*
X011665Y010855D01*
X011676Y010882D01*
X011691Y010906D01*
X011709Y010929D01*
X011730Y010950D01*
X011753Y010968D01*
X011777Y010983D01*
X011804Y010994D01*
X011832Y011003D01*
X011860Y011008D01*
X011889Y011010D01*
X011889Y011190D02*
X011860Y011192D01*
X011832Y011197D01*
X011804Y011206D01*
X011777Y011217D01*
X011753Y011232D01*
X011730Y011250D01*
X011709Y011271D01*
X011691Y011294D01*
X011676Y011318D01*
X011665Y011345D01*
X011656Y011373D01*
X011651Y011401D01*
X011649Y011430D01*
X011330Y009843D02*
X011050Y009843D01*
X010980Y009773D01*
X010980Y009633D01*
X011050Y009563D01*
X011330Y009563D01*
X011400Y009633D01*
X011400Y009773D01*
X011330Y009843D01*
X011400Y009383D02*
X010980Y009383D01*
X010980Y009102D02*
X011400Y009383D01*
X011400Y009102D02*
X010980Y009102D01*
X011470Y008922D02*
X011470Y008642D01*
X011400Y008322D02*
X011190Y008322D01*
X011050Y008462D01*
X010980Y008462D01*
X011190Y008322D02*
X011050Y008182D01*
X010980Y008182D01*
X011120Y008001D02*
X011400Y008001D01*
X011190Y008001D02*
X011190Y007721D01*
X011120Y007721D02*
X010980Y007861D01*
X011120Y008001D01*
X011120Y007721D02*
X011400Y007721D01*
X011400Y007541D02*
X011400Y007261D01*
X010980Y007261D01*
X010980Y007081D02*
X010980Y006800D01*
X011400Y006800D01*
X011400Y007081D01*
X011190Y006941D02*
X011190Y006800D01*
X011190Y006620D02*
X011260Y006550D01*
X011260Y006340D01*
X011400Y006340D02*
X010980Y006340D01*
X010980Y006550D01*
X011050Y006620D01*
X011190Y006620D01*
X011260Y006480D02*
X011400Y006620D01*
X013420Y004754D02*
X013420Y002194D01*
X017829Y002194D01*
X017829Y001801D01*
X013420Y001801D01*
X013420Y002194D01*
X013169Y002559D02*
X012748Y002559D01*
X012748Y002769D01*
X012818Y002839D01*
X012958Y002839D01*
X013028Y002769D01*
X013028Y002559D01*
X013028Y002699D02*
X013169Y002839D01*
X013169Y003019D02*
X013169Y003159D01*
X013169Y003089D02*
X012748Y003089D01*
X012748Y003019D02*
X012748Y003159D01*
X012748Y003326D02*
X013169Y003606D01*
X012748Y003606D01*
X012748Y003326D02*
X013169Y003326D01*
X013420Y004754D02*
X017829Y004754D01*
X017829Y002194D01*
X021980Y002340D02*
X021980Y002550D01*
X022050Y002620D01*
X022190Y002620D01*
X022260Y002550D01*
X022260Y002340D01*
X022400Y002340D02*
X021980Y002340D01*
X021980Y002800D02*
X022400Y002800D01*
X022260Y002941D01*
X022400Y003081D01*
X021980Y003081D01*
X021980Y003261D02*
X021980Y003471D01*
X022050Y003541D01*
X022190Y003541D01*
X022260Y003471D01*
X022260Y003261D01*
X022260Y003401D02*
X022400Y003541D01*
X022330Y003721D02*
X022400Y003791D01*
X022400Y003861D01*
X022330Y003931D01*
X021980Y003931D01*
X021980Y003861D02*
X021980Y004001D01*
X022120Y004182D02*
X021980Y004322D01*
X022120Y004462D01*
X022400Y004462D01*
X022330Y004642D02*
X022050Y004642D01*
X021980Y004712D01*
X021980Y004852D01*
X022050Y004922D01*
X021980Y005102D02*
X022400Y005102D01*
X022260Y005102D02*
X021980Y005383D01*
X022190Y005172D02*
X022400Y005383D01*
X022568Y005894D02*
X023395Y005894D01*
X022568Y005894D02*
X022568Y001681D01*
X026112Y001681D01*
X026112Y003768D01*
X026112Y005618D02*
X026112Y005894D01*
X025285Y005894D01*
X022400Y004852D02*
X022330Y004922D01*
X022400Y004852D02*
X022400Y004712D01*
X022330Y004642D01*
X022190Y004462D02*
X022190Y004182D01*
X022120Y004182D02*
X022400Y004182D01*
X022400Y003261D02*
X021980Y003261D01*
X030780Y013200D02*
X031200Y013200D01*
X030990Y013200D02*
X030990Y013341D01*
X030780Y013481D02*
X030780Y013200D01*
X030780Y013661D02*
X031200Y013661D01*
X026650Y017840D02*
X026370Y017840D01*
X026650Y018120D01*
X026650Y018190D01*
X026580Y018260D01*
X026440Y018260D01*
X026370Y018190D01*
X026189Y018190D02*
X026119Y018260D01*
X025979Y018260D01*
X025909Y018190D01*
X025909Y017910D01*
X025979Y017840D01*
X026119Y017840D01*
X026189Y017910D01*
X024969Y018368D02*
X024548Y018368D01*
X024548Y018649D01*
X024688Y018829D02*
X024548Y018969D01*
X024688Y019109D01*
X024969Y019109D01*
X024969Y019289D02*
X024548Y019289D01*
X024969Y019569D01*
X024548Y019569D01*
X024758Y019109D02*
X024758Y018829D01*
X024688Y018829D02*
X024969Y018829D01*
X024758Y018508D02*
X024758Y018368D01*
X027450Y022640D02*
X027520Y022640D01*
X027590Y022710D01*
X027590Y022850D01*
X027660Y022920D01*
X027730Y022920D01*
X027800Y022850D01*
X027800Y022710D01*
X027730Y022640D01*
X027450Y022640D02*
X027380Y022710D01*
X027380Y022850D01*
X027450Y022920D01*
X027380Y023100D02*
X027800Y023100D01*
X027800Y023381D01*
X027800Y023561D02*
X027380Y023561D01*
X027800Y023841D01*
X027380Y023841D01*
X027450Y024021D02*
X027520Y024021D01*
X027590Y024091D01*
X027590Y024231D01*
X027660Y024301D01*
X027730Y024301D01*
X027800Y024231D01*
X027800Y024091D01*
X027730Y024021D01*
X027450Y024021D02*
X027380Y024091D01*
X027380Y024231D01*
X027450Y024301D01*
X027450Y024482D02*
X027730Y024482D01*
X027800Y024552D01*
X027800Y024692D01*
X027730Y024762D01*
X027450Y024762D01*
X027380Y024692D01*
X027380Y024552D01*
X027450Y024482D01*
X027380Y024942D02*
X027380Y025152D01*
X027450Y025222D01*
X027590Y025222D01*
X027660Y025152D01*
X027660Y024942D01*
X027800Y024942D02*
X027380Y024942D01*
X027660Y025082D02*
X027800Y025222D01*
X027870Y025402D02*
X027870Y025683D01*
X027730Y025863D02*
X027450Y025863D01*
X027380Y025933D01*
X027380Y026073D01*
X027450Y026143D01*
X027450Y026323D02*
X027730Y026323D01*
X027800Y026393D01*
X027800Y026533D01*
X027730Y026603D01*
X027450Y026603D01*
X027380Y026533D01*
X027380Y026393D01*
X027450Y026323D01*
X027730Y026143D02*
X027800Y026073D01*
X027800Y025933D01*
X027730Y025863D01*
X027800Y026784D02*
X027380Y026784D01*
X027800Y027064D01*
X027380Y027064D01*
X027380Y027244D02*
X027800Y027524D01*
X027380Y027524D01*
X027380Y027244D02*
X027800Y027244D01*
X025500Y028709D02*
X025080Y028709D01*
X025080Y028919D01*
X025150Y028989D01*
X025290Y028989D01*
X025360Y028919D01*
X025360Y028709D01*
X025360Y028849D02*
X025500Y028989D01*
X025500Y029169D02*
X025220Y029449D01*
X025150Y029449D01*
X025080Y029379D01*
X025080Y029239D01*
X025150Y029169D01*
X025500Y029169D02*
X025500Y029449D01*
X025500Y029630D02*
X025220Y029910D01*
X025150Y029910D01*
X025080Y029840D01*
X025080Y029700D01*
X025150Y029630D01*
X025500Y029630D02*
X025500Y029910D01*
X024700Y029840D02*
X024630Y029910D01*
X024560Y029910D01*
X024490Y029840D01*
X024490Y029630D01*
X024630Y029630D01*
X024700Y029700D01*
X024700Y029840D01*
X024490Y029630D02*
X024350Y029770D01*
X024280Y029910D01*
X024280Y029309D02*
X024700Y029309D01*
X024700Y029169D02*
X024700Y029449D01*
X024420Y029169D02*
X024280Y029309D01*
X024350Y028989D02*
X024490Y028989D01*
X024560Y028919D01*
X024560Y028709D01*
X024560Y028849D02*
X024700Y028989D01*
X024700Y028709D02*
X024280Y028709D01*
X024280Y028919D01*
X024350Y028989D01*
X023840Y028850D02*
X023840Y030550D01*
X023040Y030900D02*
X022247Y030900D01*
X022180Y031540D02*
X022180Y031960D01*
X022390Y031960D01*
X022460Y031890D01*
X022460Y031750D01*
X022390Y031680D01*
X022180Y031680D01*
X022320Y031680D02*
X022460Y031540D01*
X022640Y031610D02*
X022710Y031540D01*
X022851Y031540D01*
X022921Y031610D01*
X022921Y031680D01*
X022851Y031750D01*
X022710Y031750D01*
X022640Y031820D01*
X022640Y031890D01*
X022710Y031960D01*
X022851Y031960D01*
X022921Y031890D01*
X023101Y031960D02*
X023381Y031960D01*
X023241Y031960D02*
X023241Y031540D01*
X021440Y030550D02*
X021440Y028850D01*
X022235Y028500D02*
X023040Y028500D01*
X021940Y029700D02*
X021942Y029752D01*
X021948Y029804D01*
X021958Y029856D01*
X021971Y029906D01*
X021988Y029956D01*
X022009Y030004D01*
X022034Y030050D01*
X022062Y030094D01*
X022093Y030136D01*
X022127Y030176D01*
X022164Y030213D01*
X022204Y030247D01*
X022246Y030278D01*
X022290Y030306D01*
X022336Y030331D01*
X022384Y030352D01*
X022434Y030369D01*
X022484Y030382D01*
X022536Y030392D01*
X022588Y030398D01*
X022640Y030400D01*
X022692Y030398D01*
X022744Y030392D01*
X022796Y030382D01*
X022846Y030369D01*
X022896Y030352D01*
X022944Y030331D01*
X022990Y030306D01*
X023034Y030278D01*
X023076Y030247D01*
X023116Y030213D01*
X023153Y030176D01*
X023187Y030136D01*
X023218Y030094D01*
X023246Y030050D01*
X023271Y030004D01*
X023292Y029956D01*
X023309Y029906D01*
X023322Y029856D01*
X023332Y029804D01*
X023338Y029752D01*
X023340Y029700D01*
X023338Y029648D01*
X023332Y029596D01*
X023322Y029544D01*
X023309Y029494D01*
X023292Y029444D01*
X023271Y029396D01*
X023246Y029350D01*
X023218Y029306D01*
X023187Y029264D01*
X023153Y029224D01*
X023116Y029187D01*
X023076Y029153D01*
X023034Y029122D01*
X022990Y029094D01*
X022944Y029069D01*
X022896Y029048D01*
X022846Y029031D01*
X022796Y029018D01*
X022744Y029008D01*
X022692Y029002D01*
X022640Y029000D01*
X022588Y029002D01*
X022536Y029008D01*
X022484Y029018D01*
X022434Y029031D01*
X022384Y029048D01*
X022336Y029069D01*
X022290Y029094D01*
X022246Y029122D01*
X022204Y029153D01*
X022164Y029187D01*
X022127Y029224D01*
X022093Y029264D01*
X022062Y029306D01*
X022034Y029350D01*
X022009Y029396D01*
X021988Y029444D01*
X021971Y029494D01*
X021958Y029544D01*
X021948Y029596D01*
X021942Y029648D01*
X021940Y029700D01*
X017540Y029900D02*
X017542Y029952D01*
X017548Y030004D01*
X017558Y030056D01*
X017571Y030106D01*
X017588Y030156D01*
X017609Y030204D01*
X017634Y030250D01*
X017662Y030294D01*
X017693Y030336D01*
X017727Y030376D01*
X017764Y030413D01*
X017804Y030447D01*
X017846Y030478D01*
X017890Y030506D01*
X017936Y030531D01*
X017984Y030552D01*
X018034Y030569D01*
X018084Y030582D01*
X018136Y030592D01*
X018188Y030598D01*
X018240Y030600D01*
X018292Y030598D01*
X018344Y030592D01*
X018396Y030582D01*
X018446Y030569D01*
X018496Y030552D01*
X018544Y030531D01*
X018590Y030506D01*
X018634Y030478D01*
X018676Y030447D01*
X018716Y030413D01*
X018753Y030376D01*
X018787Y030336D01*
X018818Y030294D01*
X018846Y030250D01*
X018871Y030204D01*
X018892Y030156D01*
X018909Y030106D01*
X018922Y030056D01*
X018932Y030004D01*
X018938Y029952D01*
X018940Y029900D01*
X018938Y029848D01*
X018932Y029796D01*
X018922Y029744D01*
X018909Y029694D01*
X018892Y029644D01*
X018871Y029596D01*
X018846Y029550D01*
X018818Y029506D01*
X018787Y029464D01*
X018753Y029424D01*
X018716Y029387D01*
X018676Y029353D01*
X018634Y029322D01*
X018590Y029294D01*
X018544Y029269D01*
X018496Y029248D01*
X018446Y029231D01*
X018396Y029218D01*
X018344Y029208D01*
X018292Y029202D01*
X018240Y029200D01*
X018188Y029202D01*
X018136Y029208D01*
X018084Y029218D01*
X018034Y029231D01*
X017984Y029248D01*
X017936Y029269D01*
X017890Y029294D01*
X017846Y029322D01*
X017804Y029353D01*
X017764Y029387D01*
X017727Y029424D01*
X017693Y029464D01*
X017662Y029506D01*
X017634Y029550D01*
X017609Y029596D01*
X017588Y029644D01*
X017571Y029694D01*
X017558Y029744D01*
X017548Y029796D01*
X017542Y029848D01*
X017540Y029900D01*
X022230Y034440D02*
X022230Y034650D01*
X022300Y034720D01*
X022440Y034720D01*
X022510Y034650D01*
X022510Y034440D01*
X022650Y034440D02*
X022230Y034440D01*
X022230Y034900D02*
X022650Y034900D01*
X022510Y035041D01*
X022650Y035181D01*
X022230Y035181D01*
X022230Y035361D02*
X022230Y035571D01*
X022300Y035641D01*
X022440Y035641D01*
X022510Y035571D01*
X022510Y035361D01*
X022510Y035501D02*
X022650Y035641D01*
X022650Y035361D02*
X022230Y035361D01*
X023330Y035361D02*
X023750Y035361D01*
X023750Y035641D01*
X023750Y035821D02*
X023470Y035821D01*
X023330Y035961D01*
X023470Y036101D01*
X023750Y036101D01*
X023540Y036101D02*
X023540Y035821D01*
X023400Y036282D02*
X023540Y036422D01*
X023750Y036422D01*
X023540Y036422D02*
X023400Y036562D01*
X023330Y036562D01*
X023330Y036282D02*
X023400Y036282D01*
X023330Y035181D02*
X023330Y034900D01*
X023750Y034900D01*
X023750Y035181D01*
X023540Y035041D02*
X023540Y034900D01*
X023540Y034720D02*
X023610Y034650D01*
X023610Y034440D01*
X023750Y034440D02*
X023330Y034440D01*
X023330Y034650D01*
X023400Y034720D01*
X023540Y034720D01*
X023610Y034580D02*
X023750Y034720D01*
X024430Y034720D02*
X024430Y034440D01*
X024850Y034440D01*
X024640Y034440D02*
X024640Y034580D01*
X024640Y034900D02*
X024640Y035181D01*
X024570Y035181D02*
X024850Y035181D01*
X024850Y035361D02*
X024430Y035361D01*
X024850Y035641D01*
X024430Y035641D01*
X024570Y035181D02*
X024430Y035041D01*
X024570Y034900D01*
X024850Y034900D01*
X025530Y034900D02*
X025950Y034900D01*
X025950Y035181D01*
X025950Y035361D02*
X025670Y035361D01*
X025530Y035501D01*
X025670Y035641D01*
X025950Y035641D01*
X025950Y035821D02*
X025530Y035821D01*
X025530Y036031D01*
X025600Y036101D01*
X025740Y036101D01*
X025810Y036031D01*
X025810Y035821D01*
X025810Y035961D02*
X025950Y036101D01*
X025950Y036282D02*
X025530Y036282D01*
X025670Y036422D01*
X025530Y036562D01*
X025950Y036562D01*
X025740Y035641D02*
X025740Y035361D01*
X025740Y034720D02*
X025740Y034440D01*
X025670Y034440D02*
X025530Y034580D01*
X025670Y034720D01*
X025950Y034720D01*
X025950Y034440D02*
X025670Y034440D01*
X026630Y034580D02*
X026770Y034720D01*
X027050Y034720D01*
X026980Y034900D02*
X027050Y034970D01*
X027050Y035111D01*
X026980Y035181D01*
X026700Y035181D02*
X026630Y035111D01*
X026630Y034970D01*
X026700Y034900D01*
X026980Y034900D01*
X026840Y034720D02*
X026840Y034440D01*
X026770Y034440D02*
X026630Y034580D01*
X026770Y034440D02*
X027050Y034440D01*
X026630Y035361D02*
X026630Y035641D01*
X026630Y035501D02*
X027050Y035501D01*
X030067Y028092D02*
X030067Y027671D01*
X030348Y027671D01*
X030528Y027742D02*
X030598Y027671D01*
X030738Y027671D01*
X030808Y027742D01*
X030808Y027812D01*
X030738Y027882D01*
X030598Y027882D01*
X030528Y027952D01*
X030528Y028022D01*
X030598Y028092D01*
X030738Y028092D01*
X030808Y028022D01*
X030988Y028092D02*
X031198Y028092D01*
X031268Y028022D01*
X031268Y027882D01*
X031198Y027812D01*
X030988Y027812D01*
X030988Y027671D02*
X030988Y028092D01*
X031449Y028022D02*
X031449Y027952D01*
X031519Y027882D01*
X031659Y027882D01*
X031729Y027812D01*
X031729Y027742D01*
X031659Y027671D01*
X031519Y027671D01*
X031449Y027742D01*
X031449Y027812D01*
X031519Y027882D01*
X031659Y027882D02*
X031729Y027952D01*
X031729Y028022D01*
X031659Y028092D01*
X031519Y028092D01*
X031449Y028022D01*
X031909Y028022D02*
X031979Y028092D01*
X032119Y028092D01*
X032189Y028022D01*
X032189Y027952D01*
X031909Y027671D01*
X032189Y027671D01*
X032369Y027742D02*
X032439Y027671D01*
X032580Y027671D01*
X032650Y027742D01*
X032650Y027812D01*
X032580Y027882D01*
X032369Y027882D01*
X032369Y027742D01*
X032369Y027882D02*
X032509Y028022D01*
X032650Y028092D01*
X032830Y027882D02*
X033040Y027882D01*
X033110Y027812D01*
X033110Y027742D01*
X033040Y027671D01*
X032900Y027671D01*
X032830Y027742D01*
X032830Y027882D01*
X032970Y028022D01*
X033110Y028092D01*
X034889Y026990D02*
X034959Y027060D01*
X035100Y027060D01*
X035170Y026990D01*
X035170Y026920D01*
X035100Y026850D01*
X035170Y026780D01*
X035170Y026710D01*
X035100Y026640D01*
X034959Y026640D01*
X034889Y026710D01*
X035030Y026850D02*
X035100Y026850D01*
X035350Y026780D02*
X035350Y027060D01*
X035350Y026780D02*
X035490Y026640D01*
X035630Y026780D01*
X035630Y027060D01*
X035810Y026990D02*
X035880Y027060D01*
X036020Y027060D01*
X036090Y026990D01*
X036090Y026920D01*
X036020Y026850D01*
X036090Y026780D01*
X036090Y026710D01*
X036020Y026640D01*
X035880Y026640D01*
X035810Y026710D01*
X035950Y026850D02*
X036020Y026850D01*
X036448Y025941D02*
X036869Y025941D01*
X036869Y026081D02*
X036869Y025800D01*
X036588Y025800D02*
X036448Y025941D01*
X036448Y025620D02*
X036448Y025340D01*
X036448Y025480D02*
X036869Y025480D01*
X036798Y025160D02*
X036448Y025160D01*
X036448Y024880D02*
X036798Y024880D01*
X036869Y024950D01*
X036869Y025090D01*
X036798Y025160D01*
X036798Y024700D02*
X036518Y024700D01*
X036448Y024629D01*
X036448Y024489D01*
X036518Y024419D01*
X036798Y024419D01*
X036869Y024489D01*
X036869Y024629D01*
X036798Y024700D01*
X036869Y024239D02*
X036728Y024099D01*
X036728Y024169D02*
X036728Y023959D01*
X036869Y023959D02*
X036448Y023959D01*
X036448Y024169D01*
X036518Y024239D01*
X036658Y024239D01*
X036728Y024169D01*
X036244Y023160D02*
X036244Y022740D01*
X036244Y022950D02*
X035964Y022950D01*
X035784Y022950D02*
X035643Y022950D01*
X035784Y022950D02*
X035784Y022810D01*
X035713Y022740D01*
X035573Y022740D01*
X035503Y022810D01*
X035503Y023090D01*
X035573Y023160D01*
X035713Y023160D01*
X035784Y023090D01*
X035964Y023160D02*
X035964Y022740D01*
X035336Y022740D02*
X035196Y022740D01*
X035266Y022740D02*
X035266Y023160D01*
X035196Y023160D02*
X035336Y023160D01*
X035016Y023160D02*
X035016Y022740D01*
X035016Y022950D02*
X034736Y022950D01*
X034736Y022740D02*
X034736Y023160D01*
X034780Y023710D02*
X034780Y023850D01*
X034780Y023780D02*
X034360Y023780D01*
X034360Y023710D02*
X034360Y023850D01*
X034430Y024017D02*
X034500Y024017D01*
X034570Y024087D01*
X034570Y024227D01*
X034640Y024297D01*
X034710Y024297D01*
X034780Y024227D01*
X034780Y024087D01*
X034710Y024017D01*
X034430Y024017D02*
X034360Y024087D01*
X034360Y024227D01*
X034430Y024297D01*
X034360Y024477D02*
X034360Y024688D01*
X034430Y024758D01*
X034570Y024758D01*
X034640Y024688D01*
X034640Y024477D01*
X034780Y024477D02*
X034360Y024477D01*
X034360Y024938D02*
X034360Y025148D01*
X034430Y025218D01*
X034570Y025218D01*
X034640Y025148D01*
X034640Y024938D01*
X034780Y024938D02*
X034360Y024938D01*
X034360Y025398D02*
X034780Y025398D01*
X034640Y025538D01*
X034780Y025678D01*
X034360Y025678D01*
X034360Y025858D02*
X034360Y026069D01*
X034430Y026139D01*
X034570Y026139D01*
X034640Y026069D01*
X034640Y025858D01*
X034780Y025858D02*
X034360Y025858D01*
X034640Y025999D02*
X034780Y026139D01*
X035530Y028040D02*
X035530Y028460D01*
X035740Y028460D01*
X035810Y028390D01*
X035810Y028250D01*
X035740Y028180D01*
X035530Y028180D01*
X035670Y028180D02*
X035810Y028040D01*
X035990Y028040D02*
X036271Y028040D01*
X036131Y028040D02*
X036131Y028460D01*
X035990Y028320D01*
X037190Y028700D02*
X038890Y028700D01*
X038871Y028560D02*
X038731Y028560D01*
X038661Y028490D01*
X038661Y028210D01*
X038731Y028140D01*
X038871Y028140D01*
X038941Y028210D01*
X038941Y028350D01*
X038801Y028350D01*
X038941Y028490D02*
X038871Y028560D01*
X038481Y028490D02*
X038411Y028560D01*
X038271Y028560D01*
X038201Y028490D01*
X038201Y028210D01*
X038271Y028140D01*
X038411Y028140D01*
X038481Y028210D01*
X038481Y028490D01*
X038021Y028490D02*
X038021Y028350D01*
X037951Y028280D01*
X037740Y028280D01*
X037740Y028140D02*
X037740Y028560D01*
X037951Y028560D01*
X038021Y028490D01*
X037881Y028280D02*
X038021Y028140D01*
X037560Y028350D02*
X037490Y028280D01*
X037280Y028280D01*
X037280Y028140D02*
X037280Y028560D01*
X037490Y028560D01*
X037560Y028490D01*
X037560Y028350D01*
X037086Y027089D02*
X039646Y027089D01*
X039646Y022680D01*
X037086Y022680D01*
X037086Y027089D01*
X036840Y029500D02*
X036840Y030305D01*
X037190Y031100D02*
X038890Y031100D01*
X039240Y030293D02*
X039240Y029500D01*
X037340Y029900D02*
X037342Y029952D01*
X037348Y030004D01*
X037358Y030056D01*
X037371Y030106D01*
X037388Y030156D01*
X037409Y030204D01*
X037434Y030250D01*
X037462Y030294D01*
X037493Y030336D01*
X037527Y030376D01*
X037564Y030413D01*
X037604Y030447D01*
X037646Y030478D01*
X037690Y030506D01*
X037736Y030531D01*
X037784Y030552D01*
X037834Y030569D01*
X037884Y030582D01*
X037936Y030592D01*
X037988Y030598D01*
X038040Y030600D01*
X038092Y030598D01*
X038144Y030592D01*
X038196Y030582D01*
X038246Y030569D01*
X038296Y030552D01*
X038344Y030531D01*
X038390Y030506D01*
X038434Y030478D01*
X038476Y030447D01*
X038516Y030413D01*
X038553Y030376D01*
X038587Y030336D01*
X038618Y030294D01*
X038646Y030250D01*
X038671Y030204D01*
X038692Y030156D01*
X038709Y030106D01*
X038722Y030056D01*
X038732Y030004D01*
X038738Y029952D01*
X038740Y029900D01*
X038738Y029848D01*
X038732Y029796D01*
X038722Y029744D01*
X038709Y029694D01*
X038692Y029644D01*
X038671Y029596D01*
X038646Y029550D01*
X038618Y029506D01*
X038587Y029464D01*
X038553Y029424D01*
X038516Y029387D01*
X038476Y029353D01*
X038434Y029322D01*
X038390Y029294D01*
X038344Y029269D01*
X038296Y029248D01*
X038246Y029231D01*
X038196Y029218D01*
X038144Y029208D01*
X038092Y029202D01*
X038040Y029200D01*
X037988Y029202D01*
X037936Y029208D01*
X037884Y029218D01*
X037834Y029231D01*
X037784Y029248D01*
X037736Y029269D01*
X037690Y029294D01*
X037646Y029322D01*
X037604Y029353D01*
X037564Y029387D01*
X037527Y029424D01*
X037493Y029464D01*
X037462Y029506D01*
X037434Y029550D01*
X037409Y029596D01*
X037388Y029644D01*
X037371Y029694D01*
X037358Y029744D01*
X037348Y029796D01*
X037342Y029848D01*
X037340Y029900D01*
X037200Y031290D02*
X036780Y031290D01*
X036780Y031500D01*
X036850Y031570D01*
X036990Y031570D01*
X037060Y031500D01*
X037060Y031290D01*
X037060Y031430D02*
X037200Y031570D01*
X037130Y031750D02*
X037200Y031820D01*
X037200Y031961D01*
X037130Y032031D01*
X036990Y032031D01*
X036920Y031961D01*
X036920Y031891D01*
X036990Y031750D01*
X036780Y031750D01*
X036780Y032031D01*
X036580Y032840D02*
X036580Y032980D01*
X036580Y032910D02*
X037000Y032910D01*
X037000Y032840D02*
X037000Y032980D01*
X036930Y033147D02*
X037000Y033217D01*
X037000Y033357D01*
X036930Y033427D01*
X036860Y033427D01*
X036790Y033357D01*
X036790Y033217D01*
X036720Y033147D01*
X036650Y033147D01*
X036580Y033217D01*
X036580Y033357D01*
X036650Y033427D01*
X036580Y033607D02*
X036580Y033818D01*
X036650Y033888D01*
X036790Y033888D01*
X036860Y033818D01*
X036860Y033607D01*
X037000Y033607D02*
X036580Y033607D01*
X030348Y028092D02*
X030067Y028092D01*
X030067Y027882D02*
X030208Y027882D01*
X027380Y023381D02*
X027380Y023100D01*
X027590Y023100D02*
X027590Y023241D01*
X030880Y021162D02*
X031300Y021162D01*
X031300Y020882D02*
X030880Y020882D01*
X031020Y021022D01*
X030880Y021162D01*
X030950Y020701D02*
X031090Y020701D01*
X031160Y020631D01*
X031160Y020421D01*
X031300Y020421D02*
X030880Y020421D01*
X030880Y020631D01*
X030950Y020701D01*
X031160Y020561D02*
X031300Y020701D01*
X031300Y020241D02*
X031020Y020241D01*
X030880Y020101D01*
X031020Y019961D01*
X031300Y019961D01*
X031300Y019781D02*
X031300Y019500D01*
X030880Y019500D01*
X031020Y019320D02*
X031300Y019320D01*
X031090Y019320D02*
X031090Y019040D01*
X031020Y019040D02*
X030880Y019180D01*
X031020Y019320D01*
X031020Y019040D02*
X031300Y019040D01*
X031090Y019961D02*
X031090Y020241D01*
X031417Y020100D02*
X031420Y020214D01*
X031428Y020328D01*
X031442Y020441D01*
X031462Y020553D01*
X031487Y020664D01*
X031517Y020774D01*
X031553Y020883D01*
X031594Y020989D01*
X031640Y021093D01*
X031691Y021195D01*
X031747Y021294D01*
X031808Y021391D01*
X031874Y021484D01*
X031944Y021574D01*
X032019Y021660D01*
X032097Y021743D01*
X032180Y021821D01*
X032266Y021896D01*
X032356Y021966D01*
X032449Y022032D01*
X032546Y022093D01*
X032645Y022149D01*
X032747Y022200D01*
X032851Y022246D01*
X032957Y022287D01*
X033066Y022323D01*
X033176Y022353D01*
X033287Y022378D01*
X033399Y022398D01*
X033512Y022412D01*
X033626Y022420D01*
X033740Y022423D01*
X033854Y022420D01*
X033968Y022412D01*
X034081Y022398D01*
X034193Y022378D01*
X034304Y022353D01*
X034414Y022323D01*
X034523Y022287D01*
X034629Y022246D01*
X034733Y022200D01*
X034835Y022149D01*
X034934Y022093D01*
X035031Y022032D01*
X035124Y021966D01*
X035214Y021896D01*
X035300Y021821D01*
X035383Y021743D01*
X035461Y021660D01*
X035536Y021574D01*
X035606Y021484D01*
X035672Y021391D01*
X035733Y021294D01*
X035789Y021195D01*
X035840Y021093D01*
X035886Y020989D01*
X035927Y020883D01*
X035963Y020774D01*
X035993Y020664D01*
X036018Y020553D01*
X036038Y020441D01*
X036052Y020328D01*
X036060Y020214D01*
X036063Y020100D01*
X036060Y019986D01*
X036052Y019872D01*
X036038Y019759D01*
X036018Y019647D01*
X035993Y019536D01*
X035963Y019426D01*
X035927Y019317D01*
X035886Y019211D01*
X035840Y019107D01*
X035789Y019005D01*
X035733Y018906D01*
X035672Y018809D01*
X035606Y018716D01*
X035536Y018626D01*
X035461Y018540D01*
X035383Y018457D01*
X035300Y018379D01*
X035214Y018304D01*
X035124Y018234D01*
X035031Y018168D01*
X034934Y018107D01*
X034835Y018051D01*
X034733Y018000D01*
X034629Y017954D01*
X034523Y017913D01*
X034414Y017877D01*
X034304Y017847D01*
X034193Y017822D01*
X034081Y017802D01*
X033968Y017788D01*
X033854Y017780D01*
X033740Y017777D01*
X033626Y017780D01*
X033512Y017788D01*
X033399Y017802D01*
X033287Y017822D01*
X033176Y017847D01*
X033066Y017877D01*
X032957Y017913D01*
X032851Y017954D01*
X032747Y018000D01*
X032645Y018051D01*
X032546Y018107D01*
X032449Y018168D01*
X032356Y018234D01*
X032266Y018304D01*
X032180Y018379D01*
X032097Y018457D01*
X032019Y018540D01*
X031944Y018626D01*
X031874Y018716D01*
X031808Y018809D01*
X031747Y018906D01*
X031691Y019005D01*
X031640Y019107D01*
X031594Y019211D01*
X031553Y019317D01*
X031517Y019426D01*
X031487Y019536D01*
X031462Y019647D01*
X031442Y019759D01*
X031428Y019872D01*
X031420Y019986D01*
X031417Y020100D01*
X036448Y020080D02*
X036798Y020080D01*
X036869Y020150D01*
X036869Y020290D01*
X036798Y020360D01*
X036448Y020360D01*
X036448Y020540D02*
X036448Y020820D01*
X036448Y020680D02*
X036869Y020680D01*
X036869Y021000D02*
X036588Y021281D01*
X036518Y021281D01*
X036448Y021211D01*
X036448Y021071D01*
X036518Y021000D01*
X036869Y021000D02*
X036869Y021281D01*
X037086Y022289D02*
X039646Y022289D01*
X039646Y017880D01*
X037086Y017880D01*
X037086Y022289D01*
X036798Y019900D02*
X036518Y019900D01*
X036448Y019829D01*
X036448Y019689D01*
X036518Y019619D01*
X036798Y019619D01*
X036869Y019689D01*
X036869Y019829D01*
X036798Y019900D01*
X036869Y019439D02*
X036728Y019299D01*
X036728Y019369D02*
X036728Y019159D01*
X036869Y019159D02*
X036448Y019159D01*
X036448Y019369D01*
X036518Y019439D01*
X036658Y019439D01*
X036728Y019369D01*
X039646Y017880D02*
X040039Y017880D01*
X040039Y022289D01*
X039646Y022289D01*
X039646Y022680D02*
X040039Y022680D01*
X040039Y027089D01*
X039646Y027089D01*
X019846Y022289D02*
X017286Y022289D01*
X017286Y017880D01*
X019846Y017880D01*
X017069Y019159D02*
X016648Y019159D01*
X016648Y019369D01*
X016718Y019439D01*
X016858Y019439D01*
X016928Y019369D01*
X016928Y019159D01*
X016928Y019299D02*
X017069Y019439D01*
X016998Y019619D02*
X017069Y019689D01*
X017069Y019829D01*
X016998Y019900D01*
X016718Y019900D01*
X016648Y019829D01*
X016648Y019689D01*
X016718Y019619D01*
X016998Y019619D01*
X016998Y020080D02*
X016648Y020080D01*
X016648Y020360D02*
X016998Y020360D01*
X017069Y020290D01*
X017069Y020150D01*
X016998Y020080D01*
X016648Y020540D02*
X016648Y020820D01*
X016648Y020680D02*
X017069Y020680D01*
X017069Y021000D02*
X016788Y021281D01*
X016718Y021281D01*
X016648Y021211D01*
X016648Y021071D01*
X016718Y021000D01*
X017069Y021000D02*
X017069Y021281D01*
X011617Y020100D02*
X011620Y020214D01*
X011628Y020328D01*
X011642Y020441D01*
X011662Y020553D01*
X011687Y020664D01*
X011717Y020774D01*
X011753Y020883D01*
X011794Y020989D01*
X011840Y021093D01*
X011891Y021195D01*
X011947Y021294D01*
X012008Y021391D01*
X012074Y021484D01*
X012144Y021574D01*
X012219Y021660D01*
X012297Y021743D01*
X012380Y021821D01*
X012466Y021896D01*
X012556Y021966D01*
X012649Y022032D01*
X012746Y022093D01*
X012845Y022149D01*
X012947Y022200D01*
X013051Y022246D01*
X013157Y022287D01*
X013266Y022323D01*
X013376Y022353D01*
X013487Y022378D01*
X013599Y022398D01*
X013712Y022412D01*
X013826Y022420D01*
X013940Y022423D01*
X014054Y022420D01*
X014168Y022412D01*
X014281Y022398D01*
X014393Y022378D01*
X014504Y022353D01*
X014614Y022323D01*
X014723Y022287D01*
X014829Y022246D01*
X014933Y022200D01*
X015035Y022149D01*
X015134Y022093D01*
X015231Y022032D01*
X015324Y021966D01*
X015414Y021896D01*
X015500Y021821D01*
X015583Y021743D01*
X015661Y021660D01*
X015736Y021574D01*
X015806Y021484D01*
X015872Y021391D01*
X015933Y021294D01*
X015989Y021195D01*
X016040Y021093D01*
X016086Y020989D01*
X016127Y020883D01*
X016163Y020774D01*
X016193Y020664D01*
X016218Y020553D01*
X016238Y020441D01*
X016252Y020328D01*
X016260Y020214D01*
X016263Y020100D01*
X016260Y019986D01*
X016252Y019872D01*
X016238Y019759D01*
X016218Y019647D01*
X016193Y019536D01*
X016163Y019426D01*
X016127Y019317D01*
X016086Y019211D01*
X016040Y019107D01*
X015989Y019005D01*
X015933Y018906D01*
X015872Y018809D01*
X015806Y018716D01*
X015736Y018626D01*
X015661Y018540D01*
X015583Y018457D01*
X015500Y018379D01*
X015414Y018304D01*
X015324Y018234D01*
X015231Y018168D01*
X015134Y018107D01*
X015035Y018051D01*
X014933Y018000D01*
X014829Y017954D01*
X014723Y017913D01*
X014614Y017877D01*
X014504Y017847D01*
X014393Y017822D01*
X014281Y017802D01*
X014168Y017788D01*
X014054Y017780D01*
X013940Y017777D01*
X013826Y017780D01*
X013712Y017788D01*
X013599Y017802D01*
X013487Y017822D01*
X013376Y017847D01*
X013266Y017877D01*
X013157Y017913D01*
X013051Y017954D01*
X012947Y018000D01*
X012845Y018051D01*
X012746Y018107D01*
X012649Y018168D01*
X012556Y018234D01*
X012466Y018304D01*
X012380Y018379D01*
X012297Y018457D01*
X012219Y018540D01*
X012144Y018626D01*
X012074Y018716D01*
X012008Y018809D01*
X011947Y018906D01*
X011891Y019005D01*
X011840Y019107D01*
X011794Y019211D01*
X011753Y019317D01*
X011717Y019426D01*
X011687Y019536D01*
X011662Y019647D01*
X011642Y019759D01*
X011628Y019872D01*
X011620Y019986D01*
X011617Y020100D01*
X011500Y019961D02*
X011220Y019961D01*
X011080Y020101D01*
X011220Y020241D01*
X011500Y020241D01*
X011500Y020421D02*
X011080Y020421D01*
X011080Y020631D01*
X011150Y020701D01*
X011290Y020701D01*
X011360Y020631D01*
X011360Y020421D01*
X011360Y020561D02*
X011500Y020701D01*
X011500Y020882D02*
X011080Y020882D01*
X011220Y021022D01*
X011080Y021162D01*
X011500Y021162D01*
X011290Y020241D02*
X011290Y019961D01*
X011500Y019781D02*
X011500Y019500D01*
X011080Y019500D01*
X011220Y019320D02*
X011500Y019320D01*
X011290Y019320D02*
X011290Y019040D01*
X011220Y019040D02*
X011080Y019180D01*
X011220Y019320D01*
X011220Y019040D02*
X011500Y019040D01*
X005700Y028709D02*
X005280Y028709D01*
X005280Y028919D01*
X005350Y028989D01*
X005490Y028989D01*
X005560Y028919D01*
X005560Y028709D01*
X005560Y028849D02*
X005700Y028989D01*
X005700Y029169D02*
X005420Y029449D01*
X005350Y029449D01*
X005280Y029379D01*
X005280Y029239D01*
X005350Y029169D01*
X005700Y029169D02*
X005700Y029449D01*
X005700Y029630D02*
X005420Y029910D01*
X005350Y029910D01*
X005280Y029840D01*
X005280Y029700D01*
X005350Y029630D01*
X005700Y029630D02*
X005700Y029910D01*
X004900Y029840D02*
X004830Y029910D01*
X004760Y029910D01*
X004690Y029840D01*
X004690Y029630D01*
X004830Y029630D01*
X004900Y029700D01*
X004900Y029840D01*
X004690Y029630D02*
X004550Y029770D01*
X004480Y029910D01*
X004480Y029309D02*
X004900Y029309D01*
X004900Y029169D02*
X004900Y029449D01*
X004620Y029169D02*
X004480Y029309D01*
X004550Y028989D02*
X004690Y028989D01*
X004760Y028919D01*
X004760Y028709D01*
X004760Y028849D02*
X004900Y028989D01*
X004900Y028709D02*
X004480Y028709D01*
X004480Y028919D01*
X004550Y028989D01*
X004040Y028850D02*
X004040Y030550D01*
X003240Y030900D02*
X002447Y030900D01*
X002380Y031540D02*
X002380Y031960D01*
X002590Y031960D01*
X002660Y031890D01*
X002660Y031750D01*
X002590Y031680D01*
X002380Y031680D01*
X002520Y031680D02*
X002660Y031540D01*
X002840Y031610D02*
X002910Y031540D01*
X003051Y031540D01*
X003121Y031610D01*
X003121Y031680D01*
X003051Y031750D01*
X002910Y031750D01*
X002840Y031820D01*
X002840Y031890D01*
X002910Y031960D01*
X003051Y031960D01*
X003121Y031890D01*
X003301Y031960D02*
X003581Y031960D01*
X003441Y031960D02*
X003441Y031540D01*
X001640Y030550D02*
X001640Y028850D01*
X002435Y028500D02*
X003240Y028500D01*
X002140Y029700D02*
X002142Y029752D01*
X002148Y029804D01*
X002158Y029856D01*
X002171Y029906D01*
X002188Y029956D01*
X002209Y030004D01*
X002234Y030050D01*
X002262Y030094D01*
X002293Y030136D01*
X002327Y030176D01*
X002364Y030213D01*
X002404Y030247D01*
X002446Y030278D01*
X002490Y030306D01*
X002536Y030331D01*
X002584Y030352D01*
X002634Y030369D01*
X002684Y030382D01*
X002736Y030392D01*
X002788Y030398D01*
X002840Y030400D01*
X002892Y030398D01*
X002944Y030392D01*
X002996Y030382D01*
X003046Y030369D01*
X003096Y030352D01*
X003144Y030331D01*
X003190Y030306D01*
X003234Y030278D01*
X003276Y030247D01*
X003316Y030213D01*
X003353Y030176D01*
X003387Y030136D01*
X003418Y030094D01*
X003446Y030050D01*
X003471Y030004D01*
X003492Y029956D01*
X003509Y029906D01*
X003522Y029856D01*
X003532Y029804D01*
X003538Y029752D01*
X003540Y029700D01*
X003538Y029648D01*
X003532Y029596D01*
X003522Y029544D01*
X003509Y029494D01*
X003492Y029444D01*
X003471Y029396D01*
X003446Y029350D01*
X003418Y029306D01*
X003387Y029264D01*
X003353Y029224D01*
X003316Y029187D01*
X003276Y029153D01*
X003234Y029122D01*
X003190Y029094D01*
X003144Y029069D01*
X003096Y029048D01*
X003046Y029031D01*
X002996Y029018D01*
X002944Y029008D01*
X002892Y029002D01*
X002840Y029000D01*
X002788Y029002D01*
X002736Y029008D01*
X002684Y029018D01*
X002634Y029031D01*
X002584Y029048D01*
X002536Y029069D01*
X002490Y029094D01*
X002446Y029122D01*
X002404Y029153D01*
X002364Y029187D01*
X002327Y029224D01*
X002293Y029264D01*
X002262Y029306D01*
X002234Y029350D01*
X002209Y029396D01*
X002188Y029444D01*
X002171Y029494D01*
X002158Y029544D01*
X002148Y029596D01*
X002142Y029648D01*
X002140Y029700D01*
X002430Y034440D02*
X002430Y034650D01*
X002500Y034720D01*
X002640Y034720D01*
X002710Y034650D01*
X002710Y034440D01*
X002850Y034440D02*
X002430Y034440D01*
X002430Y034900D02*
X002850Y034900D01*
X002710Y035041D01*
X002850Y035181D01*
X002430Y035181D01*
X002430Y035361D02*
X002430Y035571D01*
X002500Y035641D01*
X002640Y035641D01*
X002710Y035571D01*
X002710Y035361D01*
X002710Y035501D02*
X002850Y035641D01*
X002850Y035361D02*
X002430Y035361D01*
X003530Y035361D02*
X003950Y035361D01*
X003950Y035641D01*
X003950Y035821D02*
X003670Y035821D01*
X003530Y035961D01*
X003670Y036101D01*
X003950Y036101D01*
X003740Y036101D02*
X003740Y035821D01*
X003600Y036282D02*
X003740Y036422D01*
X003950Y036422D01*
X003740Y036422D02*
X003600Y036562D01*
X003530Y036562D01*
X003530Y036282D02*
X003600Y036282D01*
X003530Y035181D02*
X003530Y034900D01*
X003950Y034900D01*
X003950Y035181D01*
X003740Y035041D02*
X003740Y034900D01*
X003740Y034720D02*
X003810Y034650D01*
X003810Y034440D01*
X003950Y034440D02*
X003530Y034440D01*
X003530Y034650D01*
X003600Y034720D01*
X003740Y034720D01*
X003810Y034580D02*
X003950Y034720D01*
X004630Y034720D02*
X004630Y034440D01*
X005050Y034440D01*
X004840Y034440D02*
X004840Y034580D01*
X004840Y034900D02*
X004840Y035181D01*
X004770Y035181D02*
X005050Y035181D01*
X005050Y035361D02*
X004630Y035361D01*
X005050Y035641D01*
X004630Y035641D01*
X004770Y035181D02*
X004630Y035041D01*
X004770Y034900D01*
X005050Y034900D01*
X005730Y034900D02*
X006150Y034900D01*
X006150Y035181D01*
X006150Y035361D02*
X005870Y035361D01*
X005730Y035501D01*
X005870Y035641D01*
X006150Y035641D01*
X006150Y035821D02*
X005730Y035821D01*
X005730Y036031D01*
X005800Y036101D01*
X005940Y036101D01*
X006010Y036031D01*
X006010Y035821D01*
X006010Y035961D02*
X006150Y036101D01*
X006150Y036282D02*
X005730Y036282D01*
X005870Y036422D01*
X005730Y036562D01*
X006150Y036562D01*
X005940Y035641D02*
X005940Y035361D01*
X005940Y034720D02*
X005940Y034440D01*
X005870Y034440D02*
X005730Y034580D01*
X005870Y034720D01*
X006150Y034720D01*
X006150Y034440D02*
X005870Y034440D01*
X006830Y034580D02*
X006970Y034720D01*
X007250Y034720D01*
X007180Y034900D02*
X007250Y034970D01*
X007250Y035111D01*
X007180Y035181D01*
X006900Y035181D02*
X006830Y035111D01*
X006830Y034970D01*
X006900Y034900D01*
X007180Y034900D01*
X007040Y034720D02*
X007040Y034440D01*
X006970Y034440D02*
X006830Y034580D01*
X006970Y034440D02*
X007250Y034440D01*
X006830Y035361D02*
X006830Y035641D01*
X006830Y035501D02*
X007250Y035501D01*
X006312Y005894D02*
X005485Y005894D01*
X006312Y005894D02*
X006312Y005618D01*
X006312Y003768D02*
X006312Y001681D01*
X002768Y001681D01*
X002768Y005894D01*
X003595Y005894D01*
X002600Y005383D02*
X002390Y005172D01*
X002460Y005102D02*
X002180Y005383D01*
X002180Y005102D02*
X002600Y005102D01*
X002530Y004922D02*
X002600Y004852D01*
X002600Y004712D01*
X002530Y004642D01*
X002250Y004642D01*
X002180Y004712D01*
X002180Y004852D01*
X002250Y004922D01*
X002320Y004462D02*
X002600Y004462D01*
X002390Y004462D02*
X002390Y004182D01*
X002320Y004182D02*
X002180Y004322D01*
X002320Y004462D01*
X002320Y004182D02*
X002600Y004182D01*
X002530Y003931D02*
X002180Y003931D01*
X002180Y003861D02*
X002180Y004001D01*
X002530Y003931D02*
X002600Y003861D01*
X002600Y003791D01*
X002530Y003721D01*
X002600Y003541D02*
X002460Y003401D01*
X002460Y003471D02*
X002460Y003261D01*
X002600Y003261D02*
X002180Y003261D01*
X002180Y003471D01*
X002250Y003541D01*
X002390Y003541D01*
X002460Y003471D01*
X002600Y003081D02*
X002180Y003081D01*
X002180Y002800D02*
X002600Y002800D01*
X002460Y002941D01*
X002600Y003081D01*
X002390Y002620D02*
X002460Y002550D01*
X002460Y002340D01*
X002600Y002340D02*
X002180Y002340D01*
X002180Y002550D01*
X002250Y002620D01*
X002390Y002620D01*
D12*
X001540Y006850D02*
X008290Y006850D01*
X008290Y015850D01*
X001540Y015850D01*
X001540Y006850D01*
X008040Y017950D02*
X007940Y018050D01*
X007940Y021750D01*
X008040Y021850D01*
X009190Y021900D01*
X008080Y021670D02*
X008082Y021690D01*
X008088Y021708D01*
X008097Y021726D01*
X008109Y021741D01*
X008124Y021753D01*
X008142Y021762D01*
X008160Y021768D01*
X008180Y021770D01*
X008200Y021768D01*
X008218Y021762D01*
X008236Y021753D01*
X008251Y021741D01*
X008263Y021726D01*
X008272Y021708D01*
X008278Y021690D01*
X008280Y021670D01*
X008278Y021650D01*
X008272Y021632D01*
X008263Y021614D01*
X008251Y021599D01*
X008236Y021587D01*
X008218Y021578D01*
X008200Y021572D01*
X008180Y021570D01*
X008160Y021572D01*
X008142Y021578D01*
X008124Y021587D01*
X008109Y021599D01*
X008097Y021614D01*
X008088Y021632D01*
X008082Y021650D01*
X008080Y021670D01*
X008040Y017950D02*
X009190Y017900D01*
X008840Y028300D02*
X008840Y037788D01*
X015218Y037788D01*
X015218Y028300D01*
X008840Y028300D01*
X017340Y032400D02*
X017340Y032900D01*
X017540Y033100D01*
X017340Y033300D01*
X017340Y033900D01*
X017540Y034100D01*
X017340Y034300D01*
X017340Y034800D01*
X017640Y035100D01*
X019040Y035100D01*
X019340Y034800D01*
X019340Y034300D01*
X019140Y034100D01*
X019340Y033900D01*
X019340Y033300D01*
X019140Y033100D01*
X019340Y032900D01*
X019340Y032400D01*
X019040Y032100D01*
X017640Y032100D01*
X017340Y032400D01*
X028640Y028300D02*
X028640Y037788D01*
X035018Y037788D01*
X035018Y028300D01*
X028640Y028300D01*
X028990Y021900D02*
X027840Y021850D01*
X027740Y021750D01*
X027740Y018050D01*
X027840Y017950D01*
X028990Y017900D01*
X028090Y015850D02*
X021340Y015850D01*
X021340Y006850D01*
X028090Y006850D01*
X028090Y015850D01*
X027880Y021670D02*
X027882Y021690D01*
X027888Y021708D01*
X027897Y021726D01*
X027909Y021741D01*
X027924Y021753D01*
X027942Y021762D01*
X027960Y021768D01*
X027980Y021770D01*
X028000Y021768D01*
X028018Y021762D01*
X028036Y021753D01*
X028051Y021741D01*
X028063Y021726D01*
X028072Y021708D01*
X028078Y021690D01*
X028080Y021670D01*
X028078Y021650D01*
X028072Y021632D01*
X028063Y021614D01*
X028051Y021599D01*
X028036Y021587D01*
X028018Y021578D01*
X028000Y021572D01*
X027980Y021570D01*
X027960Y021572D01*
X027942Y021578D01*
X027924Y021587D01*
X027909Y021599D01*
X027897Y021614D01*
X027888Y021632D01*
X027882Y021650D01*
X027880Y021670D01*
X037440Y032100D02*
X037140Y032400D01*
X037140Y032900D01*
X037340Y033100D01*
X037140Y033300D01*
X037140Y033900D01*
X037340Y034100D01*
X037140Y034300D01*
X037140Y034800D01*
X037440Y035100D01*
X038840Y035100D01*
X039140Y034800D01*
X039140Y034300D01*
X038940Y034100D01*
X039140Y033900D01*
X039140Y033300D01*
X038940Y033100D01*
X039140Y032900D01*
X039140Y032400D01*
X038840Y032100D01*
X037440Y032100D01*
D13*
X033237Y036194D02*
X032930Y036194D01*
X033237Y036501D01*
X033237Y036578D01*
X033161Y036654D01*
X033007Y036654D01*
X032930Y036578D01*
X032624Y036654D02*
X032624Y036194D01*
X032777Y036194D02*
X032470Y036194D01*
X032317Y036424D02*
X032010Y036424D01*
X031856Y036424D02*
X031856Y036578D01*
X031779Y036654D01*
X031549Y036654D01*
X031549Y036194D01*
X031549Y036347D02*
X031779Y036347D01*
X031856Y036424D01*
X031396Y036347D02*
X031396Y036271D01*
X031319Y036194D01*
X031166Y036194D01*
X031089Y036271D01*
X031166Y036424D02*
X031089Y036501D01*
X031089Y036578D01*
X031166Y036654D01*
X031319Y036654D01*
X031396Y036578D01*
X031319Y036424D02*
X031396Y036347D01*
X031319Y036424D02*
X031166Y036424D01*
X030935Y036194D02*
X030629Y036194D01*
X030629Y036654D01*
X030935Y036654D01*
X030782Y036424D02*
X030629Y036424D01*
X032470Y036501D02*
X032624Y036654D01*
X027037Y033617D02*
X027060Y033594D01*
X027080Y033568D01*
X027097Y033540D01*
X027111Y033511D01*
X027122Y033480D01*
X027129Y033449D01*
X027133Y033416D01*
X027133Y033384D01*
X027129Y033351D01*
X027122Y033320D01*
X027111Y033289D01*
X027097Y033260D01*
X027080Y033232D01*
X027060Y033206D01*
X027037Y033183D01*
X026643Y033183D02*
X026620Y033206D01*
X026600Y033232D01*
X026583Y033260D01*
X026569Y033289D01*
X026558Y033320D01*
X026551Y033351D01*
X026547Y033384D01*
X026547Y033416D01*
X026551Y033449D01*
X026558Y033480D01*
X026569Y033511D01*
X026583Y033540D01*
X026600Y033568D01*
X026620Y033594D01*
X026643Y033617D01*
X025937Y033617D02*
X025960Y033594D01*
X025980Y033568D01*
X025997Y033540D01*
X026011Y033511D01*
X026022Y033480D01*
X026029Y033449D01*
X026033Y033416D01*
X026033Y033384D01*
X026029Y033351D01*
X026022Y033320D01*
X026011Y033289D01*
X025997Y033260D01*
X025980Y033232D01*
X025960Y033206D01*
X025937Y033183D01*
X025543Y033183D02*
X025520Y033206D01*
X025500Y033232D01*
X025483Y033260D01*
X025469Y033289D01*
X025458Y033320D01*
X025451Y033351D01*
X025447Y033384D01*
X025447Y033416D01*
X025451Y033449D01*
X025458Y033480D01*
X025469Y033511D01*
X025483Y033540D01*
X025500Y033568D01*
X025520Y033594D01*
X025543Y033617D01*
X024837Y033617D02*
X024860Y033594D01*
X024880Y033568D01*
X024897Y033540D01*
X024911Y033511D01*
X024922Y033480D01*
X024929Y033449D01*
X024933Y033416D01*
X024933Y033384D01*
X024929Y033351D01*
X024922Y033320D01*
X024911Y033289D01*
X024897Y033260D01*
X024880Y033232D01*
X024860Y033206D01*
X024837Y033183D01*
X024443Y033183D02*
X024420Y033206D01*
X024400Y033232D01*
X024383Y033260D01*
X024369Y033289D01*
X024358Y033320D01*
X024351Y033351D01*
X024347Y033384D01*
X024347Y033416D01*
X024351Y033449D01*
X024358Y033480D01*
X024369Y033511D01*
X024383Y033540D01*
X024400Y033568D01*
X024420Y033594D01*
X024443Y033617D01*
X023737Y033617D02*
X023760Y033594D01*
X023780Y033568D01*
X023797Y033540D01*
X023811Y033511D01*
X023822Y033480D01*
X023829Y033449D01*
X023833Y033416D01*
X023833Y033384D01*
X023829Y033351D01*
X023822Y033320D01*
X023811Y033289D01*
X023797Y033260D01*
X023780Y033232D01*
X023760Y033206D01*
X023737Y033183D01*
X023343Y033183D02*
X023320Y033206D01*
X023300Y033232D01*
X023283Y033260D01*
X023269Y033289D01*
X023258Y033320D01*
X023251Y033351D01*
X023247Y033384D01*
X023247Y033416D01*
X023251Y033449D01*
X023258Y033480D01*
X023269Y033511D01*
X023283Y033540D01*
X023300Y033568D01*
X023320Y033594D01*
X023343Y033617D01*
X022637Y033617D02*
X022660Y033594D01*
X022680Y033568D01*
X022697Y033540D01*
X022711Y033511D01*
X022722Y033480D01*
X022729Y033449D01*
X022733Y033416D01*
X022733Y033384D01*
X022729Y033351D01*
X022722Y033320D01*
X022711Y033289D01*
X022697Y033260D01*
X022680Y033232D01*
X022660Y033206D01*
X022637Y033183D01*
X022243Y033183D02*
X022220Y033206D01*
X022200Y033232D01*
X022183Y033260D01*
X022169Y033289D01*
X022158Y033320D01*
X022151Y033351D01*
X022147Y033384D01*
X022147Y033416D01*
X022151Y033449D01*
X022158Y033480D01*
X022169Y033511D01*
X022183Y033540D01*
X022200Y033568D01*
X022220Y033594D01*
X022243Y033617D01*
X013437Y036194D02*
X013130Y036194D01*
X013437Y036501D01*
X013437Y036578D01*
X013361Y036654D01*
X013207Y036654D01*
X013130Y036578D01*
X012824Y036654D02*
X012824Y036194D01*
X012977Y036194D02*
X012670Y036194D01*
X012517Y036424D02*
X012210Y036424D01*
X012056Y036424D02*
X012056Y036578D01*
X011979Y036654D01*
X011749Y036654D01*
X011749Y036194D01*
X011749Y036347D02*
X011979Y036347D01*
X012056Y036424D01*
X011596Y036347D02*
X011596Y036271D01*
X011519Y036194D01*
X011366Y036194D01*
X011289Y036271D01*
X011366Y036424D02*
X011289Y036501D01*
X011289Y036578D01*
X011366Y036654D01*
X011519Y036654D01*
X011596Y036578D01*
X011519Y036424D02*
X011596Y036347D01*
X011519Y036424D02*
X011366Y036424D01*
X011135Y036194D02*
X010829Y036194D01*
X010829Y036654D01*
X011135Y036654D01*
X010982Y036424D02*
X010829Y036424D01*
X012670Y036501D02*
X012824Y036654D01*
X007237Y033617D02*
X007260Y033594D01*
X007280Y033568D01*
X007297Y033540D01*
X007311Y033511D01*
X007322Y033480D01*
X007329Y033449D01*
X007333Y033416D01*
X007333Y033384D01*
X007329Y033351D01*
X007322Y033320D01*
X007311Y033289D01*
X007297Y033260D01*
X007280Y033232D01*
X007260Y033206D01*
X007237Y033183D01*
X006843Y033183D02*
X006820Y033206D01*
X006800Y033232D01*
X006783Y033260D01*
X006769Y033289D01*
X006758Y033320D01*
X006751Y033351D01*
X006747Y033384D01*
X006747Y033416D01*
X006751Y033449D01*
X006758Y033480D01*
X006769Y033511D01*
X006783Y033540D01*
X006800Y033568D01*
X006820Y033594D01*
X006843Y033617D01*
X006137Y033617D02*
X006160Y033594D01*
X006180Y033568D01*
X006197Y033540D01*
X006211Y033511D01*
X006222Y033480D01*
X006229Y033449D01*
X006233Y033416D01*
X006233Y033384D01*
X006229Y033351D01*
X006222Y033320D01*
X006211Y033289D01*
X006197Y033260D01*
X006180Y033232D01*
X006160Y033206D01*
X006137Y033183D01*
X005743Y033183D02*
X005720Y033206D01*
X005700Y033232D01*
X005683Y033260D01*
X005669Y033289D01*
X005658Y033320D01*
X005651Y033351D01*
X005647Y033384D01*
X005647Y033416D01*
X005651Y033449D01*
X005658Y033480D01*
X005669Y033511D01*
X005683Y033540D01*
X005700Y033568D01*
X005720Y033594D01*
X005743Y033617D01*
X005037Y033617D02*
X005060Y033594D01*
X005080Y033568D01*
X005097Y033540D01*
X005111Y033511D01*
X005122Y033480D01*
X005129Y033449D01*
X005133Y033416D01*
X005133Y033384D01*
X005129Y033351D01*
X005122Y033320D01*
X005111Y033289D01*
X005097Y033260D01*
X005080Y033232D01*
X005060Y033206D01*
X005037Y033183D01*
X004643Y033183D02*
X004620Y033206D01*
X004600Y033232D01*
X004583Y033260D01*
X004569Y033289D01*
X004558Y033320D01*
X004551Y033351D01*
X004547Y033384D01*
X004547Y033416D01*
X004551Y033449D01*
X004558Y033480D01*
X004569Y033511D01*
X004583Y033540D01*
X004600Y033568D01*
X004620Y033594D01*
X004643Y033617D01*
X003937Y033617D02*
X003960Y033594D01*
X003980Y033568D01*
X003997Y033540D01*
X004011Y033511D01*
X004022Y033480D01*
X004029Y033449D01*
X004033Y033416D01*
X004033Y033384D01*
X004029Y033351D01*
X004022Y033320D01*
X004011Y033289D01*
X003997Y033260D01*
X003980Y033232D01*
X003960Y033206D01*
X003937Y033183D01*
X003543Y033183D02*
X003520Y033206D01*
X003500Y033232D01*
X003483Y033260D01*
X003469Y033289D01*
X003458Y033320D01*
X003451Y033351D01*
X003447Y033384D01*
X003447Y033416D01*
X003451Y033449D01*
X003458Y033480D01*
X003469Y033511D01*
X003483Y033540D01*
X003500Y033568D01*
X003520Y033594D01*
X003543Y033617D01*
X002837Y033617D02*
X002860Y033594D01*
X002880Y033568D01*
X002897Y033540D01*
X002911Y033511D01*
X002922Y033480D01*
X002929Y033449D01*
X002933Y033416D01*
X002933Y033384D01*
X002929Y033351D01*
X002922Y033320D01*
X002911Y033289D01*
X002897Y033260D01*
X002880Y033232D01*
X002860Y033206D01*
X002837Y033183D01*
X002443Y033183D02*
X002420Y033206D01*
X002400Y033232D01*
X002383Y033260D01*
X002369Y033289D01*
X002358Y033320D01*
X002351Y033351D01*
X002347Y033384D01*
X002347Y033416D01*
X002351Y033449D01*
X002358Y033480D01*
X002369Y033511D01*
X002383Y033540D01*
X002400Y033568D01*
X002420Y033594D01*
X002443Y033617D01*
X004810Y014848D02*
X004810Y014541D01*
X004810Y014694D02*
X005270Y014694D01*
X005193Y014387D02*
X004810Y014387D01*
X004810Y014080D02*
X005193Y014080D01*
X005270Y014157D01*
X005270Y014311D01*
X005193Y014387D01*
X005193Y013927D02*
X004886Y013927D01*
X004810Y013850D01*
X004810Y013697D01*
X004886Y013620D01*
X005193Y013620D01*
X005270Y013697D01*
X005270Y013850D01*
X005193Y013927D01*
X005193Y012268D02*
X005270Y012192D01*
X005270Y012038D01*
X005193Y011962D01*
X004886Y011962D01*
X004810Y012038D01*
X004810Y012192D01*
X004886Y012268D01*
X004886Y011808D02*
X004810Y011731D01*
X004810Y011501D01*
X005270Y011501D01*
X005270Y011731D01*
X005193Y011808D01*
X004886Y011808D01*
X004886Y010887D02*
X004810Y010811D01*
X004810Y010657D01*
X004886Y010580D01*
X005193Y010580D01*
X005270Y010657D01*
X005270Y010811D01*
X005193Y010887D01*
X005193Y010427D02*
X004886Y010427D01*
X004810Y010350D01*
X004810Y010120D01*
X005270Y010120D01*
X005270Y010350D01*
X005193Y010427D01*
X005270Y007984D02*
X004810Y007984D01*
X004810Y007677D02*
X005270Y007984D01*
X005270Y007677D02*
X004810Y007677D01*
X004810Y007523D02*
X004810Y007370D01*
X004810Y007447D02*
X005270Y007447D01*
X005270Y007523D02*
X005270Y007370D01*
X024610Y007370D02*
X024610Y007523D01*
X024610Y007447D02*
X025070Y007447D01*
X025070Y007523D02*
X025070Y007370D01*
X025070Y007677D02*
X024610Y007677D01*
X025070Y007984D01*
X024610Y007984D01*
X024610Y010120D02*
X024610Y010350D01*
X024686Y010427D01*
X024993Y010427D01*
X025070Y010350D01*
X025070Y010120D01*
X024610Y010120D01*
X024686Y010580D02*
X024993Y010580D01*
X025070Y010657D01*
X025070Y010811D01*
X024993Y010887D01*
X024686Y010887D02*
X024610Y010811D01*
X024610Y010657D01*
X024686Y010580D01*
X024610Y011501D02*
X024610Y011731D01*
X024686Y011808D01*
X024993Y011808D01*
X025070Y011731D01*
X025070Y011501D01*
X024610Y011501D01*
X024686Y011962D02*
X024610Y012038D01*
X024610Y012192D01*
X024686Y012268D01*
X024686Y011962D02*
X024993Y011962D01*
X025070Y012038D01*
X025070Y012192D01*
X024993Y012268D01*
X024993Y013620D02*
X025070Y013697D01*
X025070Y013850D01*
X024993Y013927D01*
X024686Y013927D01*
X024610Y013850D01*
X024610Y013697D01*
X024686Y013620D01*
X024993Y013620D01*
X024993Y014080D02*
X024610Y014080D01*
X024610Y014387D02*
X024993Y014387D01*
X025070Y014311D01*
X025070Y014157D01*
X024993Y014080D01*
X024610Y014541D02*
X024610Y014848D01*
X024610Y014694D02*
X025070Y014694D01*
D14*
X028540Y011200D02*
X028540Y010400D01*
X028640Y010300D01*
X029440Y010300D01*
X029540Y010400D01*
X029640Y010300D01*
X030440Y010300D01*
X030540Y010400D01*
X030540Y011200D01*
X030440Y011300D01*
X029640Y011300D01*
X029540Y011200D01*
X029440Y011300D01*
X028640Y011300D01*
X028540Y011200D01*
X025840Y018700D02*
X025840Y018850D01*
X025690Y018850D01*
X025840Y018850D02*
X025840Y019000D01*
X025840Y018850D02*
X025990Y018850D01*
X025240Y019500D02*
X025242Y019566D01*
X025248Y019631D01*
X025258Y019696D01*
X025271Y019761D01*
X025289Y019824D01*
X025310Y019887D01*
X025335Y019947D01*
X025364Y020007D01*
X025396Y020064D01*
X025431Y020120D01*
X025470Y020173D01*
X025512Y020224D01*
X025556Y020272D01*
X025604Y020317D01*
X025654Y020360D01*
X025707Y020399D01*
X025762Y020436D01*
X025819Y020469D01*
X025878Y020498D01*
X025938Y020524D01*
X026000Y020546D01*
X026063Y020565D01*
X026127Y020579D01*
X026192Y020590D01*
X026258Y020597D01*
X026324Y020600D01*
X026389Y020599D01*
X026455Y020594D01*
X026520Y020585D01*
X026585Y020572D01*
X026648Y020556D01*
X026711Y020536D01*
X026772Y020511D01*
X026832Y020484D01*
X026890Y020453D01*
X026946Y020418D01*
X027000Y020380D01*
X027051Y020339D01*
X027100Y020295D01*
X027146Y020248D01*
X027190Y020199D01*
X027230Y020147D01*
X027267Y020092D01*
X027301Y020036D01*
X027331Y019977D01*
X027358Y019917D01*
X027381Y019856D01*
X027400Y019793D01*
X027416Y019729D01*
X027428Y019664D01*
X027436Y019599D01*
X027440Y019533D01*
X027440Y019467D01*
X027436Y019401D01*
X027428Y019336D01*
X027416Y019271D01*
X027400Y019207D01*
X027381Y019144D01*
X027358Y019083D01*
X027331Y019023D01*
X027301Y018964D01*
X027267Y018908D01*
X027230Y018853D01*
X027190Y018801D01*
X027146Y018752D01*
X027100Y018705D01*
X027051Y018661D01*
X027000Y018620D01*
X026946Y018582D01*
X026890Y018547D01*
X026832Y018516D01*
X026772Y018489D01*
X026711Y018464D01*
X026648Y018444D01*
X026585Y018428D01*
X026520Y018415D01*
X026455Y018406D01*
X026389Y018401D01*
X026324Y018400D01*
X026258Y018403D01*
X026192Y018410D01*
X026127Y018421D01*
X026063Y018435D01*
X026000Y018454D01*
X025938Y018476D01*
X025878Y018502D01*
X025819Y018531D01*
X025762Y018564D01*
X025707Y018601D01*
X025654Y018640D01*
X025604Y018683D01*
X025556Y018728D01*
X025512Y018776D01*
X025470Y018827D01*
X025431Y018880D01*
X025396Y018936D01*
X025364Y018993D01*
X025335Y019053D01*
X025310Y019113D01*
X025289Y019176D01*
X025271Y019239D01*
X025258Y019304D01*
X025248Y019369D01*
X025242Y019434D01*
X025240Y019500D01*
X016240Y023650D02*
X015990Y023400D01*
X015490Y023400D01*
X015240Y023650D01*
X015240Y024150D01*
X015490Y024400D01*
X015240Y024650D01*
X015240Y025150D01*
X015490Y025400D01*
X015240Y025650D01*
X015240Y026150D01*
X015490Y026400D01*
X015990Y026400D01*
X016240Y026150D01*
X016240Y025650D01*
X015990Y025400D01*
X016240Y025150D01*
X016240Y024650D01*
X015990Y024400D01*
X016240Y024150D01*
X016240Y023650D01*
X015990Y024400D02*
X015490Y024400D01*
X015490Y025400D02*
X015990Y025400D01*
X005440Y019500D02*
X005442Y019566D01*
X005448Y019631D01*
X005458Y019696D01*
X005471Y019761D01*
X005489Y019824D01*
X005510Y019887D01*
X005535Y019947D01*
X005564Y020007D01*
X005596Y020064D01*
X005631Y020120D01*
X005670Y020173D01*
X005712Y020224D01*
X005756Y020272D01*
X005804Y020317D01*
X005854Y020360D01*
X005907Y020399D01*
X005962Y020436D01*
X006019Y020469D01*
X006078Y020498D01*
X006138Y020524D01*
X006200Y020546D01*
X006263Y020565D01*
X006327Y020579D01*
X006392Y020590D01*
X006458Y020597D01*
X006524Y020600D01*
X006589Y020599D01*
X006655Y020594D01*
X006720Y020585D01*
X006785Y020572D01*
X006848Y020556D01*
X006911Y020536D01*
X006972Y020511D01*
X007032Y020484D01*
X007090Y020453D01*
X007146Y020418D01*
X007200Y020380D01*
X007251Y020339D01*
X007300Y020295D01*
X007346Y020248D01*
X007390Y020199D01*
X007430Y020147D01*
X007467Y020092D01*
X007501Y020036D01*
X007531Y019977D01*
X007558Y019917D01*
X007581Y019856D01*
X007600Y019793D01*
X007616Y019729D01*
X007628Y019664D01*
X007636Y019599D01*
X007640Y019533D01*
X007640Y019467D01*
X007636Y019401D01*
X007628Y019336D01*
X007616Y019271D01*
X007600Y019207D01*
X007581Y019144D01*
X007558Y019083D01*
X007531Y019023D01*
X007501Y018964D01*
X007467Y018908D01*
X007430Y018853D01*
X007390Y018801D01*
X007346Y018752D01*
X007300Y018705D01*
X007251Y018661D01*
X007200Y018620D01*
X007146Y018582D01*
X007090Y018547D01*
X007032Y018516D01*
X006972Y018489D01*
X006911Y018464D01*
X006848Y018444D01*
X006785Y018428D01*
X006720Y018415D01*
X006655Y018406D01*
X006589Y018401D01*
X006524Y018400D01*
X006458Y018403D01*
X006392Y018410D01*
X006327Y018421D01*
X006263Y018435D01*
X006200Y018454D01*
X006138Y018476D01*
X006078Y018502D01*
X006019Y018531D01*
X005962Y018564D01*
X005907Y018601D01*
X005854Y018640D01*
X005804Y018683D01*
X005756Y018728D01*
X005712Y018776D01*
X005670Y018827D01*
X005631Y018880D01*
X005596Y018936D01*
X005564Y018993D01*
X005535Y019053D01*
X005510Y019113D01*
X005489Y019176D01*
X005471Y019239D01*
X005458Y019304D01*
X005448Y019369D01*
X005442Y019434D01*
X005440Y019500D01*
X006040Y019000D02*
X006040Y018850D01*
X005890Y018850D01*
X006040Y018850D02*
X006190Y018850D01*
X006040Y018850D02*
X006040Y018700D01*
X008840Y011300D02*
X008740Y011200D01*
X008740Y010400D01*
X008840Y010300D01*
X009640Y010300D01*
X009740Y010400D01*
X009840Y010300D01*
X010640Y010300D01*
X010740Y010400D01*
X010740Y011200D01*
X010640Y011300D01*
X009840Y011300D01*
X009740Y011200D01*
X009640Y011300D01*
X008840Y011300D01*
X035040Y023650D02*
X035040Y024150D01*
X035290Y024400D01*
X035040Y024650D01*
X035040Y025150D01*
X035290Y025400D01*
X035040Y025650D01*
X035040Y026150D01*
X035290Y026400D01*
X035790Y026400D01*
X036040Y026150D01*
X036040Y025650D01*
X035790Y025400D01*
X036040Y025150D01*
X036040Y024650D01*
X035790Y024400D01*
X036040Y024150D01*
X036040Y023650D01*
X035790Y023400D01*
X035290Y023400D01*
X035040Y023650D01*
X035290Y024400D02*
X035790Y024400D01*
X035790Y025400D02*
X035290Y025400D01*
D15*
X026840Y033400D03*
X025740Y033400D03*
X024640Y033400D03*
X023540Y033400D03*
X022440Y033400D03*
X007040Y033400D03*
X005940Y033400D03*
X004840Y033400D03*
X003740Y033400D03*
X002640Y033400D03*
D16*
X002414Y033193D03*
X003514Y033193D03*
X004614Y033193D03*
X005714Y033193D03*
X006814Y033193D03*
X022214Y033193D03*
X023314Y033193D03*
X024414Y033193D03*
X025514Y033193D03*
X026614Y033193D03*
D17*
X017402Y035015D02*
X017155Y035015D01*
X017278Y035015D02*
X017278Y035385D01*
X017155Y035262D01*
X036955Y035262D02*
X037078Y035385D01*
X037078Y035015D01*
X036955Y035015D02*
X037202Y035015D01*
D18*
X029290Y019900D03*
X009490Y019900D03*
D19*
X009240Y021625D03*
X009240Y018175D03*
X029040Y018175D03*
X029040Y021625D03*
D20*
X029040Y020400D03*
X029040Y019400D03*
X009240Y019400D03*
X009240Y020400D03*
M02*
