G75*
G70*
%OFA0B0*%
%FSLAX24Y24*%
%IPPOS*%
%LPD*%
%AMOC8*
5,1,8,0,0,1.08239X$1,22.5*
%
%ADD10C,0.0000*%
%ADD11R,0.0512X0.0591*%
%ADD12R,0.0591X0.0512*%
%ADD13R,0.0551X0.0394*%
%ADD14R,0.0709X0.0551*%
%ADD15R,0.1181X0.0984*%
%ADD16C,0.0035*%
D10*
X001340Y001800D02*
X001340Y037900D01*
X020340Y037900D01*
X020340Y027600D01*
X021140Y027600D01*
X021140Y037900D01*
X040140Y037900D01*
X040140Y001800D01*
X021140Y001800D01*
X021140Y021400D01*
X020340Y021400D01*
X020340Y001800D01*
X001340Y001800D01*
X018510Y003000D02*
X018512Y003050D01*
X018518Y003100D01*
X018528Y003149D01*
X018542Y003197D01*
X018559Y003244D01*
X018580Y003289D01*
X018605Y003333D01*
X018633Y003374D01*
X018665Y003413D01*
X018699Y003450D01*
X018736Y003484D01*
X018776Y003514D01*
X018818Y003541D01*
X018862Y003565D01*
X018908Y003586D01*
X018955Y003602D01*
X019003Y003615D01*
X019053Y003624D01*
X019102Y003629D01*
X019153Y003630D01*
X019203Y003627D01*
X019252Y003620D01*
X019301Y003609D01*
X019349Y003594D01*
X019395Y003576D01*
X019440Y003554D01*
X019483Y003528D01*
X019524Y003499D01*
X019563Y003467D01*
X019599Y003432D01*
X019631Y003394D01*
X019661Y003354D01*
X019688Y003311D01*
X019711Y003267D01*
X019730Y003221D01*
X019746Y003173D01*
X019758Y003124D01*
X019766Y003075D01*
X019770Y003025D01*
X019770Y002975D01*
X019766Y002925D01*
X019758Y002876D01*
X019746Y002827D01*
X019730Y002779D01*
X019711Y002733D01*
X019688Y002689D01*
X019661Y002646D01*
X019631Y002606D01*
X019599Y002568D01*
X019563Y002533D01*
X019524Y002501D01*
X019483Y002472D01*
X019440Y002446D01*
X019395Y002424D01*
X019349Y002406D01*
X019301Y002391D01*
X019252Y002380D01*
X019203Y002373D01*
X019153Y002370D01*
X019102Y002371D01*
X019053Y002376D01*
X019003Y002385D01*
X018955Y002398D01*
X018908Y002414D01*
X018862Y002435D01*
X018818Y002459D01*
X018776Y002486D01*
X018736Y002516D01*
X018699Y002550D01*
X018665Y002587D01*
X018633Y002626D01*
X018605Y002667D01*
X018580Y002711D01*
X018559Y002756D01*
X018542Y002803D01*
X018528Y002851D01*
X018518Y002900D01*
X018512Y002950D01*
X018510Y003000D01*
X020523Y022000D02*
X020525Y022029D01*
X020531Y022057D01*
X020540Y022085D01*
X020553Y022111D01*
X020570Y022134D01*
X020589Y022156D01*
X020611Y022175D01*
X020636Y022190D01*
X020662Y022203D01*
X020690Y022211D01*
X020718Y022216D01*
X020747Y022217D01*
X020776Y022214D01*
X020804Y022207D01*
X020831Y022197D01*
X020857Y022183D01*
X020880Y022166D01*
X020901Y022146D01*
X020919Y022123D01*
X020934Y022098D01*
X020945Y022071D01*
X020953Y022043D01*
X020957Y022014D01*
X020957Y021986D01*
X020953Y021957D01*
X020945Y021929D01*
X020934Y021902D01*
X020919Y021877D01*
X020901Y021854D01*
X020880Y021834D01*
X020857Y021817D01*
X020831Y021803D01*
X020804Y021793D01*
X020776Y021786D01*
X020747Y021783D01*
X020718Y021784D01*
X020690Y021789D01*
X020662Y021797D01*
X020636Y021810D01*
X020611Y021825D01*
X020589Y021844D01*
X020570Y021866D01*
X020553Y021889D01*
X020540Y021915D01*
X020531Y021943D01*
X020525Y021971D01*
X020523Y022000D01*
X020523Y023000D02*
X020525Y023029D01*
X020531Y023057D01*
X020540Y023085D01*
X020553Y023111D01*
X020570Y023134D01*
X020589Y023156D01*
X020611Y023175D01*
X020636Y023190D01*
X020662Y023203D01*
X020690Y023211D01*
X020718Y023216D01*
X020747Y023217D01*
X020776Y023214D01*
X020804Y023207D01*
X020831Y023197D01*
X020857Y023183D01*
X020880Y023166D01*
X020901Y023146D01*
X020919Y023123D01*
X020934Y023098D01*
X020945Y023071D01*
X020953Y023043D01*
X020957Y023014D01*
X020957Y022986D01*
X020953Y022957D01*
X020945Y022929D01*
X020934Y022902D01*
X020919Y022877D01*
X020901Y022854D01*
X020880Y022834D01*
X020857Y022817D01*
X020831Y022803D01*
X020804Y022793D01*
X020776Y022786D01*
X020747Y022783D01*
X020718Y022784D01*
X020690Y022789D01*
X020662Y022797D01*
X020636Y022810D01*
X020611Y022825D01*
X020589Y022844D01*
X020570Y022866D01*
X020553Y022889D01*
X020540Y022915D01*
X020531Y022943D01*
X020525Y022971D01*
X020523Y023000D01*
X020523Y024000D02*
X020525Y024029D01*
X020531Y024057D01*
X020540Y024085D01*
X020553Y024111D01*
X020570Y024134D01*
X020589Y024156D01*
X020611Y024175D01*
X020636Y024190D01*
X020662Y024203D01*
X020690Y024211D01*
X020718Y024216D01*
X020747Y024217D01*
X020776Y024214D01*
X020804Y024207D01*
X020831Y024197D01*
X020857Y024183D01*
X020880Y024166D01*
X020901Y024146D01*
X020919Y024123D01*
X020934Y024098D01*
X020945Y024071D01*
X020953Y024043D01*
X020957Y024014D01*
X020957Y023986D01*
X020953Y023957D01*
X020945Y023929D01*
X020934Y023902D01*
X020919Y023877D01*
X020901Y023854D01*
X020880Y023834D01*
X020857Y023817D01*
X020831Y023803D01*
X020804Y023793D01*
X020776Y023786D01*
X020747Y023783D01*
X020718Y023784D01*
X020690Y023789D01*
X020662Y023797D01*
X020636Y023810D01*
X020611Y023825D01*
X020589Y023844D01*
X020570Y023866D01*
X020553Y023889D01*
X020540Y023915D01*
X020531Y023943D01*
X020525Y023971D01*
X020523Y024000D01*
X020523Y025000D02*
X020525Y025029D01*
X020531Y025057D01*
X020540Y025085D01*
X020553Y025111D01*
X020570Y025134D01*
X020589Y025156D01*
X020611Y025175D01*
X020636Y025190D01*
X020662Y025203D01*
X020690Y025211D01*
X020718Y025216D01*
X020747Y025217D01*
X020776Y025214D01*
X020804Y025207D01*
X020831Y025197D01*
X020857Y025183D01*
X020880Y025166D01*
X020901Y025146D01*
X020919Y025123D01*
X020934Y025098D01*
X020945Y025071D01*
X020953Y025043D01*
X020957Y025014D01*
X020957Y024986D01*
X020953Y024957D01*
X020945Y024929D01*
X020934Y024902D01*
X020919Y024877D01*
X020901Y024854D01*
X020880Y024834D01*
X020857Y024817D01*
X020831Y024803D01*
X020804Y024793D01*
X020776Y024786D01*
X020747Y024783D01*
X020718Y024784D01*
X020690Y024789D01*
X020662Y024797D01*
X020636Y024810D01*
X020611Y024825D01*
X020589Y024844D01*
X020570Y024866D01*
X020553Y024889D01*
X020540Y024915D01*
X020531Y024943D01*
X020525Y024971D01*
X020523Y025000D01*
X020523Y026000D02*
X020525Y026029D01*
X020531Y026057D01*
X020540Y026085D01*
X020553Y026111D01*
X020570Y026134D01*
X020589Y026156D01*
X020611Y026175D01*
X020636Y026190D01*
X020662Y026203D01*
X020690Y026211D01*
X020718Y026216D01*
X020747Y026217D01*
X020776Y026214D01*
X020804Y026207D01*
X020831Y026197D01*
X020857Y026183D01*
X020880Y026166D01*
X020901Y026146D01*
X020919Y026123D01*
X020934Y026098D01*
X020945Y026071D01*
X020953Y026043D01*
X020957Y026014D01*
X020957Y025986D01*
X020953Y025957D01*
X020945Y025929D01*
X020934Y025902D01*
X020919Y025877D01*
X020901Y025854D01*
X020880Y025834D01*
X020857Y025817D01*
X020831Y025803D01*
X020804Y025793D01*
X020776Y025786D01*
X020747Y025783D01*
X020718Y025784D01*
X020690Y025789D01*
X020662Y025797D01*
X020636Y025810D01*
X020611Y025825D01*
X020589Y025844D01*
X020570Y025866D01*
X020553Y025889D01*
X020540Y025915D01*
X020531Y025943D01*
X020525Y025971D01*
X020523Y026000D01*
X020523Y027000D02*
X020525Y027029D01*
X020531Y027057D01*
X020540Y027085D01*
X020553Y027111D01*
X020570Y027134D01*
X020589Y027156D01*
X020611Y027175D01*
X020636Y027190D01*
X020662Y027203D01*
X020690Y027211D01*
X020718Y027216D01*
X020747Y027217D01*
X020776Y027214D01*
X020804Y027207D01*
X020831Y027197D01*
X020857Y027183D01*
X020880Y027166D01*
X020901Y027146D01*
X020919Y027123D01*
X020934Y027098D01*
X020945Y027071D01*
X020953Y027043D01*
X020957Y027014D01*
X020957Y026986D01*
X020953Y026957D01*
X020945Y026929D01*
X020934Y026902D01*
X020919Y026877D01*
X020901Y026854D01*
X020880Y026834D01*
X020857Y026817D01*
X020831Y026803D01*
X020804Y026793D01*
X020776Y026786D01*
X020747Y026783D01*
X020718Y026784D01*
X020690Y026789D01*
X020662Y026797D01*
X020636Y026810D01*
X020611Y026825D01*
X020589Y026844D01*
X020570Y026866D01*
X020553Y026889D01*
X020540Y026915D01*
X020531Y026943D01*
X020525Y026971D01*
X020523Y027000D01*
X022500Y027100D02*
X022502Y027150D01*
X022508Y027200D01*
X022518Y027249D01*
X022531Y027298D01*
X022549Y027345D01*
X022570Y027391D01*
X022594Y027434D01*
X022622Y027476D01*
X022653Y027516D01*
X022687Y027553D01*
X022724Y027587D01*
X022764Y027618D01*
X022806Y027646D01*
X022849Y027670D01*
X022895Y027691D01*
X022942Y027709D01*
X022991Y027722D01*
X023040Y027732D01*
X023090Y027738D01*
X023140Y027740D01*
X023190Y027738D01*
X023240Y027732D01*
X023289Y027722D01*
X023338Y027709D01*
X023385Y027691D01*
X023431Y027670D01*
X023474Y027646D01*
X023516Y027618D01*
X023556Y027587D01*
X023593Y027553D01*
X023627Y027516D01*
X023658Y027476D01*
X023686Y027434D01*
X023710Y027391D01*
X023731Y027345D01*
X023749Y027298D01*
X023762Y027249D01*
X023772Y027200D01*
X023778Y027150D01*
X023780Y027100D01*
X023778Y027050D01*
X023772Y027000D01*
X023762Y026951D01*
X023749Y026902D01*
X023731Y026855D01*
X023710Y026809D01*
X023686Y026766D01*
X023658Y026724D01*
X023627Y026684D01*
X023593Y026647D01*
X023556Y026613D01*
X023516Y026582D01*
X023474Y026554D01*
X023431Y026530D01*
X023385Y026509D01*
X023338Y026491D01*
X023289Y026478D01*
X023240Y026468D01*
X023190Y026462D01*
X023140Y026460D01*
X023090Y026462D01*
X023040Y026468D01*
X022991Y026478D01*
X022942Y026491D01*
X022895Y026509D01*
X022849Y026530D01*
X022806Y026554D01*
X022764Y026582D01*
X022724Y026613D01*
X022687Y026647D01*
X022653Y026684D01*
X022622Y026724D01*
X022594Y026766D01*
X022570Y026809D01*
X022549Y026855D01*
X022531Y026902D01*
X022518Y026951D01*
X022508Y027000D01*
X022502Y027050D01*
X022500Y027100D01*
X022500Y023100D02*
X022502Y023150D01*
X022508Y023200D01*
X022518Y023249D01*
X022531Y023298D01*
X022549Y023345D01*
X022570Y023391D01*
X022594Y023434D01*
X022622Y023476D01*
X022653Y023516D01*
X022687Y023553D01*
X022724Y023587D01*
X022764Y023618D01*
X022806Y023646D01*
X022849Y023670D01*
X022895Y023691D01*
X022942Y023709D01*
X022991Y023722D01*
X023040Y023732D01*
X023090Y023738D01*
X023140Y023740D01*
X023190Y023738D01*
X023240Y023732D01*
X023289Y023722D01*
X023338Y023709D01*
X023385Y023691D01*
X023431Y023670D01*
X023474Y023646D01*
X023516Y023618D01*
X023556Y023587D01*
X023593Y023553D01*
X023627Y023516D01*
X023658Y023476D01*
X023686Y023434D01*
X023710Y023391D01*
X023731Y023345D01*
X023749Y023298D01*
X023762Y023249D01*
X023772Y023200D01*
X023778Y023150D01*
X023780Y023100D01*
X023778Y023050D01*
X023772Y023000D01*
X023762Y022951D01*
X023749Y022902D01*
X023731Y022855D01*
X023710Y022809D01*
X023686Y022766D01*
X023658Y022724D01*
X023627Y022684D01*
X023593Y022647D01*
X023556Y022613D01*
X023516Y022582D01*
X023474Y022554D01*
X023431Y022530D01*
X023385Y022509D01*
X023338Y022491D01*
X023289Y022478D01*
X023240Y022468D01*
X023190Y022462D01*
X023140Y022460D01*
X023090Y022462D01*
X023040Y022468D01*
X022991Y022478D01*
X022942Y022491D01*
X022895Y022509D01*
X022849Y022530D01*
X022806Y022554D01*
X022764Y022582D01*
X022724Y022613D01*
X022687Y022647D01*
X022653Y022684D01*
X022622Y022724D01*
X022594Y022766D01*
X022570Y022809D01*
X022549Y022855D01*
X022531Y022902D01*
X022518Y022951D01*
X022508Y023000D01*
X022502Y023050D01*
X022500Y023100D01*
X021710Y036700D02*
X021712Y036750D01*
X021718Y036800D01*
X021728Y036849D01*
X021742Y036897D01*
X021759Y036944D01*
X021780Y036989D01*
X021805Y037033D01*
X021833Y037074D01*
X021865Y037113D01*
X021899Y037150D01*
X021936Y037184D01*
X021976Y037214D01*
X022018Y037241D01*
X022062Y037265D01*
X022108Y037286D01*
X022155Y037302D01*
X022203Y037315D01*
X022253Y037324D01*
X022302Y037329D01*
X022353Y037330D01*
X022403Y037327D01*
X022452Y037320D01*
X022501Y037309D01*
X022549Y037294D01*
X022595Y037276D01*
X022640Y037254D01*
X022683Y037228D01*
X022724Y037199D01*
X022763Y037167D01*
X022799Y037132D01*
X022831Y037094D01*
X022861Y037054D01*
X022888Y037011D01*
X022911Y036967D01*
X022930Y036921D01*
X022946Y036873D01*
X022958Y036824D01*
X022966Y036775D01*
X022970Y036725D01*
X022970Y036675D01*
X022966Y036625D01*
X022958Y036576D01*
X022946Y036527D01*
X022930Y036479D01*
X022911Y036433D01*
X022888Y036389D01*
X022861Y036346D01*
X022831Y036306D01*
X022799Y036268D01*
X022763Y036233D01*
X022724Y036201D01*
X022683Y036172D01*
X022640Y036146D01*
X022595Y036124D01*
X022549Y036106D01*
X022501Y036091D01*
X022452Y036080D01*
X022403Y036073D01*
X022353Y036070D01*
X022302Y036071D01*
X022253Y036076D01*
X022203Y036085D01*
X022155Y036098D01*
X022108Y036114D01*
X022062Y036135D01*
X022018Y036159D01*
X021976Y036186D01*
X021936Y036216D01*
X021899Y036250D01*
X021865Y036287D01*
X021833Y036326D01*
X021805Y036367D01*
X021780Y036411D01*
X021759Y036456D01*
X021742Y036503D01*
X021728Y036551D01*
X021718Y036600D01*
X021712Y036650D01*
X021710Y036700D01*
X018510Y036700D02*
X018512Y036750D01*
X018518Y036800D01*
X018528Y036849D01*
X018542Y036897D01*
X018559Y036944D01*
X018580Y036989D01*
X018605Y037033D01*
X018633Y037074D01*
X018665Y037113D01*
X018699Y037150D01*
X018736Y037184D01*
X018776Y037214D01*
X018818Y037241D01*
X018862Y037265D01*
X018908Y037286D01*
X018955Y037302D01*
X019003Y037315D01*
X019053Y037324D01*
X019102Y037329D01*
X019153Y037330D01*
X019203Y037327D01*
X019252Y037320D01*
X019301Y037309D01*
X019349Y037294D01*
X019395Y037276D01*
X019440Y037254D01*
X019483Y037228D01*
X019524Y037199D01*
X019563Y037167D01*
X019599Y037132D01*
X019631Y037094D01*
X019661Y037054D01*
X019688Y037011D01*
X019711Y036967D01*
X019730Y036921D01*
X019746Y036873D01*
X019758Y036824D01*
X019766Y036775D01*
X019770Y036725D01*
X019770Y036675D01*
X019766Y036625D01*
X019758Y036576D01*
X019746Y036527D01*
X019730Y036479D01*
X019711Y036433D01*
X019688Y036389D01*
X019661Y036346D01*
X019631Y036306D01*
X019599Y036268D01*
X019563Y036233D01*
X019524Y036201D01*
X019483Y036172D01*
X019440Y036146D01*
X019395Y036124D01*
X019349Y036106D01*
X019301Y036091D01*
X019252Y036080D01*
X019203Y036073D01*
X019153Y036070D01*
X019102Y036071D01*
X019053Y036076D01*
X019003Y036085D01*
X018955Y036098D01*
X018908Y036114D01*
X018862Y036135D01*
X018818Y036159D01*
X018776Y036186D01*
X018736Y036216D01*
X018699Y036250D01*
X018665Y036287D01*
X018633Y036326D01*
X018605Y036367D01*
X018580Y036411D01*
X018559Y036456D01*
X018542Y036503D01*
X018528Y036551D01*
X018518Y036600D01*
X018512Y036650D01*
X018510Y036700D01*
X002700Y027100D02*
X002702Y027150D01*
X002708Y027200D01*
X002718Y027249D01*
X002731Y027298D01*
X002749Y027345D01*
X002770Y027391D01*
X002794Y027434D01*
X002822Y027476D01*
X002853Y027516D01*
X002887Y027553D01*
X002924Y027587D01*
X002964Y027618D01*
X003006Y027646D01*
X003049Y027670D01*
X003095Y027691D01*
X003142Y027709D01*
X003191Y027722D01*
X003240Y027732D01*
X003290Y027738D01*
X003340Y027740D01*
X003390Y027738D01*
X003440Y027732D01*
X003489Y027722D01*
X003538Y027709D01*
X003585Y027691D01*
X003631Y027670D01*
X003674Y027646D01*
X003716Y027618D01*
X003756Y027587D01*
X003793Y027553D01*
X003827Y027516D01*
X003858Y027476D01*
X003886Y027434D01*
X003910Y027391D01*
X003931Y027345D01*
X003949Y027298D01*
X003962Y027249D01*
X003972Y027200D01*
X003978Y027150D01*
X003980Y027100D01*
X003978Y027050D01*
X003972Y027000D01*
X003962Y026951D01*
X003949Y026902D01*
X003931Y026855D01*
X003910Y026809D01*
X003886Y026766D01*
X003858Y026724D01*
X003827Y026684D01*
X003793Y026647D01*
X003756Y026613D01*
X003716Y026582D01*
X003674Y026554D01*
X003631Y026530D01*
X003585Y026509D01*
X003538Y026491D01*
X003489Y026478D01*
X003440Y026468D01*
X003390Y026462D01*
X003340Y026460D01*
X003290Y026462D01*
X003240Y026468D01*
X003191Y026478D01*
X003142Y026491D01*
X003095Y026509D01*
X003049Y026530D01*
X003006Y026554D01*
X002964Y026582D01*
X002924Y026613D01*
X002887Y026647D01*
X002853Y026684D01*
X002822Y026724D01*
X002794Y026766D01*
X002770Y026809D01*
X002749Y026855D01*
X002731Y026902D01*
X002718Y026951D01*
X002708Y027000D01*
X002702Y027050D01*
X002700Y027100D01*
X002700Y023100D02*
X002702Y023150D01*
X002708Y023200D01*
X002718Y023249D01*
X002731Y023298D01*
X002749Y023345D01*
X002770Y023391D01*
X002794Y023434D01*
X002822Y023476D01*
X002853Y023516D01*
X002887Y023553D01*
X002924Y023587D01*
X002964Y023618D01*
X003006Y023646D01*
X003049Y023670D01*
X003095Y023691D01*
X003142Y023709D01*
X003191Y023722D01*
X003240Y023732D01*
X003290Y023738D01*
X003340Y023740D01*
X003390Y023738D01*
X003440Y023732D01*
X003489Y023722D01*
X003538Y023709D01*
X003585Y023691D01*
X003631Y023670D01*
X003674Y023646D01*
X003716Y023618D01*
X003756Y023587D01*
X003793Y023553D01*
X003827Y023516D01*
X003858Y023476D01*
X003886Y023434D01*
X003910Y023391D01*
X003931Y023345D01*
X003949Y023298D01*
X003962Y023249D01*
X003972Y023200D01*
X003978Y023150D01*
X003980Y023100D01*
X003978Y023050D01*
X003972Y023000D01*
X003962Y022951D01*
X003949Y022902D01*
X003931Y022855D01*
X003910Y022809D01*
X003886Y022766D01*
X003858Y022724D01*
X003827Y022684D01*
X003793Y022647D01*
X003756Y022613D01*
X003716Y022582D01*
X003674Y022554D01*
X003631Y022530D01*
X003585Y022509D01*
X003538Y022491D01*
X003489Y022478D01*
X003440Y022468D01*
X003390Y022462D01*
X003340Y022460D01*
X003290Y022462D01*
X003240Y022468D01*
X003191Y022478D01*
X003142Y022491D01*
X003095Y022509D01*
X003049Y022530D01*
X003006Y022554D01*
X002964Y022582D01*
X002924Y022613D01*
X002887Y022647D01*
X002853Y022684D01*
X002822Y022724D01*
X002794Y022766D01*
X002770Y022809D01*
X002749Y022855D01*
X002731Y022902D01*
X002718Y022951D01*
X002708Y023000D01*
X002702Y023050D01*
X002700Y023100D01*
X001910Y036700D02*
X001912Y036750D01*
X001918Y036800D01*
X001928Y036849D01*
X001942Y036897D01*
X001959Y036944D01*
X001980Y036989D01*
X002005Y037033D01*
X002033Y037074D01*
X002065Y037113D01*
X002099Y037150D01*
X002136Y037184D01*
X002176Y037214D01*
X002218Y037241D01*
X002262Y037265D01*
X002308Y037286D01*
X002355Y037302D01*
X002403Y037315D01*
X002453Y037324D01*
X002502Y037329D01*
X002553Y037330D01*
X002603Y037327D01*
X002652Y037320D01*
X002701Y037309D01*
X002749Y037294D01*
X002795Y037276D01*
X002840Y037254D01*
X002883Y037228D01*
X002924Y037199D01*
X002963Y037167D01*
X002999Y037132D01*
X003031Y037094D01*
X003061Y037054D01*
X003088Y037011D01*
X003111Y036967D01*
X003130Y036921D01*
X003146Y036873D01*
X003158Y036824D01*
X003166Y036775D01*
X003170Y036725D01*
X003170Y036675D01*
X003166Y036625D01*
X003158Y036576D01*
X003146Y036527D01*
X003130Y036479D01*
X003111Y036433D01*
X003088Y036389D01*
X003061Y036346D01*
X003031Y036306D01*
X002999Y036268D01*
X002963Y036233D01*
X002924Y036201D01*
X002883Y036172D01*
X002840Y036146D01*
X002795Y036124D01*
X002749Y036106D01*
X002701Y036091D01*
X002652Y036080D01*
X002603Y036073D01*
X002553Y036070D01*
X002502Y036071D01*
X002453Y036076D01*
X002403Y036085D01*
X002355Y036098D01*
X002308Y036114D01*
X002262Y036135D01*
X002218Y036159D01*
X002176Y036186D01*
X002136Y036216D01*
X002099Y036250D01*
X002065Y036287D01*
X002033Y036326D01*
X002005Y036367D01*
X001980Y036411D01*
X001959Y036456D01*
X001942Y036503D01*
X001928Y036551D01*
X001918Y036600D01*
X001912Y036650D01*
X001910Y036700D01*
X038310Y036700D02*
X038312Y036750D01*
X038318Y036800D01*
X038328Y036849D01*
X038342Y036897D01*
X038359Y036944D01*
X038380Y036989D01*
X038405Y037033D01*
X038433Y037074D01*
X038465Y037113D01*
X038499Y037150D01*
X038536Y037184D01*
X038576Y037214D01*
X038618Y037241D01*
X038662Y037265D01*
X038708Y037286D01*
X038755Y037302D01*
X038803Y037315D01*
X038853Y037324D01*
X038902Y037329D01*
X038953Y037330D01*
X039003Y037327D01*
X039052Y037320D01*
X039101Y037309D01*
X039149Y037294D01*
X039195Y037276D01*
X039240Y037254D01*
X039283Y037228D01*
X039324Y037199D01*
X039363Y037167D01*
X039399Y037132D01*
X039431Y037094D01*
X039461Y037054D01*
X039488Y037011D01*
X039511Y036967D01*
X039530Y036921D01*
X039546Y036873D01*
X039558Y036824D01*
X039566Y036775D01*
X039570Y036725D01*
X039570Y036675D01*
X039566Y036625D01*
X039558Y036576D01*
X039546Y036527D01*
X039530Y036479D01*
X039511Y036433D01*
X039488Y036389D01*
X039461Y036346D01*
X039431Y036306D01*
X039399Y036268D01*
X039363Y036233D01*
X039324Y036201D01*
X039283Y036172D01*
X039240Y036146D01*
X039195Y036124D01*
X039149Y036106D01*
X039101Y036091D01*
X039052Y036080D01*
X039003Y036073D01*
X038953Y036070D01*
X038902Y036071D01*
X038853Y036076D01*
X038803Y036085D01*
X038755Y036098D01*
X038708Y036114D01*
X038662Y036135D01*
X038618Y036159D01*
X038576Y036186D01*
X038536Y036216D01*
X038499Y036250D01*
X038465Y036287D01*
X038433Y036326D01*
X038405Y036367D01*
X038380Y036411D01*
X038359Y036456D01*
X038342Y036503D01*
X038328Y036551D01*
X038318Y036600D01*
X038312Y036650D01*
X038310Y036700D01*
X038310Y003000D02*
X038312Y003050D01*
X038318Y003100D01*
X038328Y003149D01*
X038342Y003197D01*
X038359Y003244D01*
X038380Y003289D01*
X038405Y003333D01*
X038433Y003374D01*
X038465Y003413D01*
X038499Y003450D01*
X038536Y003484D01*
X038576Y003514D01*
X038618Y003541D01*
X038662Y003565D01*
X038708Y003586D01*
X038755Y003602D01*
X038803Y003615D01*
X038853Y003624D01*
X038902Y003629D01*
X038953Y003630D01*
X039003Y003627D01*
X039052Y003620D01*
X039101Y003609D01*
X039149Y003594D01*
X039195Y003576D01*
X039240Y003554D01*
X039283Y003528D01*
X039324Y003499D01*
X039363Y003467D01*
X039399Y003432D01*
X039431Y003394D01*
X039461Y003354D01*
X039488Y003311D01*
X039511Y003267D01*
X039530Y003221D01*
X039546Y003173D01*
X039558Y003124D01*
X039566Y003075D01*
X039570Y003025D01*
X039570Y002975D01*
X039566Y002925D01*
X039558Y002876D01*
X039546Y002827D01*
X039530Y002779D01*
X039511Y002733D01*
X039488Y002689D01*
X039461Y002646D01*
X039431Y002606D01*
X039399Y002568D01*
X039363Y002533D01*
X039324Y002501D01*
X039283Y002472D01*
X039240Y002446D01*
X039195Y002424D01*
X039149Y002406D01*
X039101Y002391D01*
X039052Y002380D01*
X039003Y002373D01*
X038953Y002370D01*
X038902Y002371D01*
X038853Y002376D01*
X038803Y002385D01*
X038755Y002398D01*
X038708Y002414D01*
X038662Y002435D01*
X038618Y002459D01*
X038576Y002486D01*
X038536Y002516D01*
X038499Y002550D01*
X038465Y002587D01*
X038433Y002626D01*
X038405Y002667D01*
X038380Y002711D01*
X038359Y002756D01*
X038342Y002803D01*
X038328Y002851D01*
X038318Y002900D01*
X038312Y002950D01*
X038310Y003000D01*
D11*
X030914Y012000D03*
X030166Y012000D03*
X029314Y012000D03*
X028566Y012000D03*
X029166Y014200D03*
X029914Y014200D03*
X024614Y024300D03*
X023866Y024300D03*
X023866Y025100D03*
X024614Y025100D03*
X024614Y025900D03*
X023866Y025900D03*
X030266Y031500D03*
X031014Y031500D03*
X031014Y032300D03*
X030266Y032300D03*
X030266Y033600D03*
X031014Y033600D03*
X031014Y034400D03*
X030266Y034400D03*
X028614Y032900D03*
X027866Y032900D03*
X031966Y030300D03*
X032714Y030300D03*
X032714Y029500D03*
X031966Y029500D03*
X012914Y029500D03*
X012166Y029500D03*
X012166Y030300D03*
X012914Y030300D03*
X011214Y031500D03*
X010466Y031500D03*
X010466Y032300D03*
X011214Y032300D03*
X011214Y033600D03*
X010466Y033600D03*
X010466Y034400D03*
X011214Y034400D03*
X008814Y032900D03*
X008066Y032900D03*
X004814Y025900D03*
X004066Y025900D03*
X004066Y025100D03*
X004814Y025100D03*
X004814Y024300D03*
X004066Y024300D03*
X009366Y014200D03*
X010114Y014200D03*
X010366Y012000D03*
X011114Y012000D03*
X009514Y012000D03*
X008766Y012000D03*
D12*
X007940Y012026D03*
X007940Y012774D03*
X008940Y009274D03*
X008940Y008526D03*
X003940Y018626D03*
X003940Y019374D03*
X008640Y023026D03*
X008640Y023774D03*
X009440Y023774D03*
X009440Y023026D03*
X011840Y022826D03*
X011840Y023574D03*
X012640Y023574D03*
X012640Y022826D03*
X010340Y025926D03*
X010340Y026674D03*
X009540Y026674D03*
X009540Y025926D03*
X007040Y030826D03*
X007040Y031574D03*
X006240Y031574D03*
X006240Y030826D03*
X005440Y030826D03*
X005440Y031574D03*
X002040Y032126D03*
X002040Y032874D03*
X021840Y032874D03*
X021840Y032126D03*
X025240Y031574D03*
X025240Y030826D03*
X026040Y030826D03*
X026040Y031574D03*
X026840Y031574D03*
X026840Y030826D03*
X029340Y026674D03*
X029340Y025926D03*
X030140Y025926D03*
X030140Y026674D03*
X029240Y023774D03*
X029240Y023026D03*
X028440Y023026D03*
X028440Y023774D03*
X031640Y023574D03*
X031640Y022826D03*
X032440Y022826D03*
X032440Y023574D03*
X023740Y019374D03*
X023740Y018626D03*
X027740Y012774D03*
X027740Y012026D03*
X028740Y009274D03*
X028740Y008526D03*
D13*
X029473Y033626D03*
X029473Y034374D03*
X028607Y034000D03*
X031807Y033626D03*
X031807Y034374D03*
X032673Y034000D03*
X012873Y034000D03*
X012007Y033626D03*
X012007Y034374D03*
X009673Y034374D03*
X009673Y033626D03*
X008807Y034000D03*
D14*
X011140Y014969D03*
X011140Y013631D03*
X011140Y008469D03*
X011140Y007131D03*
X030940Y007131D03*
X030940Y008469D03*
X030940Y013631D03*
X030940Y014969D03*
D15*
X024840Y018067D03*
X024840Y020133D03*
X005040Y020133D03*
X005040Y018067D03*
D16*
X009746Y015834D02*
X009746Y015514D01*
X009268Y015514D01*
X009268Y015834D01*
X009746Y015834D01*
X009746Y015548D02*
X009268Y015548D01*
X009268Y015582D02*
X009746Y015582D01*
X009746Y015616D02*
X009268Y015616D01*
X009268Y015650D02*
X009746Y015650D01*
X009746Y015684D02*
X009268Y015684D01*
X009268Y015718D02*
X009746Y015718D01*
X009746Y015752D02*
X009268Y015752D01*
X009268Y015786D02*
X009746Y015786D01*
X009746Y015820D02*
X009268Y015820D01*
X009746Y015086D02*
X009746Y014766D01*
X009268Y014766D01*
X009268Y015086D01*
X009746Y015086D01*
X009746Y014800D02*
X009268Y014800D01*
X009268Y014834D02*
X009746Y014834D01*
X009746Y014868D02*
X009268Y014868D01*
X009268Y014902D02*
X009746Y014902D01*
X009746Y014936D02*
X009268Y014936D01*
X009268Y014970D02*
X009746Y014970D01*
X009746Y015004D02*
X009268Y015004D01*
X009268Y015038D02*
X009746Y015038D01*
X009746Y015072D02*
X009268Y015072D01*
X010612Y015140D02*
X010612Y015460D01*
X010612Y015140D02*
X010134Y015140D01*
X010134Y015460D01*
X010612Y015460D01*
X010612Y015174D02*
X010134Y015174D01*
X010134Y015208D02*
X010612Y015208D01*
X010612Y015242D02*
X010134Y015242D01*
X010134Y015276D02*
X010612Y015276D01*
X010612Y015310D02*
X010134Y015310D01*
X010134Y015344D02*
X010612Y015344D01*
X010612Y015378D02*
X010134Y015378D01*
X010134Y015412D02*
X010612Y015412D01*
X010612Y015446D02*
X010134Y015446D01*
X009746Y013634D02*
X009746Y013314D01*
X009268Y013314D01*
X009268Y013634D01*
X009746Y013634D01*
X009746Y013348D02*
X009268Y013348D01*
X009268Y013382D02*
X009746Y013382D01*
X009746Y013416D02*
X009268Y013416D01*
X009268Y013450D02*
X009746Y013450D01*
X009746Y013484D02*
X009268Y013484D01*
X009268Y013518D02*
X009746Y013518D01*
X009746Y013552D02*
X009268Y013552D01*
X009268Y013586D02*
X009746Y013586D01*
X009746Y013620D02*
X009268Y013620D01*
X009746Y012886D02*
X009746Y012566D01*
X009268Y012566D01*
X009268Y012886D01*
X009746Y012886D01*
X009746Y012600D02*
X009268Y012600D01*
X009268Y012634D02*
X009746Y012634D01*
X009746Y012668D02*
X009268Y012668D01*
X009268Y012702D02*
X009746Y012702D01*
X009746Y012736D02*
X009268Y012736D01*
X009268Y012770D02*
X009746Y012770D01*
X009746Y012804D02*
X009268Y012804D01*
X009268Y012838D02*
X009746Y012838D01*
X009746Y012872D02*
X009268Y012872D01*
X010612Y012940D02*
X010612Y013260D01*
X010612Y012940D02*
X010134Y012940D01*
X010134Y013260D01*
X010612Y013260D01*
X010612Y012974D02*
X010134Y012974D01*
X010134Y013008D02*
X010612Y013008D01*
X010612Y013042D02*
X010134Y013042D01*
X010134Y013076D02*
X010612Y013076D01*
X010612Y013110D02*
X010134Y013110D01*
X010134Y013144D02*
X010612Y013144D01*
X010612Y013178D02*
X010134Y013178D01*
X010134Y013212D02*
X010612Y013212D01*
X010612Y013246D02*
X010134Y013246D01*
X010254Y009194D02*
X010574Y009194D01*
X010254Y009194D02*
X010254Y009672D01*
X010574Y009672D01*
X010574Y009194D01*
X010574Y009228D02*
X010254Y009228D01*
X010254Y009262D02*
X010574Y009262D01*
X010574Y009296D02*
X010254Y009296D01*
X010254Y009330D02*
X010574Y009330D01*
X010574Y009364D02*
X010254Y009364D01*
X010254Y009398D02*
X010574Y009398D01*
X010574Y009432D02*
X010254Y009432D01*
X010254Y009466D02*
X010574Y009466D01*
X010574Y009500D02*
X010254Y009500D01*
X010254Y009534D02*
X010574Y009534D01*
X010574Y009568D02*
X010254Y009568D01*
X010254Y009602D02*
X010574Y009602D01*
X010574Y009636D02*
X010254Y009636D01*
X010254Y009670D02*
X010574Y009670D01*
X009826Y009194D02*
X009506Y009194D01*
X009506Y009672D01*
X009826Y009672D01*
X009826Y009194D01*
X009826Y009228D02*
X009506Y009228D01*
X009506Y009262D02*
X009826Y009262D01*
X009826Y009296D02*
X009506Y009296D01*
X009506Y009330D02*
X009826Y009330D01*
X009826Y009364D02*
X009506Y009364D01*
X009506Y009398D02*
X009826Y009398D01*
X009826Y009432D02*
X009506Y009432D01*
X009506Y009466D02*
X009826Y009466D01*
X009826Y009500D02*
X009506Y009500D01*
X009506Y009534D02*
X009826Y009534D01*
X009826Y009568D02*
X009506Y009568D01*
X009506Y009602D02*
X009826Y009602D01*
X009826Y009636D02*
X009506Y009636D01*
X009506Y009670D02*
X009826Y009670D01*
X009880Y008328D02*
X010200Y008328D01*
X009880Y008328D02*
X009880Y008806D01*
X010200Y008806D01*
X010200Y008328D01*
X010200Y008362D02*
X009880Y008362D01*
X009880Y008396D02*
X010200Y008396D01*
X010200Y008430D02*
X009880Y008430D01*
X009880Y008464D02*
X010200Y008464D01*
X010200Y008498D02*
X009880Y008498D01*
X009880Y008532D02*
X010200Y008532D01*
X010200Y008566D02*
X009880Y008566D01*
X009880Y008600D02*
X010200Y008600D01*
X010200Y008634D02*
X009880Y008634D01*
X009880Y008668D02*
X010200Y008668D01*
X010200Y008702D02*
X009880Y008702D01*
X009880Y008736D02*
X010200Y008736D01*
X010200Y008770D02*
X009880Y008770D01*
X009880Y008804D02*
X010200Y008804D01*
X012880Y020828D02*
X013200Y020828D01*
X012880Y020828D02*
X012880Y021306D01*
X013200Y021306D01*
X013200Y020828D01*
X013200Y020862D02*
X012880Y020862D01*
X012880Y020896D02*
X013200Y020896D01*
X013200Y020930D02*
X012880Y020930D01*
X012880Y020964D02*
X013200Y020964D01*
X013200Y020998D02*
X012880Y020998D01*
X012880Y021032D02*
X013200Y021032D01*
X013200Y021066D02*
X012880Y021066D01*
X012880Y021100D02*
X013200Y021100D01*
X013200Y021134D02*
X012880Y021134D01*
X012880Y021168D02*
X013200Y021168D01*
X013200Y021202D02*
X012880Y021202D01*
X012880Y021236D02*
X013200Y021236D01*
X013200Y021270D02*
X012880Y021270D01*
X012880Y021304D02*
X013200Y021304D01*
X013254Y021694D02*
X013574Y021694D01*
X013254Y021694D02*
X013254Y022172D01*
X013574Y022172D01*
X013574Y021694D01*
X013574Y021728D02*
X013254Y021728D01*
X013254Y021762D02*
X013574Y021762D01*
X013574Y021796D02*
X013254Y021796D01*
X013254Y021830D02*
X013574Y021830D01*
X013574Y021864D02*
X013254Y021864D01*
X013254Y021898D02*
X013574Y021898D01*
X013574Y021932D02*
X013254Y021932D01*
X013254Y021966D02*
X013574Y021966D01*
X013574Y022000D02*
X013254Y022000D01*
X013254Y022034D02*
X013574Y022034D01*
X013574Y022068D02*
X013254Y022068D01*
X013254Y022102D02*
X013574Y022102D01*
X013574Y022136D02*
X013254Y022136D01*
X013254Y022170D02*
X013574Y022170D01*
X012826Y021694D02*
X012506Y021694D01*
X012506Y022172D01*
X012826Y022172D01*
X012826Y021694D01*
X012826Y021728D02*
X012506Y021728D01*
X012506Y021762D02*
X012826Y021762D01*
X012826Y021796D02*
X012506Y021796D01*
X012506Y021830D02*
X012826Y021830D01*
X012826Y021864D02*
X012506Y021864D01*
X012506Y021898D02*
X012826Y021898D01*
X012826Y021932D02*
X012506Y021932D01*
X012506Y021966D02*
X012826Y021966D01*
X012826Y022000D02*
X012506Y022000D01*
X012506Y022034D02*
X012826Y022034D01*
X012826Y022068D02*
X012506Y022068D01*
X012506Y022102D02*
X012826Y022102D01*
X012826Y022136D02*
X012506Y022136D01*
X012506Y022170D02*
X012826Y022170D01*
X009234Y024266D02*
X009234Y024586D01*
X009712Y024586D01*
X009712Y024266D01*
X009234Y024266D01*
X009234Y024300D02*
X009712Y024300D01*
X009712Y024334D02*
X009234Y024334D01*
X009234Y024368D02*
X009712Y024368D01*
X009712Y024402D02*
X009234Y024402D01*
X009234Y024436D02*
X009712Y024436D01*
X009712Y024470D02*
X009234Y024470D01*
X009234Y024504D02*
X009712Y024504D01*
X009712Y024538D02*
X009234Y024538D01*
X009234Y024572D02*
X009712Y024572D01*
X009234Y025014D02*
X009234Y025334D01*
X009712Y025334D01*
X009712Y025014D01*
X009234Y025014D01*
X009234Y025048D02*
X009712Y025048D01*
X009712Y025082D02*
X009234Y025082D01*
X009234Y025116D02*
X009712Y025116D01*
X009712Y025150D02*
X009234Y025150D01*
X009234Y025184D02*
X009712Y025184D01*
X009712Y025218D02*
X009234Y025218D01*
X009234Y025252D02*
X009712Y025252D01*
X009712Y025286D02*
X009234Y025286D01*
X009234Y025320D02*
X009712Y025320D01*
X008368Y024960D02*
X008368Y024640D01*
X008368Y024960D02*
X008846Y024960D01*
X008846Y024640D01*
X008368Y024640D01*
X008368Y024674D02*
X008846Y024674D01*
X008846Y024708D02*
X008368Y024708D01*
X008368Y024742D02*
X008846Y024742D01*
X008846Y024776D02*
X008368Y024776D01*
X008368Y024810D02*
X008846Y024810D01*
X008846Y024844D02*
X008368Y024844D01*
X008368Y024878D02*
X008846Y024878D01*
X008846Y024912D02*
X008368Y024912D01*
X008368Y024946D02*
X008846Y024946D01*
X028168Y024960D02*
X028168Y024640D01*
X028168Y024960D02*
X028646Y024960D01*
X028646Y024640D01*
X028168Y024640D01*
X028168Y024674D02*
X028646Y024674D01*
X028646Y024708D02*
X028168Y024708D01*
X028168Y024742D02*
X028646Y024742D01*
X028646Y024776D02*
X028168Y024776D01*
X028168Y024810D02*
X028646Y024810D01*
X028646Y024844D02*
X028168Y024844D01*
X028168Y024878D02*
X028646Y024878D01*
X028646Y024912D02*
X028168Y024912D01*
X028168Y024946D02*
X028646Y024946D01*
X029034Y025014D02*
X029034Y025334D01*
X029512Y025334D01*
X029512Y025014D01*
X029034Y025014D01*
X029034Y025048D02*
X029512Y025048D01*
X029512Y025082D02*
X029034Y025082D01*
X029034Y025116D02*
X029512Y025116D01*
X029512Y025150D02*
X029034Y025150D01*
X029034Y025184D02*
X029512Y025184D01*
X029512Y025218D02*
X029034Y025218D01*
X029034Y025252D02*
X029512Y025252D01*
X029512Y025286D02*
X029034Y025286D01*
X029034Y025320D02*
X029512Y025320D01*
X029034Y024586D02*
X029034Y024266D01*
X029034Y024586D02*
X029512Y024586D01*
X029512Y024266D01*
X029034Y024266D01*
X029034Y024300D02*
X029512Y024300D01*
X029512Y024334D02*
X029034Y024334D01*
X029034Y024368D02*
X029512Y024368D01*
X029512Y024402D02*
X029034Y024402D01*
X029034Y024436D02*
X029512Y024436D01*
X029512Y024470D02*
X029034Y024470D01*
X029034Y024504D02*
X029512Y024504D01*
X029512Y024538D02*
X029034Y024538D01*
X029034Y024572D02*
X029512Y024572D01*
X032306Y021694D02*
X032626Y021694D01*
X032306Y021694D02*
X032306Y022172D01*
X032626Y022172D01*
X032626Y021694D01*
X032626Y021728D02*
X032306Y021728D01*
X032306Y021762D02*
X032626Y021762D01*
X032626Y021796D02*
X032306Y021796D01*
X032306Y021830D02*
X032626Y021830D01*
X032626Y021864D02*
X032306Y021864D01*
X032306Y021898D02*
X032626Y021898D01*
X032626Y021932D02*
X032306Y021932D01*
X032306Y021966D02*
X032626Y021966D01*
X032626Y022000D02*
X032306Y022000D01*
X032306Y022034D02*
X032626Y022034D01*
X032626Y022068D02*
X032306Y022068D01*
X032306Y022102D02*
X032626Y022102D01*
X032626Y022136D02*
X032306Y022136D01*
X032306Y022170D02*
X032626Y022170D01*
X033054Y021694D02*
X033374Y021694D01*
X033054Y021694D02*
X033054Y022172D01*
X033374Y022172D01*
X033374Y021694D01*
X033374Y021728D02*
X033054Y021728D01*
X033054Y021762D02*
X033374Y021762D01*
X033374Y021796D02*
X033054Y021796D01*
X033054Y021830D02*
X033374Y021830D01*
X033374Y021864D02*
X033054Y021864D01*
X033054Y021898D02*
X033374Y021898D01*
X033374Y021932D02*
X033054Y021932D01*
X033054Y021966D02*
X033374Y021966D01*
X033374Y022000D02*
X033054Y022000D01*
X033054Y022034D02*
X033374Y022034D01*
X033374Y022068D02*
X033054Y022068D01*
X033054Y022102D02*
X033374Y022102D01*
X033374Y022136D02*
X033054Y022136D01*
X033054Y022170D02*
X033374Y022170D01*
X033000Y020828D02*
X032680Y020828D01*
X032680Y021306D01*
X033000Y021306D01*
X033000Y020828D01*
X033000Y020862D02*
X032680Y020862D01*
X032680Y020896D02*
X033000Y020896D01*
X033000Y020930D02*
X032680Y020930D01*
X032680Y020964D02*
X033000Y020964D01*
X033000Y020998D02*
X032680Y020998D01*
X032680Y021032D02*
X033000Y021032D01*
X033000Y021066D02*
X032680Y021066D01*
X032680Y021100D02*
X033000Y021100D01*
X033000Y021134D02*
X032680Y021134D01*
X032680Y021168D02*
X033000Y021168D01*
X033000Y021202D02*
X032680Y021202D01*
X032680Y021236D02*
X033000Y021236D01*
X033000Y021270D02*
X032680Y021270D01*
X032680Y021304D02*
X033000Y021304D01*
X029546Y015834D02*
X029546Y015514D01*
X029068Y015514D01*
X029068Y015834D01*
X029546Y015834D01*
X029546Y015548D02*
X029068Y015548D01*
X029068Y015582D02*
X029546Y015582D01*
X029546Y015616D02*
X029068Y015616D01*
X029068Y015650D02*
X029546Y015650D01*
X029546Y015684D02*
X029068Y015684D01*
X029068Y015718D02*
X029546Y015718D01*
X029546Y015752D02*
X029068Y015752D01*
X029068Y015786D02*
X029546Y015786D01*
X029546Y015820D02*
X029068Y015820D01*
X029546Y015086D02*
X029546Y014766D01*
X029068Y014766D01*
X029068Y015086D01*
X029546Y015086D01*
X029546Y014800D02*
X029068Y014800D01*
X029068Y014834D02*
X029546Y014834D01*
X029546Y014868D02*
X029068Y014868D01*
X029068Y014902D02*
X029546Y014902D01*
X029546Y014936D02*
X029068Y014936D01*
X029068Y014970D02*
X029546Y014970D01*
X029546Y015004D02*
X029068Y015004D01*
X029068Y015038D02*
X029546Y015038D01*
X029546Y015072D02*
X029068Y015072D01*
X030412Y015140D02*
X030412Y015460D01*
X030412Y015140D02*
X029934Y015140D01*
X029934Y015460D01*
X030412Y015460D01*
X030412Y015174D02*
X029934Y015174D01*
X029934Y015208D02*
X030412Y015208D01*
X030412Y015242D02*
X029934Y015242D01*
X029934Y015276D02*
X030412Y015276D01*
X030412Y015310D02*
X029934Y015310D01*
X029934Y015344D02*
X030412Y015344D01*
X030412Y015378D02*
X029934Y015378D01*
X029934Y015412D02*
X030412Y015412D01*
X030412Y015446D02*
X029934Y015446D01*
X029546Y013634D02*
X029546Y013314D01*
X029068Y013314D01*
X029068Y013634D01*
X029546Y013634D01*
X029546Y013348D02*
X029068Y013348D01*
X029068Y013382D02*
X029546Y013382D01*
X029546Y013416D02*
X029068Y013416D01*
X029068Y013450D02*
X029546Y013450D01*
X029546Y013484D02*
X029068Y013484D01*
X029068Y013518D02*
X029546Y013518D01*
X029546Y013552D02*
X029068Y013552D01*
X029068Y013586D02*
X029546Y013586D01*
X029546Y013620D02*
X029068Y013620D01*
X029546Y012886D02*
X029546Y012566D01*
X029068Y012566D01*
X029068Y012886D01*
X029546Y012886D01*
X029546Y012600D02*
X029068Y012600D01*
X029068Y012634D02*
X029546Y012634D01*
X029546Y012668D02*
X029068Y012668D01*
X029068Y012702D02*
X029546Y012702D01*
X029546Y012736D02*
X029068Y012736D01*
X029068Y012770D02*
X029546Y012770D01*
X029546Y012804D02*
X029068Y012804D01*
X029068Y012838D02*
X029546Y012838D01*
X029546Y012872D02*
X029068Y012872D01*
X030412Y012940D02*
X030412Y013260D01*
X030412Y012940D02*
X029934Y012940D01*
X029934Y013260D01*
X030412Y013260D01*
X030412Y012974D02*
X029934Y012974D01*
X029934Y013008D02*
X030412Y013008D01*
X030412Y013042D02*
X029934Y013042D01*
X029934Y013076D02*
X030412Y013076D01*
X030412Y013110D02*
X029934Y013110D01*
X029934Y013144D02*
X030412Y013144D01*
X030412Y013178D02*
X029934Y013178D01*
X029934Y013212D02*
X030412Y013212D01*
X030412Y013246D02*
X029934Y013246D01*
X030054Y009194D02*
X030374Y009194D01*
X030054Y009194D02*
X030054Y009672D01*
X030374Y009672D01*
X030374Y009194D01*
X030374Y009228D02*
X030054Y009228D01*
X030054Y009262D02*
X030374Y009262D01*
X030374Y009296D02*
X030054Y009296D01*
X030054Y009330D02*
X030374Y009330D01*
X030374Y009364D02*
X030054Y009364D01*
X030054Y009398D02*
X030374Y009398D01*
X030374Y009432D02*
X030054Y009432D01*
X030054Y009466D02*
X030374Y009466D01*
X030374Y009500D02*
X030054Y009500D01*
X030054Y009534D02*
X030374Y009534D01*
X030374Y009568D02*
X030054Y009568D01*
X030054Y009602D02*
X030374Y009602D01*
X030374Y009636D02*
X030054Y009636D01*
X030054Y009670D02*
X030374Y009670D01*
X029626Y009194D02*
X029306Y009194D01*
X029306Y009672D01*
X029626Y009672D01*
X029626Y009194D01*
X029626Y009228D02*
X029306Y009228D01*
X029306Y009262D02*
X029626Y009262D01*
X029626Y009296D02*
X029306Y009296D01*
X029306Y009330D02*
X029626Y009330D01*
X029626Y009364D02*
X029306Y009364D01*
X029306Y009398D02*
X029626Y009398D01*
X029626Y009432D02*
X029306Y009432D01*
X029306Y009466D02*
X029626Y009466D01*
X029626Y009500D02*
X029306Y009500D01*
X029306Y009534D02*
X029626Y009534D01*
X029626Y009568D02*
X029306Y009568D01*
X029306Y009602D02*
X029626Y009602D01*
X029626Y009636D02*
X029306Y009636D01*
X029306Y009670D02*
X029626Y009670D01*
X029680Y008328D02*
X030000Y008328D01*
X029680Y008328D02*
X029680Y008806D01*
X030000Y008806D01*
X030000Y008328D01*
X030000Y008362D02*
X029680Y008362D01*
X029680Y008396D02*
X030000Y008396D01*
X030000Y008430D02*
X029680Y008430D01*
X029680Y008464D02*
X030000Y008464D01*
X030000Y008498D02*
X029680Y008498D01*
X029680Y008532D02*
X030000Y008532D01*
X030000Y008566D02*
X029680Y008566D01*
X029680Y008600D02*
X030000Y008600D01*
X030000Y008634D02*
X029680Y008634D01*
X029680Y008668D02*
X030000Y008668D01*
X030000Y008702D02*
X029680Y008702D01*
X029680Y008736D02*
X030000Y008736D01*
X030000Y008770D02*
X029680Y008770D01*
X029680Y008804D02*
X030000Y008804D01*
M02*
